<svg width="20" height="20" viewBox="0 0 20 20" fill="none" xmlns="http://www.w3.org/2000/svg">
<path d="M13.2727 17.2275V15.5911C13.2727 14.7231 12.9279 13.8907 12.3142 13.2769C11.7004 12.6632 10.868 12.3184 10 12.3184H4.27273C3.40475 12.3184 2.57232 12.6632 1.95856 13.2769C1.3448 13.8907 1 14.7231 1 15.5911V17.2275" stroke="black" stroke-linecap="round" stroke-linejoin="round"/>
<path d="M7.1365 9.04545C8.94397 9.04545 10.4092 7.5802 10.4092 5.77273C10.4092 3.96525 8.94397 2.5 7.1365 2.5C5.32902 2.5 3.86377 3.96525 3.86377 5.77273C3.86377 7.5802 5.32902 9.04545 7.1365 9.04545Z" stroke="black" stroke-linecap="round" stroke-linejoin="round"/>
<path d="M16.5454 6.59082V11.4999" stroke="black" stroke-linecap="round" stroke-linejoin="round"/>
<path d="M18.9999 9.0459H14.0908" stroke="black" stroke-linecap="round" stroke-linejoin="round"/>
</svg>
