<svg width="22" height="20" viewBox="0 0 22 20" fill="none" xmlns="http://www.w3.org/2000/svg">
<path d="M8.25001 20L7.85001 16.8C7.63335 16.7167 7.42918 16.6167 7.23751 16.5C7.04585 16.3833 6.85835 16.2583 6.67501 16.125L3.70001 17.375L0.950012 12.625L3.52501 10.675C3.50835 10.5583 3.50001 10.4458 3.50001 10.3375V9.6625C3.50001 9.55417 3.50835 9.44167 3.52501 9.325L0.950012 7.375L3.70001 2.625L6.67501 3.875C6.85835 3.74167 7.05001 3.61667 7.25001 3.5C7.45001 3.38333 7.65001 3.28333 7.85001 3.2L8.25001 0H13.75L14.15 3.2C14.3667 3.28333 14.5708 3.38333 14.7625 3.5C14.9542 3.61667 15.1417 3.74167 15.325 3.875L18.3 2.625L21.05 7.375L18.475 9.325C18.4917 9.44167 18.5 9.55417 18.5 9.6625V10.3375C18.5 10.4458 18.4833 10.5583 18.45 10.675L21.025 12.625L18.275 17.375L15.325 16.125C15.1417 16.2583 14.95 16.3833 14.75 16.5C14.55 16.6167 14.35 16.7167 14.15 16.8L13.75 20H8.25001ZM11.05 13.5C12.0167 13.5 12.8417 13.1583 13.525 12.475C14.2083 11.7917 14.55 10.9667 14.55 10C14.55 9.03333 14.2083 8.20833 13.525 7.525C12.8417 6.84167 12.0167 6.5 11.05 6.5C10.0667 6.5 9.23751 6.84167 8.56251 7.525C7.88751 8.20833 7.55001 9.03333 7.55001 10C7.55001 10.9667 7.88751 11.7917 8.56251 12.475C9.23751 13.1583 10.0667 13.5 11.05 13.5ZM11.05 11.5C10.6333 11.5 10.2792 11.3542 9.98751 11.0625C9.69585 10.7708 9.55001 10.4167 9.55001 10C9.55001 9.58333 9.69585 9.22917 9.98751 8.9375C10.2792 8.64583 10.6333 8.5 11.05 8.5C11.4667 8.5 11.8208 8.64583 12.1125 8.9375C12.4042 9.22917 12.55 9.58333 12.55 10C12.55 10.4167 12.4042 10.7708 12.1125 11.0625C11.8208 11.3542 11.4667 11.5 11.05 11.5ZM10 18H11.975L12.325 15.35C12.8417 15.2167 13.3208 15.0208 13.7625 14.7625C14.2042 14.5042 14.6083 14.1917 14.975 13.825L17.45 14.85L18.425 13.15L16.275 11.525C16.3583 11.2917 16.4167 11.0458 16.45 10.7875C16.4833 10.5292 16.5 10.2667 16.5 10C16.5 9.73333 16.4833 9.47083 16.45 9.2125C16.4167 8.95417 16.3583 8.70833 16.275 8.475L18.425 6.85L17.45 5.15L14.975 6.2C14.6083 5.81667 14.2042 5.49583 13.7625 5.2375C13.3208 4.97917 12.8417 4.78333 12.325 4.65L12 2H10.025L9.67501 4.65C9.15835 4.78333 8.67918 4.97917 8.23751 5.2375C7.79585 5.49583 7.39168 5.80833 7.02501 6.175L4.55001 5.15L3.57501 6.85L5.72501 8.45C5.64168 8.7 5.58335 8.95 5.55001 9.2C5.51668 9.45 5.50001 9.71667 5.50001 10C5.50001 10.2667 5.51668 10.525 5.55001 10.775C5.58335 11.025 5.64168 11.275 5.72501 11.525L3.57501 13.15L4.55001 14.85L7.02501 13.8C7.39168 14.1833 7.79585 14.5042 8.23751 14.7625C8.67918 15.0208 9.15835 15.2167 9.67501 15.35L10 18Z" fill="#555555"/>
</svg>
