<svg width="30" height="30" viewBox="0 0 30 30" fill="none" xmlns="http://www.w3.org/2000/svg">
<path d="M28.45 16.53L16.33 4.41C15.78 3.86 14.81 3.86 14.27 4.41L2.15 16.53C1.95 16.73 1.95 17.04 2.15 17.24C2.35 17.44 2.66 17.44 2.86 17.24L14.97 5.12C15.14 4.95 15.45 4.95 15.62 5.12L27.74 17.24C27.84 17.34 27.97 17.39 28.09 17.39C28.21 17.39 28.35 17.34 28.44 17.24C28.64 17.04 28.64 16.73 28.44 16.53H28.45Z" fill="#DA6022"/>
<path d="M24.57 17.18L16.33 8.94C15.78 8.39 14.81 8.39 14.27 8.94L6.02 17.18C5.55 17.65 5.2 18.51 5.2 19.17V25.52C5.2 26.33 5.85 26.98 6.66 26.98H23.94C24.75 26.98 25.4 26.33 25.4 25.52V19.17C25.4 18.51 25.05 17.65 24.58 17.18H24.57Z" fill="#DA6022"/>
</svg>
