<svg width="30" height="30" viewBox="0 0 30 30" fill="none" xmlns="http://www.w3.org/2000/svg">
<path d="M28.12 7.18H26.31V5.5C26.31 5.22 26.09 5 25.81 5H19.21C19.21 5 19.18 5 19.16 5C17 5.02 15.31 6.91 15.31 9.07V23.68H14.31V9.07C14.31 6.91 12.62 5.02 10.46 5C10.44 5 10.43 5 10.41 5H3.81C3.53 5 3.31 5.22 3.31 5.5V7.18H1.5C1.22 7.18 1 7.4 1 7.68V24.18C1 24.46 1.22 24.68 1.5 24.68H28.12C28.4 24.68 28.62 24.46 28.62 24.18V7.68C28.62 7.4 28.4 7.18 28.12 7.18ZM2 23.68V8.18H3.31V22C3.31 22.28 3.53 22.5 3.81 22.5H11.51C12.45 22.5 13.28 22.97 13.79 23.68H2ZM27.62 23.68H15.84C16.35 22.97 17.18 22.5 18.12 22.5H25.82C26.1 22.5 26.32 22.28 26.32 22V8.18H27.63V23.68H27.62Z" fill="#DA6022"/>
</svg>
