<svg width="34" height="34" viewBox="0 0 34 34" fill="none" xmlns="http://www.w3.org/2000/svg">
<g clip-path="url(#clip0_7200_4745)">
<path d="M25.94 17.4201C25.48 17.4201 25.13 17.7801 25.13 18.2301V26.0601C25.13 26.8501 24.49 27.4901 23.71 27.4901H8.05C7.26 27.4901 6.62 26.8501 6.62 26.0601V10.4201C6.62 9.63012 7.26 8.99012 8.05 8.99012H15.88C16.34 8.99012 16.69 8.63012 16.69 8.18012C16.69 7.73012 16.33 7.37012 15.88 7.37012H8.05C6.37 7.37012 5 8.74012 5 10.4201V26.0601C5 27.7401 6.37 29.1101 8.05 29.1101H23.7C25.38 29.1101 26.75 27.7401 26.75 26.0601V18.2301C26.75 17.7701 26.39 17.4201 25.94 17.4201Z" fill="#DA6022"/>
<path d="M28.19 5.93C27.59 5.33 26.79 5 25.94 5C25.09 5 24.29 5.33 23.69 5.93L13.07 16.55C12.96 16.66 12.89 16.79 12.86 16.93L11.75 21.41C11.69 21.68 11.77 21.98 11.95 22.16C12.09 22.32 12.31 22.41 12.53 22.41C12.6 22.41 12.66 22.4 12.73 22.38L17.2 21.27C17.38 21.23 17.51 21.13 17.58 21.06L28.19 10.44C28.79 9.84 29.12 9.04 29.12 8.19C29.12 7.34 28.79 6.54 28.19 5.94V5.93ZM27.51 8.16C27.51 8.58 27.35 8.97 27.05 9.27L16.58 19.74L13.64 20.48L14.38 17.54L24.84 7.07C25.44 6.47 26.44 6.47 27.05 7.07C27.34 7.36 27.51 7.74 27.51 8.16Z" fill="#DA6022"/>
</g>
<defs>
<clipPath id="clip0_7200_4745">
<rect width="24.12" height="24.11" fill="white" transform="translate(5 5)"/>
</clipPath>
</defs>
</svg>
