<svg width="30" height="30" viewBox="0 0 30 30" fill="none" xmlns="http://www.w3.org/2000/svg">
<path d="M25.9891 5H19.2457C17.2635 5 15.5572 6.14 14.75 7.78C13.9428 6.14 12.2365 5 10.2543 5H3.51087C3.22478 5 3 5.22 3 5.5V22C3 22.28 3.22478 22.5 3.51087 22.5H11.3783C12.9517 22.5 14.2391 23.76 14.2391 25.3C14.2391 25.58 14.4639 25.8 14.75 25.8C15.0361 25.8 15.2609 25.58 15.2609 25.3C15.2609 23.76 16.5483 22.5 18.1217 22.5H25.9891C26.2752 22.5 26.5 22.28 26.5 22V5.5C26.5 5.22 26.2752 5 25.9891 5ZM14.2391 22.73C13.5239 21.97 12.5124 21.5 11.3783 21.5H4.02174V6H10.2543C12.4511 6 14.2391 7.75 14.2391 9.9V22.73ZM25.4783 21.5H18.1217C16.9876 21.5 15.9761 21.98 15.2609 22.73V9.9C15.2609 7.75 17.0489 6 19.2457 6H25.4783V21.5Z" fill="black"/>
</svg>
