<svg width="30" height="30" viewBox="0 0 30 30" fill="none" xmlns="http://www.w3.org/2000/svg">
<path d="M12.22 15.5C8.5 15.5 5.47 12.47 5.47 8.75C5.47 5.03 8.5 2 12.22 2C15.94 2 18.97 5.03 18.97 8.75C18.97 12.47 15.94 15.5 12.22 15.5ZM12.22 3C9.05 3 6.47 5.58 6.47 8.75C6.47 11.92 9.05 14.5 12.22 14.5C15.39 14.5 17.97 11.92 17.97 8.75C17.97 5.58 15.39 3 12.22 3Z" fill="#1D1D1B"/>
<path d="M20.94 28C20.66 28 20.44 27.78 20.44 27.5C20.44 22.77 16.6 18.62 12.22 18.62C7.84 18.62 4 22.77 4 27.5C4 27.78 3.78 28 3.5 28C3.22 28 3 27.78 3 27.5C3 22.24 7.31 17.62 12.22 17.62C17.13 17.62 21.44 22.23 21.44 27.5C21.44 27.78 21.22 28 20.94 28Z" fill="#1D1D1B"/>
<path d="M19.49 16.53C19.21 16.53 18.99 16.31 18.99 16.03C18.99 15.75 19.21 15.53 19.49 15.53C22.38 15.53 24.72 13.18 24.72 10.3C24.72 7.42001 22.37 5.07001 19.49 5.07001C19.21 5.07001 18.99 4.85001 18.99 4.57001C18.99 4.29001 19.21 4.07001 19.49 4.07001C22.93 4.07001 25.72 6.87001 25.72 10.3C25.72 13.73 22.92 16.53 19.49 16.53Z" fill="#1D1D1B"/>
<path d="M27.49 28C27.21 28 26.99 27.78 26.99 27.5C26.99 23.18 23.49 19.4 19.49 19.4C19.21 19.4 18.99 19.18 18.99 18.9C18.99 18.62 19.21 18.4 19.49 18.4C24.02 18.4 27.99 22.65 27.99 27.5C27.99 27.78 27.77 28 27.49 28Z" fill="#1D1D1B"/>
</svg>
