<svg width="345" height="50" viewBox="0 0 345 50" fill="none" xmlns="http://www.w3.org/2000/svg">
<rect x="0.5" y="0.5" width="344" height="49" rx="14.5" stroke="#555555" stroke-dasharray="5 5"/>
<path d="M59.4238 21.8408C59.4238 23.9795 60.4639 26.1914 62.1924 27.1289L61.5039 28.0371C60.2441 27.312 59.3433 25.9863 58.8818 24.4189C58.3911 26.1255 57.4243 27.583 56.1279 28.3594L55.3809 27.5098C57.1973 26.4697 58.3105 24.1406 58.3105 21.9141V19.3945H59.4238V21.8408ZM66.6895 18.1641V31.1865H65.5762V24.3604H63.7891V30.5273H62.6758V18.4424H63.7891V23.4082H65.5762V18.1641H66.6895ZM79.0088 19.5264C78.9941 23.291 77.7197 26.7334 73.0322 29.0332L72.3877 28.1543C74.8413 26.9678 76.3135 25.459 77.1045 23.7012L72.6367 24.126L72.4463 23.1152L77.4561 22.7783C77.6831 22.0459 77.8149 21.2769 77.8662 20.4785H73.1055V19.5264H79.0088ZM82.334 18.1641V23.4668H84.4434V24.4336H82.334V31.1865H81.1914V18.1641H82.334ZM90.5811 19.7607V20.6836H86.8311V23.2617H89.9805V24.1846H86.8311V27.1143C88.6987 27.0923 89.8413 27.0264 91.2549 26.7627L91.3574 27.7002C89.8486 28.0078 88.6182 28.0371 86.5527 28.0518H85.7324V19.7607H90.5811ZM96.3672 18.1641V31.1865H95.2539V18.1641H96.3672ZM93.7012 18.4863V30.5127H92.6025V24.0674H90.6836V23.1152H92.6025V18.4863H93.7012ZM108.628 19.4824V20.7861C108.613 22.3828 108.613 24.1699 108.145 26.792L106.973 26.6602C107.471 24.1699 107.471 22.3389 107.471 20.7861V20.4346H99.4434V19.4824H108.628ZM110.049 28.3887V29.3408H98.1836V28.3887H102.842V23.7305H103.97V28.3887H110.049ZM121.899 18.1641V31.2158H120.757V18.1641H121.899ZM117.944 19.3799V24.0088H113.081V27.085C115.242 27.085 117.168 26.9897 119.497 26.6162L119.614 27.583C117.212 27.9639 115.234 28.0518 112.993 28.0518H111.909V23.0713H116.787V20.332H111.88V19.3799H117.944Z" fill="#555555"/>
<circle cx="25" cy="25" r="9.5" stroke="#555555"/>
<line x1="25" y1="21" x2="25" y2="29" stroke="#555555" stroke-linecap="round"/>
<line x1="29" y1="25" x2="21" y2="25" stroke="#555555" stroke-linecap="round"/>
</svg>
