<svg width="60" height="60" viewBox="0 0 60 60" fill="none" xmlns="http://www.w3.org/2000/svg">
<g clip-path="url(#clip0_6190_10919)">
<path d="M30 60C46.5685 60 60 46.5685 60 30C60 13.4315 46.5685 0 30 0C13.4315 0 0 13.4315 0 30C0 46.5685 13.4315 60 30 60Z" fill="#DA6022"/>
<path d="M30.0001 44.1963C29.2608 44.1963 28.6608 43.5963 28.6608 42.857V17.1428C28.6608 16.4035 29.2608 15.8035 30.0001 15.8035C30.7393 15.8035 31.3393 16.4035 31.3393 17.1428V42.857C31.3393 43.5963 30.7393 44.1963 30.0001 44.1963Z" fill="white"/>
<path d="M42.8572 31.3392H17.1429C16.4036 31.3392 15.8036 30.7392 15.8036 29.9999C15.8036 29.2606 16.4036 28.6606 17.1429 28.6606H42.8572C43.5964 28.6606 44.1964 29.2606 44.1964 29.9999C44.1964 30.7392 43.5964 31.3392 42.8572 31.3392Z" fill="white"/>
</g>
<defs>
<clipPath id="clip0_6190_10919">
<rect width="60" height="60" fill="white"/>
</clipPath>
</defs>
</svg>
