<svg width="30" height="30" viewBox="0 0 30 30" fill="none" xmlns="http://www.w3.org/2000/svg">
<path d="M14.5 9.07C14.5 6.91 12.81 5.02 10.65 5C10.63 5 10.62 5 10.6 5H4C3.72 5 3.5 5.22 3.5 5.5V22C3.5 22.28 3.72 22.5 4 22.5H11.7C12.81 22.5 13.78 23.15 14.23 24.1C14.3 24.24 14.5 24.19 14.5 24.04V9.07Z" fill="#DA6022"/>
<path d="M26 5H19.4C19.4 5 19.37 5 19.35 5C17.19 5.02 15.5 6.91 15.5 9.07V24.03C15.5 24.18 15.71 24.23 15.77 24.09C16.22 23.15 17.18 22.49 18.3 22.49H26C26.28 22.49 26.5 22.27 26.5 21.99V5.5C26.5 5.22 26.28 5 26 5Z" fill="#DA6022"/>
</svg>
