<svg width="30" height="30" viewBox="0 0 30 30" fill="none" xmlns="http://www.w3.org/2000/svg">
<path d="M17.06 15.99C17.79 16.3 18.6 16.47 19.44 16.47C22.86 16.47 25.64 13.69 25.64 10.26C25.64 6.83001 22.92 4.12001 19.55 4.07001C20.41 5.43001 20.91 7.03001 20.91 8.75001C20.91 11.76 19.38 14.42 17.06 15.99Z" fill="#DA6022"/>
<path d="M19.44 18.42H19.29C21.44 20.33 22.94 23.07 23.3 26.15C23.35 26.61 23.3 27.07 23.14 27.5H26.93C27.48 27.5 27.91 27.02 27.85 26.47C27.34 22.08 23.63 18.42 19.44 18.42Z" fill="#DA6022"/>
<path d="M12.16 15.5C13.25 15.5 14.28 15.24 15.19 14.77C17.39 13.67 18.91 11.38 18.91 8.75C18.91 7.11 18.32 5.6 17.34 4.43C16.1 2.95 14.24 2 12.16 2C8.44 2 5.41 5.03 5.41 8.75C5.41 12.47 8.44 15.5 12.16 15.5Z" fill="#DA6022"/>
<path d="M16.66 18.97C15.31 18.12 13.77 17.62 12.16 17.62C7.6 17.62 3.56 21.6 3 26.38C2.93 26.97 3.4 27.5 4 27.5H20.32C20.92 27.5 21.39 26.97 21.32 26.38C20.96 23.29 19.14 20.53 16.66 18.97Z" fill="#DA6022"/>
</svg>
