<svg width="16" height="3" viewBox="0 0 16 3" fill="none" xmlns="http://www.w3.org/2000/svg">
<path d="M2 0C2.82843 0 3.5 0.671573 3.5 1.5C3.5 2.32843 2.82843 3 2 3C1.17157 3 0.5 2.32843 0.5 1.5C0.5 0.671573 1.17157 0 2 0Z" fill="black"/>
<path d="M8 0C8.82843 0 9.5 0.671573 9.5 1.5C9.5 2.32843 8.82843 3 8 3C7.17157 3 6.5 2.32843 6.5 1.5C6.5 0.671573 7.17157 0 8 0Z" fill="black"/>
<path d="M14 0C14.8284 0 15.5 0.671573 15.5 1.5C15.5 2.32843 14.8284 3 14 3C13.1716 3 12.5 2.32843 12.5 1.5C12.5 0.671573 13.1716 0 14 0Z" fill="black"/>
</svg>
