<svg width="30" height="30" viewBox="0 0 30 30" fill="none" xmlns="http://www.w3.org/2000/svg">
<path d="M28.1 17.39C27.97 17.39 27.84 17.34 27.75 17.24L15.62 5.12C15.45 4.95 15.14 4.95 14.97 5.12L2.85001 17.24C2.65001 17.44 2.34001 17.44 2.14001 17.24C1.94001 17.04 1.94001 16.73 2.14001 16.53L14.27 4.41C14.82 3.86 15.79 3.86 16.33 4.41L28.45 16.53C28.65 16.73 28.65 17.04 28.45 17.24C28.35 17.34 28.22 17.39 28.1 17.39Z" fill="#1D1D1B"/>
<path d="M23.94 26.99H6.66C5.85 26.99 5.2 26.34 5.2 25.53V19.18C5.2 18.52 5.55 17.66 6.02 17.19L14.27 8.94C14.84 8.37 15.77 8.37 16.33 8.94L19.79 12.4C19.99 12.6 19.99 12.91 19.79 13.11C19.59 13.31 19.28 13.31 19.08 13.11L15.62 9.65C15.44 9.47 15.15 9.47 14.97 9.65L6.73 17.89C6.45 18.17 6.2 18.78 6.2 19.18V25.53C6.2 25.78 6.41 25.99 6.66 25.99H23.94C24.19 25.99 24.4 25.78 24.4 25.53V19.18C24.4 18.79 24.15 18.17 23.87 17.89C23.68 17.69 23.68 17.38 23.87 17.18C24.07 16.99 24.38 16.99 24.58 17.18C25.05 17.65 25.4 18.51 25.4 19.17V25.52C25.4 26.33 24.75 26.98 23.94 26.98V26.99Z" fill="#1D1D1B"/>
</svg>
