<svg width="30" height="30" viewBox="0 0 30 30" fill="none" xmlns="http://www.w3.org/2000/svg">
<path d="M26.3 14.5H17.25C17.02 13.42 16.06 12.6 14.9 12.6C13.74 12.6 12.79 13.42 12.55 14.5H3.5C3.22 14.5 3 14.72 3 15C3 15.28 3.22 15.5 3.5 15.5H12.55C12.78 16.58 13.74 17.4 14.9 17.4C16.06 17.4 17.01 16.58 17.25 15.5H26.3C26.58 15.5 26.8 15.28 26.8 15C26.8 14.72 26.58 14.5 26.3 14.5ZM14.9 16.4C14.13 16.4 13.5 15.77 13.5 15C13.5 14.23 14.13 13.6 14.9 13.6C15.67 13.6 16.3 14.23 16.3 15C16.3 15.77 15.67 16.4 14.9 16.4Z" fill="#1D1D1B"/>
<path d="M26.3 22.1H9.65C9.42 21.02 8.46 20.2 7.3 20.2C6.14 20.2 5.19 21.02 4.95 22.1H3.5C3.22 22.1 3 22.32 3 22.6C3 22.88 3.22 23.1 3.5 23.1H4.95C5.18 24.18 6.14 25 7.3 25C8.46 25 9.41 24.18 9.65 23.1H26.3C26.58 23.1 26.8 22.88 26.8 22.6C26.8 22.32 26.58 22.1 26.3 22.1ZM7.3 24C6.53 24 5.9 23.37 5.9 22.6C5.9 21.83 6.53 21.2 7.3 21.2C8.07 21.2 8.7 21.83 8.7 22.6C8.7 23.37 8.07 24 7.3 24Z" fill="#1D1D1B"/>
<path d="M3.5 7.9H20.15C20.38 8.98 21.34 9.8 22.5 9.8C23.66 9.8 24.61 8.98 24.85 7.9H26.3C26.58 7.9 26.8 7.68 26.8 7.4C26.8 7.12 26.58 6.9 26.3 6.9H24.85C24.62 5.82 23.66 5 22.5 5C21.34 5 20.38 5.82 20.15 6.9H3.5C3.22 6.9 3 7.12 3 7.4C3 7.68 3.22 7.9 3.5 7.9ZM22.5 6C23.27 6 23.9 6.63 23.9 7.4C23.9 8.17 23.27 8.8 22.5 8.8C21.73 8.8 21.1 8.17 21.1 7.4C21.1 6.63 21.73 6 22.5 6Z" fill="#1D1D1B"/>
</svg>
