<svg width="160" height="157" viewBox="0 0 160 157" fill="none" xmlns="http://www.w3.org/2000/svg">
<g clip-path="url(#clip0_6750_1539)">
<path d="M84.954 104.869L84.4638 108.198L86.1022 111.088L87.8697 113.772L90.2951 115.579L89.8694 117.411L88.5276 120.315L87.8955 123.373L87.044 126.379L86.3603 129.463L85.1992 132.38L83.4317 134.87L81.9997 137.515L80.9676 140.354L79.2517 142.832L77.91 145.348L74.9298 146.303L71.7175 145.877L68.5954 146.38L65.4346 146.367L62.2867 146.703L59.1259 146.625L55.9523 146.677L52.8431 145.916L49.6178 146.277L46.4828 145.722L43.4123 145.077L40.3419 144.548L37.2972 143.851L34.1493 143.67L31.1692 142.638L28.0084 142.522L25.0024 141.632L21.9061 141.167L18.9776 140.044L16.049 139.206L17.4423 136.186L18.9518 133.167L20.6805 130.25L22.0867 127.154L22.835 124.315L24.2283 121.708L25.0411 118.895L26.099 116.147L26.2022 114.805L27.8536 115.153L30.7692 114.972L33.0656 113.166L35.2846 111.463L36.6392 108.946L36.8457 106.108L36.6005 103.282L36.0071 102.069L37.0521 101.94L37.6326 101.862L40.7676 101.927L43.9026 102.262L47.0376 102.353L47.5665 102.391L50.1725 102.572L53.3075 102.714L56.4425 102.765L59.6033 102.482L62.7125 103.32L65.8861 102.778L66.6215 102.765L67.989 102.74L68.9437 102.727L66.7247 101.269L64.6218 99.2556L62.9189 97.6427L62.4157 97.1652L62.1319 94.4038L62.1061 94.1457L62.0416 93.7715L61.6288 91.2037L61.8481 90.7262L62.8415 88.4552L63.6155 85.6034L64.0026 85.2163L65.6668 83.5001L67.8084 81.9517L68.0148 81.7968L68.3503 81.5775L70.5176 80.1968L73.3946 79.4484L74.9427 79.4613L76.349 79.4742L76.5425 79.2419L76.5683 79.2161L76.6328 79.1387L79.471 80.0161L82.2964 80.8807L84.4509 82.9195L86.4119 85.0228L88.1664 87.2809L90.0371 89.5649L90.9015 92.5844L91.3659 95.6684L91.6368 97.062L91.0434 97.2039L88.6825 99.5911L86.5022 101.991L84.954 104.869Z" fill="#E5E5E5"/>
<path d="M76.6586 79.229L76.5425 79.2419L74.9428 79.4612L73.6268 79.6419L70.8531 80.6613L68.3503 81.5774L68.0794 81.6807L67.8084 81.9516L65.9765 83.7324L64.0026 85.2163L63.5769 85.526L62.4416 88.3003L61.8481 90.7262L61.7191 91.2165L62.0416 93.7715L62.0932 94.1457L62.1319 94.4038L62.5448 97.1007L62.9189 97.6426L64.2606 99.5782L66.2732 101.862L67.9891 102.74L69.0598 103.294L66.6215 102.765L65.912 102.611L62.7512 102.843L59.6291 102.417L56.4812 102.443L53.3462 102.236L50.2113 102.043L47.5665 102.391L47.0634 102.456L43.9284 102.391L40.7934 102.056L37.6456 101.978L37.0521 101.94L35.9039 101.862L35.3491 100.714L33.1173 98.9717L30.6402 97.6942L27.8536 97.6039L24.9508 97.2813L22.6028 98.9846L20.7192 100.972L20.4354 101.398L19.4678 101.578L16.5522 101.643L13.6752 100.688L10.7596 100.546L7.7794 101.114L5.39269 98.8169L2.94147 96.7523L2.08999 93.6812L1.17401 90.6101L1.96098 87.4745L3.22529 84.6356L4.88954 81.9258L7.50847 80.0806L10.5789 79.229L13.6752 78.4805L16.7586 78.8289L19.842 78.5451L22.9124 79.087L25.9958 79.2677L29.0792 79.2419L32.1497 78.7128L35.233 78.8806L38.3164 78.9709L41.3869 78.558L44.4703 78.958L47.5536 79.216L50.6241 79.0354L53.7075 78.416L56.7909 78.4547L59.8742 78.558L62.9447 79.229L66.0281 79.0999L69.5501 79.1386L73.085 78.8935L76.5683 79.216L76.6586 79.229Z" fill="#F5F5F5"/>
<path d="M146.776 138.638C146.738 138.354 146.738 138.07 146.725 137.773C146.712 137.051 146.686 136.238 146.325 135.425C145.951 134.586 145.357 134.018 144.828 133.515C144.622 133.322 144.428 133.128 144.248 132.922L144.106 132.754C143.474 132.031 142.829 131.27 141.835 130.741C141.603 130.625 141.384 130.47 141.164 130.328C140.571 129.941 139.887 129.502 139.036 129.347C138.249 129.192 137.513 129.309 136.855 129.399C136.559 129.438 136.275 129.489 135.991 129.502C135.191 129.528 134.482 129.734 133.836 129.902C133.811 129.902 133.785 129.915 133.759 129.928C133.449 129.644 132.972 129.321 132.314 129.528C131.476 129.786 131.063 129.992 130.689 130.173C130.366 130.328 130.095 130.47 129.463 130.663C128.547 130.934 128.095 131.244 127.721 131.489C127.425 131.683 127.218 131.825 126.663 131.992C126.16 132.147 125.928 132.134 125.58 132.109C125.115 132.083 124.535 132.044 123.58 132.328C122.767 132.573 122.342 132.767 121.98 132.934C121.645 133.089 121.361 133.218 120.716 133.412C119.903 133.657 119.439 133.941 119.103 134.147C118.755 134.367 118.6 134.457 118.033 134.522C117.581 134.573 117.297 134.522 116.962 134.47C116.11 134.328 115.323 134.289 114.227 135.154C113.698 135.567 113.401 136.057 113.337 136.599C113.233 137.438 113.724 138.044 114.098 138.522C114.369 138.857 114.652 139.219 114.781 139.657C114.872 139.954 114.923 140.354 114.975 140.767C115.052 141.322 115.13 141.954 115.323 142.612C115.491 143.154 115.723 143.657 115.955 144.148C116.162 144.587 116.355 144.999 116.484 145.399C116.678 146.045 117.013 146.6 117.31 147.09C117.542 147.464 117.749 147.825 117.839 148.122C117.955 148.483 117.942 148.948 117.942 149.425C117.942 149.993 117.942 150.587 118.11 151.167C118.587 152.742 118.755 153.877 118.755 153.89C118.755 153.955 118.781 154.019 118.794 154.084C119 154.768 119.439 154.987 119.994 154.987C120.484 154.987 121.064 154.819 121.658 154.639C122.38 154.432 123.27 154.174 124.083 153.993C125.218 153.748 126.393 153.619 127.025 153.555C127.347 153.516 127.567 153.49 127.644 153.464C128.353 153.297 128.973 153.013 129.566 152.742C130.018 152.535 130.431 152.342 130.843 152.226C131.256 152.109 131.708 152.045 132.198 151.98C132.856 151.89 133.527 151.8 134.223 151.567C135.062 151.284 135.862 150.935 136.636 150.613L137.41 150.29C137.771 150.135 138.21 150.058 138.687 149.955C139.332 149.825 140.081 149.684 140.777 149.335C141.59 148.935 142.48 148.367 143.512 147.606C144.209 147.09 145.202 146.251 145.964 145.232C146.596 144.38 146.763 143.387 146.918 142.509C146.957 142.29 146.996 142.083 147.034 141.89C147.228 140.974 147.06 140.135 146.918 139.386C146.867 139.141 146.815 138.883 146.789 138.625L146.776 138.638ZM144.506 141.361C144.454 141.593 144.415 141.838 144.377 142.083C144.261 142.728 144.157 143.348 143.899 143.696C143.448 144.303 142.79 144.948 141.977 145.541C141.074 146.212 140.313 146.703 139.629 147.038C139.242 147.232 138.726 147.335 138.184 147.438C137.617 147.554 137.023 147.671 136.43 147.916L135.643 148.251C134.869 148.574 134.146 148.884 133.398 149.142C132.946 149.296 132.417 149.374 131.863 149.438C131.308 149.516 130.74 149.593 130.16 149.761C129.566 149.929 129.024 150.174 128.508 150.419C128.005 150.651 127.528 150.871 127.128 150.961C127.063 150.961 126.934 150.987 126.754 151C126.083 151.077 124.819 151.219 123.554 151.477C122.69 151.658 121.787 151.916 121.039 152.135C120.922 151.658 120.781 151.064 120.587 150.419C120.522 150.2 120.522 149.813 120.522 149.425C120.522 148.806 120.522 148.096 120.303 147.374C120.123 146.767 119.8 146.225 119.516 145.761C119.284 145.361 119.052 144.999 118.949 144.651C118.768 144.058 118.523 143.541 118.291 143.038C118.097 142.625 117.904 142.225 117.8 141.864C117.671 141.412 117.607 140.922 117.542 140.432C117.478 139.928 117.413 139.399 117.258 138.896C116.988 138.019 116.536 137.412 116.175 136.96C116.265 136.96 116.368 136.96 116.549 136.999C116.962 137.064 117.529 137.154 118.342 137.064C119.477 136.922 120.006 136.599 120.471 136.315C120.742 136.148 120.987 135.993 121.464 135.851C122.277 135.606 122.69 135.412 123.064 135.244C123.399 135.089 123.683 134.96 124.341 134.767C124.844 134.612 125.077 134.625 125.425 134.651C125.889 134.676 126.47 134.715 127.437 134.431C128.353 134.16 128.805 133.851 129.179 133.605C129.476 133.412 129.682 133.27 130.237 133.102C131.076 132.844 131.488 132.638 131.863 132.457C132.043 132.367 132.198 132.289 132.417 132.199C132.714 132.457 133.153 132.715 133.72 132.586C134.004 132.522 134.275 132.444 134.559 132.367C135.101 132.212 135.617 132.07 136.12 132.057C136.494 132.044 136.881 131.992 137.268 131.928C137.758 131.851 138.236 131.786 138.584 131.851C138.945 131.915 139.358 132.186 139.797 132.47C140.081 132.651 140.377 132.844 140.661 132.999C141.229 133.296 141.655 133.786 142.184 134.406L142.338 134.573C142.571 134.844 142.829 135.089 143.087 135.335C143.487 135.722 143.835 136.057 144.003 136.418C144.157 136.767 144.17 137.231 144.17 137.773C144.17 138.148 144.183 138.535 144.235 138.909C144.273 139.219 144.338 139.528 144.39 139.838C144.506 140.406 144.596 140.896 144.519 141.296L144.506 141.361Z" fill="#999999"/>
<path d="M159.768 75.8354C159.69 75.3967 159.613 74.9838 159.587 74.5967C159.574 74.1838 159.587 73.7708 159.587 73.3579C159.587 72.7385 159.613 72.0933 159.548 71.4353C159.484 70.7514 159.29 70.1449 159.11 69.5513C158.981 69.1255 158.852 68.7255 158.8 68.3513C158.697 67.6932 158.529 67.0867 158.349 66.4931C158.233 66.0931 158.116 65.706 158.039 65.306C157.975 65.0092 158.013 64.5963 158.039 64.1575C158.091 63.5253 158.142 62.8155 157.949 62.0929C157.755 61.3703 157.355 60.7768 157.007 60.2477C156.762 59.8864 156.53 59.5509 156.439 59.2541C156.323 58.8928 156.259 58.4799 156.194 58.0412C156.104 57.4605 156.001 56.8024 155.756 56.1572C155.601 55.7701 155.497 55.3572 155.394 54.9443C155.239 54.3507 155.085 53.7313 154.814 53.1248C154.491 52.4022 153.936 51.8861 153.459 51.4473C153.149 51.1506 152.84 50.8796 152.724 50.6473C152.53 50.2731 152.375 49.886 152.221 49.5118C151.988 48.944 151.756 48.3633 151.421 47.7956C150.892 46.8923 150.363 45.989 149.795 45.1116C149.563 44.7632 149.369 44.4019 149.163 44.0406C148.866 43.4986 148.557 42.9438 148.17 42.4147C147.77 41.8727 147.318 41.434 146.88 41.0082C146.583 40.7114 146.273 40.4275 146.015 40.1049C145.822 39.8727 145.654 39.4856 145.486 39.0855C145.241 38.5049 144.957 37.8468 144.454 37.3048C143.977 36.7887 143.409 36.4145 142.906 36.079C142.532 35.8338 142.184 35.6015 141.925 35.3564C141.68 35.1112 141.435 34.866 141.203 34.6208C140.713 34.1176 140.223 33.6143 139.694 33.1498L139.513 32.995C138.79 32.3498 138.055 31.7175 137.294 31.111C136.701 30.6336 136.068 30.2078 135.436 29.769L134.727 29.2787C134.443 29.0722 134.146 28.7754 133.836 28.4528C133.424 28.0141 132.946 27.5238 132.353 27.1496C131.772 26.7883 131.166 26.4786 130.585 26.1818C130.237 26.0011 129.902 25.8334 129.566 25.6398C128.973 25.3172 128.379 25.1108 127.799 24.9043C127.373 24.7624 126.973 24.6204 126.625 24.4527C125.683 24.0011 124.728 23.5752 123.748 23.1623C123.141 22.9042 122.522 22.7236 121.929 22.5429C121.542 22.4268 121.142 22.3107 120.755 22.1687L120.432 22.0526C119.955 21.8848 119.465 21.73 118.987 21.5622C119.026 21.459 119.065 21.3558 119.103 21.2655C119.245 20.8525 119.387 20.4654 119.568 20.1428C119.697 19.8977 120.006 19.6396 120.329 19.3557C120.768 18.9815 121.271 18.5428 121.606 17.9363C121.864 17.4588 122.058 16.9943 122.251 16.5427C122.432 16.091 122.612 15.6652 122.819 15.3297C123.103 14.8781 123.309 14.4265 123.503 13.9748C123.696 13.5232 123.89 13.0974 124.122 12.8006C124.315 12.5554 124.715 12.3232 125.128 12.078C125.541 11.8328 126.005 11.5618 126.418 11.1876C127.141 10.5295 127.773 10.0005 128.508 9.56175C128.857 9.35529 129.192 9.08431 129.527 8.81333C129.953 8.47783 130.353 8.16814 130.753 8.0133C131.166 7.85845 131.695 7.79393 132.275 7.71651C132.688 7.6649 133.101 7.61328 133.514 7.52295C133.965 7.43263 134.327 7.11003 134.482 6.68421C134.636 6.24548 134.533 5.76804 134.236 5.41964C134.069 5.22609 133.914 5.01963 133.746 4.80026C133.269 4.16798 132.727 3.44537 131.94 2.92922C131.205 2.45178 130.392 2.12918 129.592 1.81949L128.999 1.58723C128.083 1.21302 127.05 0.87752 126.031 0.619444C125.167 0.400081 124.186 0.193621 123.025 0.012968C122.277 -0.103166 121.58 0.0387755 120.974 0.154909C120.587 0.232332 120.226 0.309754 119.968 0.283947C119.594 0.258139 119.232 0.206524 118.871 0.167813C117.916 0.0516792 116.884 0.0258717 115.943 6.4224e-05C115.259 -0.0128395 114.601 -0.038647 113.982 0.0258717C112.292 0.180717 111.376 0.296851 110.731 0.593637C110.305 0.77429 109.879 0.929135 109.453 1.08398C108.924 1.27754 108.408 1.45819 107.905 1.69046C107.544 1.8582 107.144 1.98724 106.718 2.11628C106.164 2.29693 105.583 2.47759 105.015 2.77437C104.357 3.12277 103.854 3.61312 103.403 4.05184C103.106 4.33573 102.835 4.61961 102.577 4.77445C102.267 4.96801 101.932 5.13576 101.596 5.2906C101.029 5.56158 100.384 5.87127 99.8161 6.33581C99.2098 6.83906 98.7324 7.41972 98.2809 7.98749C98.0745 8.23266 97.881 8.49074 97.6616 8.723C96.9263 9.53594 96.3199 10.4392 95.7652 11.3038C95.2362 12.1167 94.8363 12.9812 94.4106 13.8974L94.3074 14.1168C94.1525 14.4394 93.9332 14.7878 93.6881 15.1362C93.314 15.691 92.8882 16.3233 92.656 17.0588C92.4109 17.846 92.4367 18.6331 92.4625 19.317C92.4625 19.3428 92.4625 19.3815 92.4625 19.4073C92.2432 19.4073 92.0238 19.4073 91.7916 19.4073C91.1853 19.4073 90.5144 19.4073 89.8436 19.5364C89.4307 19.6138 89.0179 19.6654 88.605 19.7299C87.9729 19.8202 87.3149 19.8977 86.6441 20.0654C85.9732 20.2332 85.3798 20.4912 84.8121 20.7493C84.4122 20.9171 84.0251 21.0977 83.6252 21.2267C83.2769 21.33 82.9156 21.4332 82.5673 21.5364C81.8835 21.73 81.2127 21.9235 80.5418 22.1687C79.871 22.4139 79.2259 22.7107 78.568 23.0204C78.2454 23.1752 77.91 23.3172 77.5875 23.472C76.9553 23.743 76.3619 24.0785 75.8071 24.3882C75.4588 24.5817 75.1104 24.7753 74.7492 24.9559L74.4783 25.0979C73.6139 25.5366 72.7495 25.9624 71.911 26.4528C71.6013 26.6334 71.1885 26.7625 70.7628 26.8915C70.1693 27.0721 69.4984 27.2915 68.8921 27.6786C68.5438 27.898 68.1954 28.1044 67.8342 28.3109C67.2665 28.6335 66.686 28.969 66.1312 29.3819C65.5636 29.7948 65.125 30.2723 64.6992 30.7368C64.3896 31.0723 64.0929 31.3949 63.7961 31.6401C63.2285 32.1046 62.6995 32.6079 62.1706 33.1111C61.9255 33.3434 61.6674 33.5885 61.4094 33.8208C61.0998 34.0918 60.7902 34.3628 60.4676 34.6208C59.9645 35.0338 59.4485 35.4467 58.9711 35.937C58.4293 36.4919 57.9261 37.0726 57.4101 37.6661L56.8166 38.35C56.3522 38.8662 55.9651 39.421 55.5781 39.9501C55.3459 40.2727 55.1137 40.6082 54.8556 40.9179C54.4041 41.4856 53.9913 42.0921 53.5913 42.6986C53.3978 42.9825 53.2043 43.2664 53.0108 43.5502C52.6237 44.1051 52.3399 44.6858 52.069 45.2406C51.8884 45.6277 51.6949 46.0149 51.4755 46.3762C51.3336 46.6084 50.9982 46.8665 50.6499 47.1375C50.1209 47.5504 49.5146 48.0149 49.1146 48.7375C48.7663 49.3827 48.6115 50.0666 48.4696 50.6731C48.3664 51.1247 48.2761 51.5377 48.1213 51.8603C47.9406 52.2345 47.7342 52.5958 47.5278 52.97C47.2182 53.5248 46.8956 54.1055 46.6247 54.7378C46.4699 55.1249 46.2506 55.4991 46.0442 55.8862C45.7474 56.4411 45.4249 57.0218 45.2056 57.6669C44.9863 58.3121 44.8702 58.9444 44.767 59.5638C44.6895 59.9896 44.625 60.4154 44.496 60.8284C44.2896 61.5252 44.2896 62.222 44.2767 62.8284C44.2767 63.2801 44.2767 63.7188 44.1864 64.0672C44.1219 64.3511 43.9026 64.7124 43.6704 65.0995C43.3349 65.6673 42.9479 66.2996 42.8189 67.0867L42.6899 67.8093C42.5609 68.5319 42.4318 69.2545 42.3415 69.9771L42.2254 70.8546C42.1351 71.5385 42.0448 72.2224 41.9932 72.8934C41.9416 73.6031 42.1222 74.2612 42.2641 74.8289C42.3673 75.2161 42.4705 75.5774 42.4576 75.8483C42.4576 76.3645 42.4834 76.8677 42.5222 77.3452L41.6191 77.1C41.4901 77.0613 41.3353 77.0484 41.2062 77.0613L38.1229 77.2549C38.0584 77.2549 37.9939 77.2549 37.9293 77.2807L35.1427 77.8871L32.3432 77.2419C32.1883 77.2032 32.0335 77.2032 31.8787 77.2161L28.8727 77.6162L25.9184 77.6936L22.8737 77.6549L19.7387 77.5258H16.7715L13.701 77.2678C13.5978 77.2678 13.4946 77.2678 13.3914 77.2678L10.2564 77.7452C10.1016 77.771 9.94677 77.8226 9.80485 77.9L7.01821 79.5259L4.48958 81.2034C4.38637 81.2679 4.29607 81.3453 4.23156 81.4357L2.24478 83.7584C2.14157 83.8745 2.06417 84.0035 2.01256 84.1455L0.903065 87.1262L0.0644904 90.1844C0.0128858 90.3909 -1.53407e-05 90.6102 0.0515892 90.8167L0.748251 93.9265L1.56102 97.0363C1.62553 97.2944 1.78034 97.5267 1.98676 97.7073L6.9408 101.772C7.16012 101.953 7.44394 102.056 7.72777 102.056L10.7724 102.12L13.8042 102.675C13.9074 102.701 14.0235 102.701 14.1267 102.688L17.223 102.456L18.0229 102.482C17.8939 102.701 17.8165 102.933 17.8036 103.166L17.7133 105.979C17.7133 105.979 17.7133 106.069 17.7133 106.121L17.9455 108.895C17.9455 108.972 17.9584 109.05 17.9842 109.114L18.7324 111.966C18.8099 112.276 19.0034 112.547 19.2743 112.714L21.7384 114.314C21.7384 114.314 21.8287 114.366 21.8674 114.392L24.3831 115.644C24.4864 115.695 24.5896 115.734 24.6928 115.747L24.0864 117.786L23.3382 120.779L22.0609 123.592C22.0609 123.592 22.0093 123.721 21.9964 123.786L21.1966 126.689L19.3904 129.386C19.3259 129.489 19.2614 129.605 19.2356 129.722L18.268 132.831L16.5264 135.606L14.8492 138.47C14.6686 138.793 14.617 139.167 14.7331 139.515C14.8492 139.864 15.0943 140.148 15.4298 140.303L18.2422 141.554C18.3454 141.606 18.4615 141.632 18.5776 141.658L21.5578 142.083L24.4864 142.806L27.4665 143.8C27.4665 143.8 27.5697 143.825 27.6213 143.838L30.6918 144.458C30.6918 144.458 30.795 144.471 30.8595 144.483L33.93 144.703L36.8069 145.245L39.8258 146.109C39.9161 146.135 40.0064 146.148 40.0967 146.161L43.1414 146.354L46.1216 146.974C46.2248 147 46.3409 147.013 46.4441 147L49.4759 146.845L52.4173 147.529C52.5334 147.555 52.6625 147.567 52.7786 147.555L55.849 147.387L58.984 147.696L62.1061 147.8L64.3896 147.942C64.7508 148.638 65.3056 149.142 65.8216 149.593C66.0022 149.761 66.1957 149.916 66.3635 150.084C66.5054 150.226 66.6473 150.38 66.7892 150.535C67.3569 151.155 68.0019 151.851 68.8663 152.316C69.563 152.703 70.2983 152.845 70.9434 152.974C71.2788 153.039 71.6142 153.103 71.9368 153.219C72.3625 153.361 72.7624 153.542 73.1753 153.723C73.8074 153.993 74.4525 154.277 75.162 154.458C75.8974 154.652 76.6199 154.677 77.2778 154.69C77.7552 154.69 78.2196 154.716 78.6067 154.794C79.0195 154.871 79.4452 155.039 79.8968 155.206C80.516 155.439 81.1611 155.684 81.8964 155.787C82.6834 155.903 83.4704 155.968 84.2574 156.032L85.1991 156.11C85.1991 156.11 85.354 156.148 85.483 156.187C86.128 156.355 87.4697 156.716 88.8373 156.819C89.3662 156.858 90.0629 156.91 90.7853 156.91C92.3206 156.91 93.9332 156.665 94.1267 155.542C94.1525 155.361 94.1396 155.155 94.1009 154.974C94.1009 154.974 93.8171 153.916 94.0493 152.497C94.1009 152.174 94.217 151.774 94.346 151.361C94.5138 150.832 94.6944 150.238 94.7976 149.58C94.9008 148.974 94.875 148.406 94.8492 147.838C94.8234 147.374 94.8105 146.922 94.875 146.548C94.9266 146.238 95.1201 145.864 95.3136 145.464C95.5717 144.948 95.8684 144.367 95.9845 143.696C96.1006 142.948 96.0232 142.251 95.9458 141.645C95.8942 141.245 95.8426 140.883 95.8813 140.651C95.9587 140.212 96.2554 139.825 96.5521 139.438C96.9521 138.909 97.4681 138.264 97.3004 137.399C97.1972 136.857 96.8489 136.406 96.2683 136.057C95.0298 135.335 94.1138 135.593 93.4946 135.773C93.1333 135.877 92.9011 135.941 92.527 135.877C91.8045 135.76 91.4562 135.683 91.095 135.593C90.695 135.502 90.2951 135.412 89.4952 135.27C88.5792 135.128 88.0761 135.154 87.6375 135.193C87.2762 135.219 86.9924 135.244 86.386 135.141C85.7797 135.038 85.5217 134.935 85.1862 134.793C85.0701 134.741 84.9282 134.689 84.7863 134.638L85.7539 133.386C85.9474 133.464 86.1538 133.554 86.3602 133.644C86.8634 133.877 87.4439 134.135 88.0761 134.277C88.4502 134.367 88.8244 134.47 89.1985 134.586C89.7532 134.754 90.3338 134.922 90.966 135.025C92.0884 135.219 93.1333 135.077 94.1525 135.193C94.5138 135.231 94.875 135.283 95.2362 135.335C95.92 135.438 96.6038 135.528 97.3004 135.58C97.7132 135.606 98.1132 135.619 98.526 135.619C98.8228 135.619 99.1195 135.619 99.4162 135.619C99.7645 135.619 100.126 135.619 100.474 135.619C101.171 135.619 101.816 135.567 102.461 135.502C102.848 135.464 103.248 135.425 103.635 135.412H103.983C104.925 135.36 105.854 135.309 106.796 135.219C107.144 135.18 107.557 135.231 108.008 135.283C108.615 135.36 109.298 135.438 110.021 135.335C110.421 135.27 110.834 135.231 111.234 135.193C111.866 135.128 112.524 135.064 113.182 134.922C113.853 134.78 114.446 134.522 115.027 134.277C115.439 134.096 115.839 133.928 116.201 133.825C116.884 133.644 117.568 133.399 118.239 133.167C118.562 133.051 118.897 132.935 119.219 132.831C119.606 132.702 120.006 132.599 120.393 132.496C121 132.328 121.632 132.16 122.264 131.915C122.961 131.644 123.645 131.322 124.328 130.999L125.167 130.612C125.786 130.328 126.367 129.993 126.921 129.67C127.27 129.476 127.605 129.27 127.954 129.089C128.586 128.767 129.192 128.392 129.798 128.005C130.095 127.825 130.379 127.644 130.676 127.463C131.256 127.115 131.746 126.715 132.211 126.315C132.533 126.044 132.856 125.773 133.204 125.541C133.424 125.399 133.849 125.296 134.249 125.205C134.894 125.05 135.643 124.883 136.288 124.405C136.868 123.966 137.294 123.412 137.668 122.921C137.939 122.56 138.197 122.224 138.455 122.005C138.778 121.734 139.113 121.489 139.448 121.257C139.952 120.895 140.468 120.521 140.958 120.057C141.268 119.773 141.603 119.515 141.951 119.269C142.454 118.895 142.97 118.521 143.435 118.031C143.899 117.54 144.273 117.011 144.622 116.508C144.867 116.16 145.099 115.811 145.383 115.489C145.86 114.947 146.144 114.327 146.415 113.772C146.609 113.372 146.789 112.985 146.996 112.714C147.176 112.482 147.512 112.25 147.873 112.018C148.415 111.656 149.021 111.243 149.473 110.598L149.847 110.056C150.337 109.359 150.814 108.663 151.266 107.94L151.717 107.204C152.13 106.546 152.543 105.875 152.917 105.204C153.266 104.546 153.395 103.849 153.511 103.23C153.588 102.791 153.666 102.378 153.807 102.082C154.104 101.462 154.311 100.843 154.53 100.249C154.659 99.8751 154.801 99.5009 154.943 99.1267C155.059 98.8299 155.317 98.4944 155.575 98.146C155.949 97.6428 156.388 97.075 156.633 96.3653C156.852 95.7201 156.942 95.0749 157.007 94.4556C157.059 94.0039 157.11 93.5781 157.226 93.2168C157.329 92.8555 157.51 92.4684 157.704 92.0684C157.962 91.5264 158.245 90.9199 158.4 90.236C158.632 89.2166 158.852 88.1585 159.032 87.1133C159.213 86.0681 159.394 85.0229 159.51 83.9906C159.639 82.9454 159.716 81.8744 159.781 80.8421C159.806 80.455 159.845 80.0679 159.884 79.6937C159.948 79.0485 160.013 78.3646 160.026 77.6807C160.026 76.9968 159.91 76.3645 159.806 75.758L159.768 75.8354ZM95.0556 19.2783C95.0298 18.7492 95.0169 18.246 95.133 17.8847C95.2491 17.5105 95.533 17.0846 95.8426 16.633C96.1264 16.2072 96.4231 15.7685 96.6683 15.2523L96.7715 15.0329C97.1585 14.2071 97.5197 13.42 97.9455 12.749C98.4486 11.9748 98.9905 11.1747 99.5968 10.4908C99.8419 10.2198 100.074 9.93596 100.306 9.65207C100.693 9.16173 101.068 8.7101 101.48 8.3746C101.803 8.10362 102.267 7.88426 102.745 7.6649C103.17 7.45844 103.596 7.25198 103.996 6.9939C104.486 6.68421 104.899 6.27129 105.26 5.92289C105.609 5.58739 105.931 5.2648 106.254 5.09705C106.615 4.90349 107.067 4.76155 107.531 4.61961C108.021 4.46476 108.524 4.30992 109.028 4.06475C109.453 3.87119 109.905 3.70344 110.356 3.5486C110.847 3.38085 111.337 3.2002 111.814 2.98083C112.188 2.81308 113.53 2.69695 114.253 2.63243C114.73 2.59372 115.31 2.60662 115.917 2.63243C116.73 2.65824 117.607 2.65824 118.613 2.78728C119.013 2.83889 119.413 2.8776 119.826 2.91631C120.445 2.96793 121.026 2.85179 121.542 2.73566C121.98 2.64533 122.393 2.55501 122.69 2.60662C123.761 2.77437 124.664 2.95502 125.451 3.16148C126.367 3.39375 127.27 3.70344 128.095 4.02604L128.715 4.27121C129.411 4.54219 130.082 4.80026 130.585 5.13576C130.689 5.20028 130.779 5.2777 130.869 5.36803C130.547 5.43255 130.224 5.50997 129.902 5.6261C129.102 5.92289 128.495 6.40033 127.966 6.82615C127.721 7.01971 127.476 7.22617 127.218 7.38101C126.212 7.98749 125.399 8.6972 124.728 9.31658C124.522 9.51013 124.212 9.69079 123.877 9.88434C123.309 10.2198 122.651 10.594 122.148 11.2263C121.709 11.7812 121.438 12.4006 121.193 12.9554C121.026 13.3296 120.871 13.678 120.69 13.9748C120.355 14.5039 120.123 15.0587 119.916 15.5878C119.761 15.962 119.606 16.3362 119.413 16.6975C119.297 16.904 119 17.1621 118.703 17.4201C118.239 17.8202 117.71 18.2847 117.349 18.9428C117.091 19.4331 116.91 19.9364 116.73 20.4138C116.575 20.8654 116.42 21.2913 116.213 21.6526C115.93 22.1558 115.762 22.6849 115.607 23.1881C115.465 23.6397 115.336 24.0527 115.13 24.3882C114.885 24.8011 114.472 25.1882 114.046 25.6011C113.711 25.9237 113.362 26.2592 113.04 26.6592C112.24 27.6399 111.621 28.3109 110.989 28.8916C110.576 29.2658 110.24 29.6916 109.918 30.0916C109.569 30.5303 109.234 30.9433 108.886 31.1884C108.653 31.3433 108.176 31.4336 107.712 31.4981C107.118 31.5885 106.447 31.7046 105.815 32.0272C105.028 32.4401 104.086 32.9046 103.054 33.3047C102.138 33.666 101.184 33.9369 100.126 34.2466C99.7516 34.3499 99.4291 34.4531 99.1195 34.5563C98.4873 34.7628 97.9455 34.9176 97.7132 34.8789C97.3262 34.7886 97.0682 34.5305 96.3328 32.595C96.049 31.8336 95.8555 31.0465 95.6491 30.2207L95.5201 29.7174C95.3652 29.0851 95.0685 28.5432 94.7976 28.0528C94.5654 27.6141 94.3331 27.2012 94.2944 26.8786C94.1654 25.8205 94.1138 24.7753 94.1267 23.8462C94.1267 23.4849 94.3074 23.0333 94.5009 22.5558C94.6944 22.0655 94.9137 21.5235 95.004 20.9171C95.0943 20.3493 95.0685 19.7815 95.0556 19.2783ZM17.094 99.9655L14.1009 100.185L11.1208 99.6429C11.0563 99.6429 10.9789 99.6171 10.9144 99.6171L8.20511 99.5655L3.93483 96.0685L3.23817 93.4104L2.61892 90.6619L3.34138 88.0166L4.33477 85.3584L6.06352 83.3454L8.37283 81.8099L10.8885 80.3518L13.6236 79.9388L16.6554 80.1969H19.6871L22.7963 80.313L25.9313 80.3518L29.0147 80.2743C29.0147 80.2743 29.105 80.2743 29.1566 80.2743L32.0077 79.9001L34.8589 80.5582C35.0395 80.5969 35.233 80.5969 35.4265 80.5582L38.4067 79.913L41.1804 79.7453L44.0574 80.5324C44.1606 80.5582 44.2767 80.5711 44.3799 80.584L47.4633 80.6098C47.5665 80.6098 47.6568 80.6098 47.7471 80.584L50.5596 79.9646L53.372 80.5324C53.5139 80.5582 53.6558 80.5711 53.8107 80.5453L56.6876 80.1453L59.5517 80.6743C59.6936 80.7001 59.8484 80.7001 59.9903 80.6743L62.906 80.184L65.8861 80.4937L67.4085 80.5582C67.3053 80.6098 67.2149 80.6743 67.1246 80.7518L66.4538 81.3582L64.8153 82.2357C64.6218 82.3389 64.4541 82.4938 64.3251 82.6873L63.6155 83.8229L62.6866 84.5842C62.5705 84.6874 62.4673 84.8036 62.3899 84.9326L60.8676 87.552C60.8031 87.6553 60.7515 87.7714 60.7257 87.9005L60.0161 90.8941C59.9774 91.0619 59.9645 91.2554 60.0032 91.4232L60.2741 92.8813L60.1967 94.1717C60.1967 94.3007 60.1967 94.4427 60.2354 94.5717L60.9837 97.5525C61.0482 97.7847 61.1643 98.0041 61.3449 98.1718L62.2222 99.0106L63.0479 100.327C63.1382 100.469 63.2543 100.598 63.3962 100.701L64.338 101.372L64.4025 101.449L62.9447 101.488C62.9447 101.488 62.8157 101.488 62.7511 101.501L61.1385 101.772L60.029 101.682C60.029 101.682 59.9129 101.682 59.8484 101.682L57.1004 101.849H57.0359L54.288 101.075C54.1203 101.024 53.9268 101.011 53.7461 101.036L52.2883 101.256L51.2691 101.011C51.153 100.985 51.0369 100.972 50.9208 100.972L47.9664 101.062L45.1927 101.036H45.1282C45.0379 101.011 44.9347 101.011 44.8444 101.011L41.9416 101.204L39.1421 100.946L36.5102 100.314L36.4328 100.159C36.3425 99.9784 36.2135 99.8235 36.0587 99.7074L33.8268 97.9783C33.8268 97.9783 33.6978 97.888 33.6333 97.8493L31.1562 96.5589C30.9885 96.4686 30.795 96.4169 30.6015 96.4169L27.9181 96.3395L25.0153 96.0169C24.6928 95.9782 24.3702 96.0685 24.1122 96.2492L21.7642 97.9525C21.7642 97.9525 21.6352 98.0557 21.5836 98.1073L19.7129 100.069L17.2488 99.9655C17.2488 99.9655 17.1456 99.9655 17.1069 99.9655H17.094ZM23.0801 112.211L21.0934 110.921L20.4999 108.663L20.2935 106.082L20.3709 103.708L21.6481 101.772L23.3769 99.9526L25.2217 98.6106L27.7374 98.8815L30.2274 98.959L32.3302 100.056L34.2396 101.527L35.2588 103.617L35.4781 106.108L35.2975 108.572L34.2009 110.598L30.2145 113.708L27.8665 113.85L25.4023 113.347L23.1059 112.211H23.0801ZM59.1646 145.193L56.0167 144.871C55.9522 144.871 55.8877 144.871 55.8103 144.871L52.8173 145.038L49.8887 144.354C49.7726 144.329 49.6565 144.316 49.5275 144.316L46.4828 144.471L43.58 143.864C43.58 143.864 43.4639 143.838 43.3994 143.838L40.4064 143.658L37.4004 142.806L34.3299 142.225C34.3299 142.225 34.2267 142.212 34.188 142.212L31.1304 141.993L28.2277 141.399L25.2217 140.406L22.0738 139.632L19.1453 139.206L17.8165 138.612L20.5644 134.148C20.6289 134.057 20.6676 133.954 20.7063 133.851L21.6739 130.767L23.493 128.057C23.5704 127.941 23.622 127.812 23.6607 127.683L24.4993 124.676L25.7894 121.85C25.8281 121.773 25.8539 121.708 25.8668 121.631L26.6279 118.573L27.273 116.379L27.531 116.431C27.6213 116.444 27.6987 116.456 27.7891 116.456C27.8149 116.456 27.8407 116.456 27.8665 116.456L30.7821 116.276C31.0401 116.263 31.2982 116.16 31.5046 116.005L36.0071 112.495C36.149 112.379 36.2651 112.25 36.3554 112.082L37.71 109.566C37.8003 109.411 37.8519 109.23 37.8648 109.05L38.0713 106.211C38.0713 106.146 38.0713 106.069 38.0713 106.004L37.839 103.424L38.8195 103.553L41.8255 103.85C41.9029 103.85 41.9803 103.85 42.0577 103.85L44.9476 103.604L47.7213 104.03C47.7858 104.03 47.8503 104.03 47.9277 104.043H50.9208C50.9208 104.043 51.0498 104.03 51.1014 104.017L52.1722 103.862L53.6429 104.224C53.7203 104.237 53.7978 104.25 53.8752 104.262L56.7392 104.404C56.8295 104.404 56.9069 104.443 56.9972 104.43H57.1262L59.8871 104.559C59.9 104.559 59.9258 104.559 59.9387 104.559C60.0161 104.559 60.0806 104.559 60.158 104.546L61.2546 104.353L62.8286 104.469C62.8286 104.469 62.8931 104.469 62.9318 104.469C62.9576 104.469 62.9834 104.469 63.0092 104.469L65.9635 104.275L68.8921 104.404C69.4984 104.456 70.0403 104.03 70.1951 103.437C70.2467 103.23 70.2338 103.024 70.1951 102.83C70.1435 102.508 69.9758 102.198 69.692 101.991L66.1829 99.4751L65.512 98.559C65.512 98.559 65.4217 98.4428 65.3701 98.3912L64.2606 97.3331L63.7703 96.546L63.1253 93.9394L62.906 92.7136L62.9834 91.4232L63.6671 88.8295L64.9959 86.5198L65.6152 85.5262L66.7118 84.6229L67.9761 83.4745L68.647 83.1132C68.647 83.1132 68.7373 83.0615 68.776 83.0357L69.4468 82.5712L71.253 81.9518L73.9106 80.9582L75.8716 80.6356C76.0006 80.7131 76.1425 80.7905 76.2844 80.8163L79.0195 81.397L81.6642 82.1325L83.8316 83.539L85.5862 85.5778L88.9018 90.0425L89.6113 93.5394L90.0371 96.3008C89.392 96.7395 88.9018 97.3073 88.476 97.8363C88.218 98.146 87.9729 98.4428 87.7407 98.6622C87.0053 99.3203 86.0764 100.211 85.3411 101.307L85.2507 101.436C84.6057 102.391 83.9477 103.385 83.6123 104.598C83.2898 105.746 82.9414 107.037 83.0963 108.379C83.2253 109.45 83.8187 110.25 84.3477 110.947C84.5412 111.205 84.7476 111.476 84.9024 111.747C85.0056 111.927 85.0959 112.121 85.1991 112.301C85.6249 113.101 86.1022 114.018 86.9279 114.766C87.4181 115.218 87.9858 115.695 88.618 116.16L87.831 117.902C87.831 117.902 87.7923 117.992 87.7794 118.044L86.9021 120.805C86.9021 120.805 86.8763 120.921 86.8634 120.986L86.3989 123.695L85.2636 126.186C85.2636 126.186 85.2249 126.289 85.1991 126.341L84.3477 129.102C84.3477 129.102 84.3219 129.192 84.309 129.231L83.7929 131.825L82.09 134.031C81.9997 134.135 81.9352 134.264 81.8964 134.393L80.9289 137.141L79.5484 139.683C79.5484 139.683 79.5097 139.774 79.4839 139.812L78.3873 142.509L77.1617 144.496L74.7621 144.974L71.7432 144.729C71.5884 144.729 71.4465 144.729 71.2917 144.767L68.3631 145.58L65.4346 145.516L62.2351 145.322L59.1646 145.232V145.193ZM91.0176 114.598C90.1016 114.108 89.3146 113.424 88.6567 112.818C88.1664 112.366 87.831 111.734 87.4697 111.05C87.3665 110.843 87.2504 110.637 87.1472 110.443C86.9279 110.043 86.657 109.695 86.4119 109.359C86.0506 108.869 85.7023 108.417 85.6636 108.03C85.5604 107.192 85.8442 106.198 86.1151 105.204C86.3344 104.417 86.8505 103.643 87.4052 102.83L87.4955 102.701C87.9471 102.03 88.5405 101.385 89.4694 100.546C89.8565 100.198 90.1661 99.8106 90.4757 99.4364C90.824 99.0106 91.1595 98.6106 91.5207 98.3783C91.5723 98.3783 91.6239 98.3912 91.6755 98.3783C91.9077 98.3396 92.1142 98.2235 92.2819 98.0815C92.5141 98.0299 92.7721 97.9912 93.043 97.9525C93.5591 97.8751 94.088 97.7976 94.6299 97.617C95.3394 97.3847 96.1264 97.2944 96.965 97.2041L97.5584 97.1395C97.9455 97.0879 98.3325 97.0234 98.7066 96.946C99.2098 96.8557 99.6613 96.7653 100.074 96.7653C100.152 96.7653 100.229 96.7653 100.306 96.7653C100.822 96.8169 101.338 97.0363 101.893 97.2815C102.216 97.4234 102.538 97.5654 102.861 97.6686C103.738 97.9783 104.551 98.2622 105.26 98.7525C105.647 99.0235 106.047 99.217 106.434 99.4235C106.925 99.6687 107.389 99.9009 107.608 100.185C107.789 100.404 107.879 100.869 107.97 101.359C108.06 101.824 108.15 102.34 108.37 102.843C108.55 103.269 108.77 103.643 108.989 104.004C109.273 104.482 109.531 104.895 109.569 105.269C109.66 106.056 109.75 107.088 109.608 107.992C109.531 108.482 109.234 109.011 108.911 109.579C108.757 109.863 108.602 110.134 108.46 110.418C108.124 111.101 107.66 111.747 106.938 112.534C106.525 112.985 105.97 113.321 105.325 113.708L104.796 114.031C104.293 114.34 103.906 114.766 103.57 115.153C103.261 115.502 102.938 115.85 102.68 115.94C102.383 116.044 101.906 116.018 101.403 115.979C100.926 115.953 100.384 115.915 99.829 115.979C99.4291 116.031 99.0163 116.108 98.6034 116.185C97.9584 116.315 97.3391 116.431 96.8102 116.392C96.2425 116.34 95.6362 116.134 94.9911 115.902C94.617 115.773 94.2557 115.644 93.8945 115.54L93.1978 115.347C92.398 115.127 91.6497 114.934 91.0434 114.598H91.0176ZM85.9474 137.773C86.8634 137.928 87.3536 137.877 87.8052 137.851C88.1664 137.825 88.4502 137.799 89.0566 137.903C89.779 138.019 90.1274 138.096 90.4886 138.186C90.8885 138.277 91.2885 138.367 92.0883 138.509C93.043 138.664 93.7268 138.457 94.1912 138.328C93.83 138.819 93.443 139.477 93.3011 140.316C93.2108 140.909 93.2753 141.49 93.3527 142.045C93.4172 142.522 93.4688 142.974 93.4043 143.361C93.3656 143.632 93.1721 143.993 92.9785 144.367C92.7076 144.896 92.398 145.503 92.2819 146.213C92.1787 146.858 92.2045 147.477 92.2303 148.032C92.2561 148.484 92.269 148.897 92.2174 149.245C92.14 149.722 91.9851 150.213 91.8432 150.677C91.7013 151.155 91.5465 151.658 91.4691 152.148C91.3401 152.987 91.3272 153.723 91.3659 154.316C90.7079 154.355 89.8436 154.368 89.0179 154.316C87.8826 154.226 86.7473 153.929 86.128 153.761C85.8055 153.671 85.5862 153.632 85.5217 153.619L84.4509 153.529C83.7026 153.464 82.9672 153.4 82.2448 153.297C81.7803 153.232 81.2901 153.052 80.774 152.858C80.2451 152.664 79.6903 152.458 79.084 152.329C78.4647 152.2 77.8713 152.187 77.3036 152.174C76.7489 152.161 76.2328 152.148 75.7942 152.032C75.2653 151.89 74.7363 151.658 74.1687 151.413C73.7042 151.206 73.2269 151.013 72.7495 150.845C72.298 150.69 71.8594 150.6 71.4336 150.509C70.9176 150.406 70.4273 150.303 70.0919 150.122C69.6017 149.851 69.1501 149.361 68.6599 148.845C68.5051 148.677 68.3502 148.509 68.1954 148.355C68.118 148.277 68.0277 148.2 67.9374 148.122H68.4793C68.4793 148.122 68.4922 148.122 68.5051 148.122C68.6212 148.122 68.7373 148.109 68.8534 148.071L71.7432 147.271L74.7105 147.516C74.8266 147.516 74.9427 147.516 75.0588 147.49L78.1809 146.871C78.5292 146.806 78.8389 146.587 79.0324 146.29L80.6192 143.735C80.6192 143.735 80.6966 143.606 80.7224 143.541L81.8319 140.819L83.2382 138.251C83.2382 138.251 83.3027 138.122 83.3156 138.057L83.651 137.09C83.8316 137.141 83.9864 137.206 84.1542 137.283C84.5412 137.451 85.0314 137.657 85.9474 137.799V137.773ZM157.291 79.5001C157.252 79.913 157.213 80.3259 157.175 80.7389C157.11 81.7325 157.033 82.7519 156.917 83.7584C156.8 84.7519 156.633 85.7584 156.452 86.752C156.284 87.7585 156.078 88.765 155.846 89.7457C155.756 90.1586 155.549 90.5973 155.33 91.049C155.098 91.5264 154.865 92.0297 154.711 92.5845C154.556 93.1394 154.478 93.6942 154.414 94.2233C154.349 94.7265 154.285 95.204 154.156 95.604C154.04 95.9266 153.769 96.2879 153.485 96.6621C153.149 97.1137 152.762 97.617 152.517 98.2235C152.35 98.6364 152.208 99.0493 152.053 99.4622C151.859 100.017 151.666 100.546 151.434 101.049C151.15 101.656 151.034 102.275 150.93 102.83C150.84 103.295 150.763 103.746 150.608 104.043C150.26 104.675 149.873 105.295 149.498 105.901L149.034 106.65C148.621 107.321 148.157 107.979 147.705 108.637L147.331 109.179C147.163 109.424 146.802 109.669 146.415 109.927C145.925 110.263 145.37 110.637 144.931 111.192C144.544 111.695 144.286 112.237 144.054 112.727C143.848 113.166 143.654 113.579 143.409 113.863C143.074 114.25 142.777 114.676 142.48 115.102C142.171 115.54 141.887 115.966 141.564 116.302C141.242 116.637 140.842 116.934 140.403 117.257C140.003 117.553 139.577 117.863 139.19 118.237C138.816 118.586 138.378 118.895 137.926 119.231C137.539 119.515 137.152 119.786 136.791 120.095C136.301 120.508 135.926 120.999 135.591 121.437C135.294 121.824 135.023 122.186 134.727 122.405C134.52 122.56 134.082 122.663 133.656 122.766C133.049 122.908 132.366 123.063 131.759 123.476C131.334 123.76 130.947 124.083 130.547 124.418C130.134 124.766 129.747 125.089 129.347 125.321C129.037 125.502 128.728 125.696 128.418 125.889C127.863 126.225 127.321 126.573 126.741 126.87C126.354 127.076 125.98 127.283 125.606 127.502C125.077 127.812 124.586 128.096 124.083 128.328L123.206 128.728C122.574 129.025 121.942 129.322 121.297 129.567C120.793 129.76 120.264 129.902 119.697 130.057C119.258 130.173 118.82 130.289 118.381 130.431C118.033 130.547 117.684 130.663 117.349 130.793C116.742 131.012 116.123 131.218 115.504 131.386C114.949 131.541 114.459 131.747 113.969 131.967C113.491 132.173 113.04 132.367 112.627 132.457C112.098 132.573 111.543 132.625 110.95 132.689C110.498 132.741 110.047 132.78 109.595 132.857C109.234 132.909 108.782 132.857 108.292 132.806C107.75 132.741 107.144 132.664 106.512 132.728C105.622 132.818 104.744 132.857 103.841 132.896H103.493C103.054 132.935 102.629 132.973 102.203 133.012C101.596 133.064 101.016 133.102 100.474 133.115C100.1 133.115 99.7258 133.115 99.3517 133.115C98.7195 133.115 98.0745 133.141 97.4423 133.089C96.8231 133.051 96.2038 132.96 95.5846 132.87C95.1975 132.818 94.8105 132.754 94.4235 132.715C93.8816 132.651 93.3656 132.651 92.8753 132.651C92.3464 132.651 91.8303 132.651 91.3788 132.573C90.9015 132.496 90.4241 132.354 89.9081 132.199C89.4823 132.07 89.0566 131.941 88.618 131.851C88.2309 131.76 87.831 131.58 87.3923 131.386C87.1214 131.27 86.8505 131.154 86.5538 131.038L86.8118 129.747L87.6246 127.141L88.7986 124.56C88.8502 124.457 88.876 124.354 88.9018 124.237L89.3791 121.45L90.2048 118.844L90.8885 117.334C91.4304 117.527 91.9722 117.682 92.5141 117.824L93.1721 118.005C93.4817 118.095 93.8042 118.211 94.1138 118.328C94.8492 118.586 95.6749 118.882 96.5909 118.96C96.7457 118.96 96.8876 118.973 97.0424 118.973C97.752 118.973 98.4357 118.844 99.0808 118.715C99.4291 118.65 99.7774 118.586 100.113 118.534C100.435 118.495 100.822 118.521 101.235 118.534C101.932 118.573 102.719 118.624 103.48 118.366C104.383 118.069 104.989 117.398 105.467 116.856C105.699 116.598 105.957 116.315 106.138 116.198L106.628 115.902C107.376 115.45 108.137 114.985 108.808 114.263C109.698 113.295 110.305 112.443 110.743 111.54C110.86 111.308 110.989 111.063 111.13 110.83C111.517 110.134 111.969 109.334 112.124 108.392C112.317 107.166 112.214 105.914 112.098 104.959C111.982 104.03 111.543 103.308 111.156 102.662C110.989 102.391 110.821 102.12 110.705 101.837C110.601 101.578 110.537 101.243 110.46 100.869C110.318 100.12 110.163 99.2816 109.569 98.5461C108.989 97.8363 108.228 97.4492 107.557 97.1137C107.26 96.9589 106.95 96.8169 106.692 96.6363C105.712 95.9524 104.68 95.5911 103.686 95.2427C103.416 95.1524 103.158 95.0362 102.887 94.9201C102.203 94.6233 101.442 94.2878 100.513 94.1975C99.6871 94.1072 98.926 94.262 98.2035 94.404C97.881 94.4685 97.5584 94.5201 97.2359 94.5588L96.6683 94.6233C95.7394 94.7265 94.7847 94.8298 93.8042 95.1524C93.4817 95.2556 93.0817 95.3201 92.656 95.3846C92.6173 95.3846 92.5657 95.3975 92.5141 95.4104L92.1529 93.0361L91.3788 89.2037C91.3401 89.0231 91.2627 88.8553 91.1595 88.7005L89.4049 86.2875L87.5988 83.9003L85.6636 81.655C85.5862 81.5647 85.4959 81.4873 85.3927 81.4099L82.9027 79.7969C82.7995 79.7195 82.6705 79.6679 82.5415 79.642L79.6258 78.8291L77.6262 78.4033C77.4068 78.0936 77.0585 77.8742 76.6457 77.8484L73.0463 77.7065C73.0463 77.7065 72.9431 77.7065 72.8914 77.7065L69.4339 77.9904L66.0667 77.8484L62.9963 77.5258C62.8802 77.5258 62.764 77.5258 62.6479 77.5258L59.7839 78.0033L56.9327 77.4871C56.8037 77.4613 56.6618 77.4613 56.5199 77.4871L53.6558 77.8871L50.7918 77.3065C50.6112 77.2678 50.4306 77.2678 50.2628 77.3065L47.3214 77.9517H45.1669C45.1669 77.771 45.154 77.6162 45.1411 77.4484C45.1024 76.9193 45.0508 76.429 45.0637 75.9387C45.0766 75.2935 44.9218 74.7128 44.7799 74.1967C44.6637 73.7837 44.5605 73.3966 44.5863 73.1256C44.625 72.5063 44.7153 71.874 44.8057 71.2546L44.9218 70.3384C44.9992 69.6674 45.1282 68.9964 45.2443 68.3125L45.3733 67.5641C45.4249 67.2544 45.6571 66.8673 45.9023 66.4673C46.2119 65.9512 46.5602 65.3705 46.715 64.6866C46.8569 64.0672 46.8698 63.4478 46.8698 62.9059C46.8698 62.4155 46.8698 61.951 46.9859 61.5897C47.1279 61.0864 47.2182 60.5703 47.3085 60.0541C47.3988 59.5122 47.4891 58.996 47.6439 58.5573C47.7987 58.1057 48.0438 57.654 48.3148 57.1637C48.5599 56.6992 48.8179 56.2475 49.0114 55.7701C49.2178 55.2798 49.4888 54.8023 49.7726 54.2862C50.0048 53.8732 50.237 53.4603 50.4435 53.0345C50.7144 52.4538 50.8563 51.8474 50.9853 51.3054C51.1014 50.8151 51.2046 50.3634 51.3723 50.0408C51.5014 49.7957 51.8755 49.5118 52.2238 49.2408C52.7141 48.8666 53.2688 48.4279 53.6558 47.7956C53.9268 47.3568 54.159 46.8923 54.3783 46.4278C54.6105 45.9374 54.8427 45.4729 55.1137 45.0858C55.3201 44.789 55.5265 44.4922 55.72 44.1954C56.0942 43.6406 56.4683 43.0857 56.8811 42.5696C57.1521 42.2212 57.4101 41.8727 57.6681 41.5114C58.0293 41.0082 58.3648 40.5308 58.7389 40.1049L59.3581 39.3952C59.8226 38.8533 60.2999 38.2984 60.8031 37.7952C61.1901 37.4081 61.6287 37.0467 62.0932 36.6596C62.4544 36.3628 62.8027 36.079 63.1382 35.7693C63.4091 35.5241 63.6671 35.2789 63.9252 35.0338C64.4154 34.5692 64.8927 34.1176 65.4088 33.6918C65.8603 33.3305 66.2345 32.9175 66.5828 32.5304C66.944 32.1433 67.2794 31.7691 67.6278 31.511C68.0793 31.1884 68.5696 30.8917 69.1114 30.5949C69.5113 30.3626 69.8984 30.1303 70.2854 29.8852C70.6079 29.6787 71.0466 29.5368 71.5239 29.3948C72.04 29.2271 72.6334 29.0464 73.1882 28.7238C73.988 28.2593 74.8137 27.8593 75.6394 27.4464L75.9103 27.3044C76.3102 27.1109 76.6844 26.8915 77.0714 26.6721C77.6004 26.3753 78.1164 26.0915 78.6325 25.8721C78.9808 25.7172 79.3291 25.5624 79.6645 25.3947C80.258 25.1237 80.8386 24.8527 81.4449 24.6204C82.0384 24.4011 82.6576 24.2204 83.2769 24.0527C83.651 23.9494 84.0251 23.8333 84.3993 23.7301C84.9153 23.5752 85.4056 23.3559 85.8571 23.1623C86.3603 22.9429 86.8247 22.7365 87.2891 22.6203C87.8052 22.4913 88.3728 22.4139 88.9534 22.3365C89.4178 22.2719 89.8823 22.2074 90.3338 22.13C90.7724 22.0397 91.2627 22.0397 91.7916 22.0526C91.8303 22.0526 91.869 22.0526 91.9077 22.0526C91.7142 22.5816 91.5336 23.1494 91.5207 23.7946C91.4949 24.8527 91.5594 25.9882 91.7013 27.1754C91.8045 27.9883 92.1658 28.6722 92.4883 29.2658C92.6947 29.6529 92.8882 30.0142 92.9656 30.3239L93.0817 30.8142C93.2882 31.6788 93.5075 32.5691 93.8558 33.4853C94.5267 35.266 95.1588 36.9435 97.0811 37.3822C97.3004 37.4339 97.5197 37.4597 97.7391 37.4597C98.4228 37.4597 99.0937 37.2403 99.829 37.008C100.113 36.9177 100.422 36.8274 100.758 36.7242C101.88 36.4016 102.887 36.1048 103.906 35.7048C105.054 35.266 106.073 34.7499 106.925 34.3111C107.183 34.1692 107.608 34.1047 108.047 34.0402C108.757 33.924 109.557 33.795 110.279 33.3047C110.95 32.8401 111.44 32.2207 111.866 31.6788C112.137 31.3433 112.395 31.0207 112.653 30.7755C113.582 29.9239 114.369 28.9948 114.962 28.2722C115.194 27.9883 115.478 27.7173 115.762 27.4464C116.265 26.956 116.846 26.4141 117.271 25.6914C117.62 25.1108 117.813 24.5043 117.981 23.9623C118.497 24.143 119.026 24.3107 119.542 24.4914L119.865 24.6075C120.29 24.7624 120.742 24.8914 121.18 25.0204C121.735 25.1882 122.251 25.343 122.729 25.5366C123.657 25.9237 124.573 26.3366 125.477 26.7625C125.967 27.0076 126.47 27.1754 126.947 27.3431C127.437 27.5109 127.915 27.6786 128.302 27.8851C128.663 28.0915 129.037 28.2722 129.411 28.4657C129.966 28.7496 130.495 29.0077 130.972 29.3174C131.295 29.5239 131.617 29.8594 131.966 30.2207C132.327 30.5949 132.74 31.0336 133.23 31.382L133.953 31.8852C134.533 32.2853 135.127 32.6982 135.668 33.1369C136.391 33.7047 137.088 34.3241 137.771 34.9305L137.952 35.0854C138.429 35.5112 138.881 35.9757 139.332 36.4274C139.59 36.6854 139.835 36.9435 140.094 37.2016C140.532 37.6274 141.035 37.95 141.474 38.2468C141.887 38.5178 142.274 38.7629 142.532 39.0468C142.751 39.2791 142.919 39.692 143.099 40.1178C143.319 40.6469 143.577 41.2276 144.003 41.7566C144.338 42.1695 144.712 42.5308 145.073 42.8792C145.447 43.2405 145.809 43.589 146.08 43.9503C146.376 44.3503 146.634 44.8148 146.892 45.2922C147.125 45.7181 147.357 46.131 147.615 46.531C148.17 47.3698 148.673 48.2214 149.176 49.0989C149.421 49.5118 149.602 49.9892 149.808 50.4925C149.989 50.9441 150.182 51.4086 150.402 51.8474C150.737 52.4925 151.24 52.9571 151.679 53.37C152.001 53.6668 152.324 53.9636 152.427 54.2087C152.608 54.6217 152.737 55.112 152.879 55.6282C153.008 56.1185 153.137 56.6088 153.33 57.1121C153.472 57.4863 153.549 57.9637 153.627 58.4541C153.704 58.9831 153.782 59.5122 153.962 60.067C154.169 60.7122 154.53 61.2413 154.852 61.7187C155.11 62.1058 155.356 62.4671 155.446 62.7768C155.523 63.0736 155.485 63.5124 155.446 63.9769C155.394 64.5447 155.343 65.1898 155.485 65.8608C155.588 66.3254 155.717 66.7899 155.846 67.2415C156.001 67.7706 156.143 68.2738 156.22 68.7642C156.31 69.319 156.465 69.8352 156.62 70.3384C156.775 70.8288 156.917 71.2933 156.955 71.7191C157.007 72.2353 156.994 72.7772 156.981 73.3579C156.981 73.8224 156.968 74.287 156.981 74.7515C157.007 75.3064 157.097 75.8354 157.2 76.3516C157.291 76.8548 157.381 77.3452 157.381 77.771C157.381 78.3646 157.317 78.9581 157.252 79.5517L157.291 79.5001Z" fill="#999999"/>
<path d="M96.694 73.3968C97.2101 72.7516 97.5326 72.029 97.8294 71.3322C97.9455 71.0612 98.0616 70.8031 98.2035 70.5321C98.3196 70.2999 98.5131 70.0289 98.7195 69.7321C99.1195 69.1772 99.571 68.545 99.7903 67.732C100.01 66.9836 99.8935 66.2481 99.8032 65.6029C99.7387 65.19 99.6871 64.8158 99.7129 64.5319C99.7645 64.2093 99.829 63.8867 99.9064 63.5641C100.048 62.9447 100.203 62.2479 100.203 61.4737C100.203 61.1253 100.268 60.7382 100.319 60.3382C100.422 59.7059 100.513 59.0349 100.435 58.3381C100.306 57.3703 100.048 56.467 99.8161 55.6541L99.7 55.2541C99.4549 54.4153 99.0679 53.6927 98.7066 53.0604C98.5776 52.8282 98.4486 52.5959 98.3196 52.312C97.8423 51.383 97.3649 50.4023 96.6812 49.5764C95.9458 48.6732 95.1459 47.9118 94.2815 47.3054C93.5204 46.7634 92.6818 46.5699 91.9464 46.4021C91.6755 46.3376 91.4175 46.286 91.1595 46.2086C90.2435 45.9118 89.1985 45.5763 87.96 45.5763C87.7149 45.5763 87.4697 45.5763 87.2117 45.5505C86.4247 45.5247 85.5346 45.4859 84.6315 45.7698L84.2057 45.8989C83.3285 46.1698 82.348 46.4666 81.4836 47.0731C80.7869 47.5634 80.3741 48.2732 80 48.9054C79.8193 49.2151 79.6387 49.5119 79.4581 49.7442C79.3033 49.9248 79.1227 50.1184 78.955 50.3119C78.4647 50.8668 77.8971 51.4862 77.4971 52.2991C77.0714 53.1637 76.6973 54.1444 76.3747 55.2928C76.1425 56.1186 76.0393 56.9961 75.9361 57.8348L75.8716 58.3897C75.7813 59.0865 75.8716 59.7317 75.949 60.364C75.9619 60.5188 75.9877 60.6737 76.0006 60.8414C76.0264 61.0479 76.0393 61.2543 76.0393 61.4737C76.0393 61.7576 76.0264 62.0286 76.0264 62.2995C76.0135 63.0221 76.0006 63.7706 76.0909 64.5448C76.1425 64.9061 76.1425 65.2674 76.1425 65.6287C76.1425 66.2868 76.1425 66.9707 76.3618 67.6675C76.3876 67.7707 76.4134 67.874 76.4521 67.9643C76.7231 68.9579 77.0069 69.8482 77.4197 70.687C77.5229 70.8934 77.6262 71.0999 77.7294 71.3193C78.0906 72.0935 78.4647 72.8806 79.0195 73.5645C79.7935 74.5194 80.8127 75.242 81.561 75.7711C82.3222 76.3001 83.1737 76.4937 83.9219 76.6743C84.2057 76.7388 84.4767 76.7905 84.7347 76.8808C85.5604 77.1389 86.6699 77.4485 87.96 77.4485C89.0308 77.4485 89.9597 77.1389 90.7853 76.8679L91.1595 76.7517C91.3917 76.6743 91.6239 76.6227 91.8561 76.5582C92.6044 76.3517 93.443 76.1324 94.2299 75.5904C94.9653 75.0743 95.8942 74.3516 96.694 73.3968ZM95.4684 70.2999C95.2233 70.8547 94.9911 71.3838 94.6944 71.758C94.1009 72.4806 93.3398 73.0613 92.7463 73.4742C92.3464 73.7581 91.8174 73.9 91.1982 74.0549C90.9272 74.1323 90.6434 74.2097 90.3725 74.2871L89.9855 74.4162C88.4373 74.9194 87.3665 75.0097 85.5088 74.4162C85.1862 74.3129 84.8508 74.2355 84.5025 74.1581C83.9348 74.0291 83.4059 73.9 83.0575 73.6548C82.9156 73.5645 82.7737 73.4613 82.6318 73.3581C82.7737 73.371 82.9285 73.3839 83.0833 73.3839C84.3348 73.3839 85.5475 73.0613 86.4892 72.4806C87.4568 71.8999 88.4244 71.216 89.0824 70.2612C89.7016 69.3579 90.0629 68.2224 90.3467 67.2159C90.5789 66.4287 90.4886 65.6416 90.4241 64.9448C90.3983 64.648 90.3596 64.3512 90.3596 64.0544C90.3596 63.8093 90.3725 63.5641 90.3854 63.3189C90.4112 62.5447 90.4499 61.7447 90.2177 60.9188C89.9597 60.0156 89.4049 59.3446 88.9663 58.8155C88.8114 58.622 88.6437 58.4284 88.5147 58.2349C87.9084 57.3574 87.2891 56.5316 86.3086 55.9251L86.0506 55.7573C85.2636 55.2799 84.2961 54.6734 83.0833 54.6734C82.1287 54.6734 80.7095 54.7508 79.5742 55.4476C79.2904 55.6283 79.0582 55.8348 78.8389 56.067C78.8518 56.0412 78.8518 56.0154 78.8647 55.9896C79.1356 55.0089 79.4581 54.1573 79.8065 53.4476C80.0516 52.9443 80.4515 52.5056 80.8772 52.0281C81.0708 51.8088 81.2772 51.6023 81.4578 51.3701C81.7674 50.9958 82.0125 50.57 82.219 50.2087C82.477 49.77 82.7221 49.3571 82.9801 49.1764C83.4962 48.8151 84.2444 48.5828 84.9669 48.3635L85.4184 48.2215C85.6894 48.1441 86.0248 48.1183 86.3731 48.1183C86.6053 48.1183 86.8505 48.1183 87.1085 48.1312C87.3923 48.1441 87.6761 48.157 87.96 48.157C88.734 48.157 89.4436 48.3635 90.3725 48.6603C90.7079 48.7635 91.0433 48.8409 91.3788 48.9183C91.9464 49.0474 92.4496 49.1635 92.7979 49.4087C93.4559 49.8732 94.1138 50.4926 94.6944 51.2023C95.1846 51.8088 95.5846 52.6088 96.0232 53.4992C96.1522 53.7702 96.307 54.0411 96.4489 54.3121C96.7586 54.8799 97.0553 55.4089 97.2101 55.9509L97.3391 56.3767C97.5455 57.1251 97.7777 57.8994 97.8681 58.6607C97.9197 59.0091 97.8423 59.4736 97.7777 59.9511C97.7003 60.4156 97.6229 60.9317 97.6229 61.4737C97.6229 61.9511 97.5068 62.4544 97.3907 62.9834C97.3004 63.3964 97.2101 63.7964 97.1585 64.1964C97.0811 64.8416 97.1714 65.4481 97.2488 65.9771C97.3133 66.39 97.3778 66.8159 97.3133 67.0352C97.2101 67.4094 96.9134 67.8094 96.6166 68.2353C96.3586 68.5966 96.1006 68.9708 95.8813 69.3966C95.7394 69.6934 95.5975 69.9902 95.4684 70.2999Z" fill="#999999"/>
<path d="M128.895 58.3896C128.792 57.5896 128.521 56.9186 128.276 56.3121C128.147 56.0154 128.031 55.7186 127.941 55.4218L127.799 54.9056C127.566 54.0669 127.347 53.2669 126.96 52.4668C126.805 52.17 126.689 51.8603 126.573 51.5636C126.315 50.8926 126.044 50.1958 125.528 49.5764C124.935 48.8538 124.135 47.9247 123.167 47.2408L122.883 47.0472C122.109 46.4924 121.219 45.8601 120.213 45.5375C119.09 45.1891 117.865 45.1504 116.807 45.1504C115.865 45.1504 115.065 45.4859 114.356 45.7827C114.098 45.8859 113.84 45.9891 113.582 46.0795C112.756 46.3375 111.672 46.7376 110.614 47.4731C109.84 48.0279 109.286 48.7247 108.744 49.3957L108.408 49.8215C108.228 50.028 108.034 50.2345 107.841 50.4409C107.35 50.9571 106.796 51.5377 106.409 52.3378C105.957 53.2281 105.493 54.1959 105.196 55.2798C104.989 55.9895 104.951 56.6863 104.925 57.3573C104.899 57.7057 104.886 58.0541 104.835 58.4025C104.809 58.6735 104.693 59.0219 104.577 59.3832C104.383 59.9897 104.164 60.6865 104.164 61.4736C104.164 62.0285 104.293 62.5318 104.461 62.9834C104.551 63.2157 104.641 63.435 104.731 63.6286C104.886 63.977 105.028 64.2996 105.054 64.5189C105.106 64.8802 105.106 65.2415 105.119 65.5899C105.144 66.248 105.17 66.919 105.364 67.6158L105.531 68.2352C105.751 69.0352 105.97 69.8611 106.357 70.6353C106.37 70.6611 106.396 70.6998 106.409 70.7256C106.809 71.5128 107.35 72.1321 107.828 72.6741C107.995 72.8548 108.15 73.0354 108.292 73.2161L108.486 73.4483C109.092 74.1838 109.711 74.9581 110.563 75.5516C111.337 76.1065 112.175 76.3259 112.924 76.5194C113.156 76.5839 113.401 76.6485 113.633 76.7259C113.853 76.7904 114.072 76.8678 114.291 76.9581C115.027 77.2291 115.839 77.5259 116.807 77.5259C117.775 77.5259 118.678 77.2291 119.439 76.9711C119.619 76.9065 119.813 76.8291 120.006 76.7775C120.987 76.4678 121.877 76.0033 122.909 75.2807C123.722 74.7129 124.561 74.1193 125.309 73.2032C125.464 73.0096 125.722 72.8031 125.993 72.5838C126.522 72.145 127.179 71.6031 127.579 70.8031C128.005 69.9256 128.405 68.8804 128.715 67.7578C128.921 67.061 128.908 66.3642 128.895 65.6932C128.895 65.2932 128.895 64.906 128.934 64.5705C129.05 63.6028 129.179 62.5705 129.179 61.4736C129.179 60.5059 129.063 59.6155 128.947 58.7509L128.895 58.3896ZM126.367 64.2479C126.302 64.7641 126.315 65.2802 126.315 65.7319C126.328 66.2351 126.328 66.7126 126.238 67.0481C125.967 68.0287 125.631 68.932 125.27 69.6546C125.115 69.9643 124.741 70.2611 124.354 70.5837C123.993 70.8805 123.632 71.1773 123.309 71.5644C122.78 72.2096 122.148 72.6483 121.387 73.1903C120.6 73.7451 119.955 74.0806 119.219 74.3129C119.013 74.3774 118.794 74.4548 118.587 74.5322C117.929 74.7516 117.375 74.9452 116.807 74.9452C116.304 74.9452 115.788 74.7645 115.194 74.5322C114.936 74.4419 114.678 74.3387 114.407 74.2613C114.136 74.1709 113.853 74.1064 113.582 74.029C112.975 73.8612 112.446 73.7322 112.046 73.4483C111.943 73.3709 111.84 73.2935 111.737 73.1903C111.801 73.2032 111.866 73.2032 111.93 73.2032C113.311 73.2032 114.382 72.9451 115.285 72.3902C116.188 71.8354 116.781 70.9708 117.284 70.2095L117.517 69.874C118.033 69.1256 118.626 68.261 118.949 67.1513C119.181 66.3513 119.129 65.5641 119.078 64.8673C119.065 64.5964 119.039 64.3254 119.039 64.0544C119.039 63.7447 119.09 63.435 119.142 63.1382C119.232 62.4672 119.348 61.693 119.129 60.9059L119.039 60.5833C118.781 59.68 118.497 58.6606 117.929 57.8477C117.375 57.0218 116.51 56.2605 115.375 55.5637C114.382 54.9572 113.259 54.9701 112.356 54.996H111.93C110.692 54.996 109.634 55.2798 108.679 55.8605C108.228 56.1444 107.854 56.4799 107.544 56.8412C107.57 56.5315 107.608 56.2347 107.673 55.9895C107.918 55.1121 108.305 54.2992 108.718 53.4733C108.937 53.0346 109.311 52.6346 109.711 52.2216C109.956 51.9636 110.189 51.7184 110.395 51.4603L110.769 51.0087C111.221 50.428 111.621 49.9248 112.098 49.5893C112.691 49.1635 113.388 48.8409 114.356 48.5312C114.678 48.4279 115.001 48.2989 115.323 48.1699C115.865 47.9505 116.381 47.7311 116.807 47.7311C117.671 47.7311 118.665 47.7569 119.426 48.0021C120.058 48.1957 120.729 48.686 121.387 49.1506L121.684 49.357C122.393 49.8603 123.051 50.6087 123.528 51.2023C123.786 51.5119 123.967 51.9765 124.173 52.5055C124.315 52.8797 124.47 53.2539 124.638 53.6153C124.935 54.183 125.102 54.8411 125.309 55.5895L125.464 56.1186C125.567 56.5186 125.722 56.9057 125.889 57.2928C126.096 57.7832 126.276 58.2477 126.341 58.7122L126.392 59.0864C126.483 59.8736 126.599 60.6736 126.599 61.4736C126.599 62.4156 126.483 63.3318 126.367 64.2479Z" fill="#999999"/>
<path d="M105.931 79.0357C104.783 78.6099 103.558 78.5195 102.061 78.5195C100.319 78.5195 99.2356 79.0357 98.3196 79.5905C97.1714 80.2873 96.3458 81.1519 95.662 82.3907L95.5201 82.6487C94.746 84.0294 94.6944 84.1972 94.5396 85.6166L94.5009 85.9779C94.4235 86.6876 94.9266 87.3199 95.6362 87.4102C95.6878 87.4102 95.7394 87.4102 95.7781 87.4102C96.4232 87.4102 96.9779 86.9199 97.0553 86.2618L97.094 85.9005C97.1628 85.2467 97.3865 84.58 97.7649 83.9004L97.9068 83.6294C98.3712 82.7778 98.8744 82.2487 99.6356 81.7842C100.358 81.3455 100.99 81.0874 102.035 81.0874C103.493 81.0874 104.332 81.1906 105.002 81.4358C106.189 81.8874 106.925 82.339 107.286 82.8681C107.802 83.6079 108.047 84.3219 108.021 85.0101V85.4359C107.983 86.1457 108.537 86.7392 109.26 86.765C109.273 86.765 109.286 86.765 109.299 86.765C109.995 86.765 110.563 86.2102 110.589 85.5134V85.1004C110.666 83.4101 110.55 83.0229 109.415 81.3971C108.731 80.4035 107.647 79.6809 105.918 79.0228L105.931 79.0357Z" fill="#999999"/>
<path d="M99.0292 31.5755C99.1195 31.5884 99.1969 31.6013 99.2872 31.6013C99.8936 31.6013 100.435 31.1755 100.552 30.569C100.681 29.9239 100.668 29.5626 100.629 29.2013C100.616 28.9819 100.603 28.8528 100.784 28.2851C100.874 28.0012 100.951 27.6786 101.029 27.3431C101.132 26.9044 101.235 26.4528 101.39 26.0269C101.506 25.7172 101.713 25.3688 101.919 24.9946C102.113 24.6591 102.306 24.3107 102.474 23.9494C102.603 23.6655 102.835 23.3559 103.067 23.0333C103.312 22.6978 103.545 22.3623 103.751 22.001C104.125 21.3429 104.577 20.6848 105.002 20.0783C105.183 19.8073 105.364 19.5363 105.531 19.2654C105.777 18.8653 106.009 18.4911 106.28 18.1814C106.486 17.9492 106.796 17.7298 107.118 17.4975C107.441 17.2653 107.763 17.0459 108.047 16.7749C108.447 16.4136 108.705 15.9878 108.95 15.6136C109.131 15.3297 109.311 15.0329 109.466 14.9297C109.763 14.7232 110.176 14.5555 110.614 14.3877C110.924 14.2587 111.221 14.1426 111.518 14.0006C111.737 13.8974 111.956 13.7813 112.175 13.6651C112.653 13.42 113.104 13.1748 113.543 13.0457C114.227 12.8393 114.614 12.1167 114.407 11.4328C114.201 10.7489 113.478 10.3618 112.795 10.5682C112.111 10.7747 111.505 11.0973 110.976 11.3683C110.782 11.4715 110.589 11.5747 110.395 11.665C110.15 11.7812 109.905 11.8844 109.647 11.9876C109.131 12.1941 108.537 12.4393 107.996 12.8006C107.402 13.2135 107.041 13.7813 106.757 14.2329C106.602 14.4781 106.447 14.7361 106.305 14.8523C106.086 15.0458 105.854 15.2136 105.622 15.3813C105.196 15.6781 104.719 16.0136 104.319 16.4911C103.919 16.9556 103.596 17.4717 103.325 17.9105C103.183 18.1427 103.041 18.375 102.887 18.6073C102.422 19.2654 101.945 19.9751 101.519 20.7235C101.364 21.0074 101.171 21.2654 100.977 21.5235C100.681 21.9364 100.371 22.3494 100.139 22.8526C99.9968 23.1623 99.8291 23.4462 99.6743 23.7301C99.4292 24.1688 99.1711 24.6075 98.9905 25.0979C98.7583 25.7043 98.6293 26.2721 98.5132 26.7753C98.4487 27.0463 98.3971 27.2915 98.3326 27.5238C98.0358 28.4915 98.0358 28.9303 98.0745 29.4206C98.0874 29.6142 98.1003 29.7432 98.0358 30.0787C97.8939 30.7755 98.3455 31.4594 99.055 31.6013L99.0292 31.5755Z" fill="#999999"/>
</g>
<defs>
<clipPath id="clip0_6750_1539">
<rect width="160" height="157" fill="white"/>
</clipPath>
</defs>
</svg>
