<svg width="150" height="150" viewBox="0 0 150 150" fill="none" xmlns="http://www.w3.org/2000/svg">
<g clip-path="url(#clip0_7158_9928)">
<path d="M150 33.1219C150 32.229 149.963 31.3461 149.893 30.4731V0.066637H118.945C118.263 0.023323 117.576 0 116.884 0H33.2197C32.5269 0 31.8407 0.023323 31.1578 0.066637H0V150H149.893V119.46C149.963 118.587 150 117.701 150 116.811V33.1219Z" fill="url(#paint0_linear_7158_9928)"/>
<path d="M50.2709 79.6246V93.4285C50.2709 97.9998 53.975 101.708 58.5484 101.708H72.3486C75.3964 101.708 77.868 107.269 77.868 114.129C77.868 120.99 75.3964 126.55 72.3486 126.55H50.2709C36.5574 126.55 25.4386 115.429 25.4386 101.711V79.6279C25.4386 76.5793 30.998 74.1071 37.8564 74.1071C44.7149 74.1071 50.2743 76.5793 50.2743 79.6279L50.2709 79.6246Z" fill="url(#paint1_linear_7158_9928)"/>
<path d="M72.1453 91.4927C71.256 91.5193 70.4099 91.0928 69.8603 90.3931L62.2357 80.7408C61.2897 79.5446 61.4929 77.8087 62.6887 76.8625C63.8845 75.9162 65.62 76.1195 66.566 77.3156L71.8256 83.9727L83.7171 65.2876C84.5365 64.0015 86.242 63.6217 87.5277 64.4413C88.8135 65.261 89.1932 66.9669 88.3738 68.253L74.3971 90.2132C73.9174 90.9662 73.1013 91.4427 72.2086 91.486C72.1886 91.486 72.1687 91.486 72.1487 91.486L72.1453 91.4927Z" fill="url(#paint2_linear_7158_9928)"/>
<path d="M124.775 52.0236V101.705C124.775 115.422 113.659 126.547 99.9456 126.547H80.3762C79.8632 126.547 79.6367 125.927 80.0131 125.574C81.995 123.692 83.384 119.277 83.384 114.126C83.384 108.975 81.9917 104.56 80.0131 102.678C79.6367 102.325 79.8632 101.705 80.3762 101.705H91.6682C96.2382 101.705 99.9423 97.9998 99.9423 93.4252V60.3032C99.9423 55.7253 96.2382 52.0236 91.6682 52.0236H58.5484C53.9783 52.0236 50.2709 55.7286 50.2709 60.3032V71.5915C50.2709 72.1046 49.6514 72.3312 49.2983 71.9614C47.4163 69.9756 43.0027 68.5829 37.8531 68.5829C32.7034 68.5829 28.2899 69.9756 26.4079 71.9614C26.0548 72.3312 25.4352 72.1046 25.4352 71.5915V52.0236C25.4352 39.2392 35.0917 28.7073 47.5095 27.3379V32.7022C47.5095 34.2248 48.7453 35.4609 50.2676 35.4609C51.7898 35.4609 53.0256 34.2248 53.0256 32.7022V27.1813H72.3419V32.7022C72.3419 34.2248 73.5777 35.4609 75.0999 35.4609C76.6222 35.4609 77.858 34.2248 77.858 32.7022V27.1813H97.1742V32.7022C97.1742 34.2248 98.41 35.4609 99.9323 35.4609C101.455 35.4609 102.69 34.2248 102.69 32.7022V27.3312C115.108 28.7073 124.765 39.2392 124.765 52.0236H124.775Z" fill="url(#paint3_linear_7158_9928)"/>
<path d="M77.8646 21.6637V27.1846H72.3452V21.6637C72.3452 20.141 73.581 18.9049 75.1033 18.9049C75.866 18.9049 76.5556 19.2148 77.0585 19.7112C77.5548 20.2143 77.8646 20.904 77.8646 21.667V21.6637Z" fill="url(#paint4_linear_7158_9928)"/>
<path d="M102.7 21.6637V27.3345C101.794 27.2345 100.878 27.1846 99.9456 27.1846H97.1809V21.6637C97.1809 20.141 98.4167 18.9049 99.9389 18.9049C100.702 18.9049 101.391 19.2148 101.894 19.7112C102.391 20.2143 102.7 20.904 102.7 21.667V21.6637Z" fill="url(#paint5_linear_7158_9928)"/>
<path d="M53.029 21.6637V27.1846H50.2709C49.3382 27.1846 48.4156 27.2345 47.5129 27.3378V21.6637C47.5129 20.141 48.7487 18.9049 50.2709 18.9049C51.0337 18.9049 51.7232 19.2148 52.2262 19.7112C52.7225 20.2143 53.0323 20.904 53.0323 21.667L53.029 21.6637Z" fill="url(#paint6_linear_7158_9928)"/>
</g>
<defs>
<linearGradient id="paint0_linear_7158_9928" x1="-13.7169" y1="23.8294" x2="163.634" y2="126.196" gradientUnits="userSpaceOnUse">
<stop stop-color="#F2922A"/>
<stop offset="1" stop-color="#DA6022"/>
</linearGradient>
<linearGradient id="paint1_linear_7158_9928" x1="25.4386" y1="100.329" x2="77.8646" y2="100.329" gradientUnits="userSpaceOnUse">
<stop stop-color="#FFF050"/>
<stop offset="1" stop-color="#FFD200"/>
</linearGradient>
<linearGradient id="paint2_linear_7158_9928" x1="61.6395" y1="77.7554" x2="88.8002" y2="77.7554" gradientUnits="userSpaceOnUse">
<stop stop-color="white"/>
<stop offset="1" stop-color="#F0F0E1"/>
</linearGradient>
<linearGradient id="paint3_linear_7158_9928" x1="25.4352" y1="76.8659" x2="124.775" y2="76.8659" gradientUnits="userSpaceOnUse">
<stop stop-color="white"/>
<stop offset="1" stop-color="#F0F0E1"/>
</linearGradient>
<linearGradient id="paint4_linear_7158_9928" x1="72.3452" y1="23.0431" x2="77.8646" y2="23.0431" gradientUnits="userSpaceOnUse">
<stop stop-color="white"/>
<stop offset="1" stop-color="#F0F0E1"/>
</linearGradient>
<linearGradient id="paint5_linear_7158_9928" x1="97.1809" y1="23.1164" x2="102.7" y2="23.1164" gradientUnits="userSpaceOnUse">
<stop stop-color="white"/>
<stop offset="1" stop-color="#F0F0E1"/>
</linearGradient>
<linearGradient id="paint6_linear_7158_9928" x1="47.5095" y1="23.1197" x2="53.029" y2="23.1197" gradientUnits="userSpaceOnUse">
<stop stop-color="white"/>
<stop offset="1" stop-color="#F0F0E1"/>
</linearGradient>
<clipPath id="clip0_7158_9928">
<rect width="150" height="150" rx="35" fill="white"/>
</clipPath>
</defs>
</svg>
