<svg width="159" height="152" viewBox="0 0 159 152" fill="none" xmlns="http://www.w3.org/2000/svg">
<g clip-path="url(#clip0_6876_1543)">
<path d="M107.535 124.884L108.278 124.407C108.832 124.055 109.335 123.666 109.826 123.29C110.128 123.051 110.43 122.825 110.732 122.612C111.299 122.223 111.815 121.783 112.343 121.356C112.595 121.143 112.859 120.942 113.111 120.729C113.627 120.327 114.03 119.875 114.42 119.436C114.684 119.134 114.949 118.846 115.251 118.582C115.44 118.419 115.817 118.281 116.182 118.143C116.786 117.917 117.478 117.653 118.032 117.113C118.536 116.624 118.85 116.034 119.14 115.519C119.341 115.142 119.543 114.791 119.757 114.552C120.021 114.264 120.31 113.987 120.587 113.711C121.015 113.297 121.468 112.87 121.871 112.368C122.123 112.054 122.412 111.778 122.702 111.489C123.13 111.075 123.57 110.636 123.948 110.108C124.325 109.581 124.59 109.029 124.854 108.489C125.03 108.125 125.206 107.761 125.42 107.422C125.785 106.832 125.974 106.204 126.15 105.639C126.276 105.237 126.389 104.848 126.54 104.56C126.666 104.321 126.956 104.057 127.27 103.781C127.736 103.354 128.265 102.877 128.592 102.199L128.856 101.672C129.221 100.932 129.586 100.191 129.901 99.4377L130.216 98.6845C130.505 97.994 130.807 97.3036 131.059 96.6005C131.298 95.9226 131.311 95.2448 131.323 94.6422C131.323 94.2153 131.336 93.8136 131.424 93.5249C131.6 92.8972 131.713 92.2821 131.827 91.6795C131.89 91.3029 131.965 90.9263 132.053 90.5497C132.116 90.2609 132.305 89.9094 132.506 89.5454C132.796 89.0181 133.11 88.4156 133.236 87.7C133.35 87.0346 133.324 86.3944 133.299 85.8169C133.287 85.3901 133.261 84.9884 133.299 84.6369C133.337 84.2854 133.45 83.8837 133.576 83.4694C133.74 82.917 133.916 82.3019 133.954 81.6366C134.017 80.5695 134.054 79.5401 134.054 78.586C134.054 77.5441 134.054 76.5272 134.004 75.5229C133.954 74.481 133.84 73.4516 133.74 72.4724C133.702 72.1083 133.677 71.7443 133.639 71.3676C133.589 70.74 133.538 70.0746 133.438 69.4218C133.324 68.769 133.11 68.1916 132.896 67.6266C132.745 67.2249 132.594 66.8483 132.519 66.4843C132.431 66.1077 132.368 65.7185 132.305 65.3293C132.204 64.7267 132.104 64.1116 131.927 63.4965C131.739 62.8563 131.462 62.3164 131.185 61.7766C130.983 61.4 130.795 61.036 130.681 60.697C130.467 60.0819 130.19 59.5421 129.926 59.0148C129.75 58.6633 129.561 58.3118 129.41 57.9478C129.297 57.6716 129.259 57.2824 129.209 56.8681C129.146 56.2656 129.07 55.5751 128.756 54.9098C128.441 54.257 127.95 53.7674 127.51 53.328C127.208 53.0267 126.931 52.7505 126.792 52.4995C126.616 52.1856 126.49 51.809 126.339 51.4073C126.15 50.8675 125.936 50.2649 125.571 49.6874C125.357 49.3485 125.181 48.9844 125.005 48.6204C124.753 48.0806 124.476 47.5282 124.111 47.0009C123.671 46.3733 123.042 45.9966 122.5 45.6577C122.161 45.4568 121.808 45.2434 121.657 45.0426C121.405 44.7287 121.191 44.4023 120.977 44.0634C120.65 43.5738 120.323 43.0591 119.882 42.582C119.203 41.8288 118.536 41.0756 117.818 40.36C117.541 40.0839 117.277 39.77 117.025 39.4687C116.635 39.0168 116.245 38.5523 115.754 38.1129C115.276 37.6736 114.747 37.3597 114.256 37.0333C113.917 36.8199 113.577 36.6065 113.262 36.3554C113.036 36.1671 112.796 35.8533 112.557 35.5018C112.205 34.9996 111.802 34.4347 111.211 34.0079C110.657 33.6062 110.028 33.3802 109.486 33.1668C109.084 33.0161 108.706 32.8655 108.417 32.6897C108.14 32.514 107.863 32.3382 107.598 32.1499C107.019 31.7733 106.453 31.3967 105.849 31.0578L105.723 30.9824C104.88 30.518 104.037 30.0409 103.156 29.6266C102.488 29.3003 101.796 29.0241 101.104 28.7479L100.349 28.434C100.034 28.3085 99.6944 28.0825 99.3419 27.844C98.8511 27.5176 98.2973 27.1536 97.6554 26.9276C97.0261 26.7142 96.3968 26.551 95.7801 26.4004C95.4151 26.3125 95.0501 26.2246 94.6977 26.1116C94.0684 25.9359 93.4642 25.8731 92.8727 25.8103C92.4448 25.7727 92.0294 25.7225 91.6644 25.6471C90.6827 25.4212 89.6758 25.2329 88.6689 25.0571C88.0271 24.9441 87.3978 24.9065 86.7936 24.8814C86.4035 24.8562 86.0133 24.8437 85.6357 24.7935L85.3714 24.7684C84.4526 24.6554 83.5338 24.555 82.615 24.5047C82.2375 24.4796 81.8473 24.4043 81.4194 24.329C80.8404 24.216 80.2363 24.103 79.5818 24.103C78.9147 24.103 78.3106 24.216 77.7191 24.329C77.3037 24.4043 76.901 24.4796 76.536 24.5047C75.8815 24.5424 75.2774 24.6554 74.6984 24.7684C74.3082 24.8437 73.9181 24.919 73.5279 24.9567C73.2384 24.9818 72.8482 24.919 72.4455 24.8311C71.8414 24.7182 71.1491 24.5801 70.4191 24.7056C69.7521 24.8186 69.1228 24.9818 68.506 25.145C68.1536 25.2329 67.8012 25.3333 67.4362 25.4086C66.7314 25.5718 66.1524 25.9108 65.6364 26.212C65.2714 26.4255 64.9316 26.6263 64.6295 26.7142C64.34 26.8021 63.9373 26.8021 63.5094 26.8146C62.9052 26.8146 62.2256 26.8397 61.5459 27.0657C61.2187 27.1787 60.8915 27.2791 60.5516 27.3921C59.9097 27.593 59.2679 27.8064 58.6511 28.0574C58.047 28.3085 57.5184 28.6224 57.0024 28.9362C56.6625 29.1496 56.3101 29.3505 55.9577 29.5262C55.6305 29.6894 55.2403 29.815 54.825 29.9405C54.2586 30.1288 53.667 30.3171 53.0881 30.6309C52.5091 30.9448 52.0309 31.3339 51.5652 31.7106C51.2505 31.9616 50.9359 32.2253 50.596 32.4387C50.0045 32.8027 49.564 33.2923 49.1612 33.7317C48.8718 34.0455 48.6074 34.3468 48.3431 34.5351C48.0914 34.7109 47.7264 34.849 47.3237 34.9871C46.7573 35.1879 46.1154 35.4264 45.549 35.8784C45.2344 36.1169 44.9197 36.3429 44.5799 36.5688C44.0765 36.9078 43.5604 37.2718 43.0822 37.6987C42.5284 38.1883 42.2011 38.8034 41.9116 39.3306C41.7103 39.6947 41.5215 40.0462 41.3201 40.2471C41.0432 40.5232 40.7286 40.7743 40.4139 41.0254C39.9482 41.402 39.4699 41.7786 39.042 42.2682C38.5889 42.7704 38.2743 43.3353 37.9974 43.8249C37.7834 44.2015 37.5946 44.553 37.3681 44.8292C37.1415 45.1053 36.8395 45.3815 36.5248 45.6703C36.1095 46.0469 35.6312 46.4862 35.241 47.0261C34.8257 47.6035 34.4481 48.2061 34.0831 48.8212L33.6048 49.587C33.4286 49.8632 33.1517 50.1394 32.8497 50.4407C32.4343 50.8549 31.9561 51.332 31.6162 51.9471C31.2638 52.5748 30.9618 53.2276 30.6471 53.8804L30.2569 54.6964C29.829 55.5751 29.3759 56.5166 28.9857 57.4707C28.734 58.0858 28.6207 58.7261 28.5201 59.291C28.4445 59.7178 28.369 60.1195 28.2557 60.4585C28.0418 61.0862 27.9537 61.6888 27.8782 62.2788C27.8278 62.7056 27.7775 63.1073 27.6642 63.4463C27.5635 63.7727 27.3873 64.1242 27.1985 64.5008C26.9342 65.0155 26.6321 65.593 26.4811 66.2709C26.3301 66.9236 26.3427 67.5764 26.3427 68.1413C26.3427 68.5682 26.3427 68.9699 26.2923 69.3214C26.2294 69.7106 26.1287 70.0872 26.0406 70.4763C25.9022 71.0538 25.7637 71.6564 25.6882 72.2966C25.6504 72.6481 25.5372 73.0373 25.4113 73.4516C25.2477 74.0039 25.0589 74.619 25.0211 75.2844C24.9834 75.9497 25.0715 76.59 25.1596 77.1549C25.2225 77.5817 25.2854 77.9709 25.2854 78.3349C25.2854 78.9877 25.3609 79.6029 25.4365 80.1929C25.4868 80.5821 25.5372 80.9712 25.5623 81.3604C25.5749 81.6366 25.4742 82.0132 25.3609 82.4149C25.1973 83.0175 24.996 83.6954 25.0841 84.4486C25.1596 85.0888 25.3106 85.6914 25.4742 86.2689C25.5749 86.658 25.6882 87.0472 25.7511 87.4364C25.8644 88.1143 26.1287 88.7168 26.3678 89.2441C26.544 89.6332 26.7077 89.9973 26.7832 90.3237C26.8587 90.6375 26.8461 91.0267 26.8335 91.4535C26.8209 92.0436 26.7958 92.7215 26.9971 93.4119C27.1733 94.0396 27.4251 94.6045 27.6642 95.1569C27.8278 95.5209 27.9789 95.885 28.1173 96.2616C28.3313 96.8767 28.6333 97.4165 28.9102 97.9312C29.099 98.2827 29.3004 98.6342 29.4514 98.9983C29.6025 99.3498 29.7283 99.7139 29.8542 100.065C30.0556 100.643 30.2695 101.233 30.559 101.823C30.8611 102.438 31.2009 103.028 31.5407 103.618C31.7043 103.907 31.868 104.183 32.0316 104.472C32.2078 104.786 32.3462 105.162 32.4973 105.564C32.6986 106.091 32.9126 106.706 33.2776 107.259L33.6929 107.924C34.0831 108.564 34.4859 109.204 34.9264 109.82C35.1529 110.146 35.3669 110.485 35.5683 110.836C35.8703 111.351 36.1976 111.878 36.6003 112.393C37.0786 112.996 37.7331 113.335 38.2994 113.636C38.6519 113.824 39.0168 114.013 39.1805 114.201C39.3944 114.439 39.5706 114.791 39.7594 115.167C40.0363 115.695 40.3384 116.297 40.8418 116.799C41.3075 117.264 41.8235 117.615 42.3144 117.942C42.6668 118.18 43.0066 118.406 43.2835 118.645C43.5604 118.896 43.8121 119.197 44.1016 119.524C44.4918 119.976 44.8945 120.44 45.398 120.854C45.9014 121.256 46.43 121.582 46.9461 121.896C47.2859 122.11 47.6257 122.311 47.9404 122.536C48.2173 122.737 48.4942 122.938 48.7585 123.139C49.2997 123.541 49.8409 123.942 50.4198 124.307C50.7345 124.507 51.0491 124.758 51.3764 125.035C51.8421 125.411 52.3203 125.813 52.8993 126.127C53.5412 126.478 54.2334 126.591 54.8376 126.692C55.2529 126.755 55.6431 126.817 55.9074 126.943C56.2598 127.119 56.5996 127.319 56.9394 127.52C57.4555 127.822 57.9841 128.135 58.5756 128.386C58.9406 128.537 59.2804 128.713 59.6329 128.889C60.1741 129.152 60.7404 129.428 61.3571 129.654L62.1501 129.943C62.8423 130.194 63.5345 130.445 64.2519 130.646C64.9316 130.847 65.5987 130.834 66.2028 130.822C66.6307 130.822 67.0209 130.809 67.3355 130.872L67.99 131.023C68.7452 131.199 69.5129 131.374 70.2933 131.512C70.6583 131.575 71.0484 131.701 71.4512 131.826C72.0176 132.002 72.5965 132.19 73.2384 132.266C73.6286 132.316 74.0187 132.379 74.4089 132.454C75.0005 132.554 75.6172 132.667 76.2591 132.705C76.3975 132.705 76.5234 132.705 76.6492 132.705C77.1653 132.705 77.6435 132.655 78.1218 132.592C78.512 132.542 78.9021 132.504 79.2923 132.504C79.6321 132.479 79.9971 132.504 80.3495 132.529C81.0166 132.554 81.6837 132.567 82.3507 132.529C83.0304 132.492 83.6974 132.404 84.3645 132.316C84.7043 132.266 85.0442 132.228 85.3714 132.19C86.0259 132.115 86.6552 131.989 87.2467 131.851C87.6117 131.776 87.9767 131.688 88.3543 131.625L88.6438 131.575C89.55 131.424 90.4436 131.274 91.3372 131.073C91.6518 130.998 92.042 130.998 92.4825 130.998C93.0867 130.998 93.7411 130.998 94.4082 130.809C94.7732 130.709 95.1634 130.621 95.541 130.533C96.1451 130.395 96.7618 130.257 97.3785 130.044C98.0078 129.83 98.5364 129.504 99.0525 129.19C99.4175 128.964 99.7699 128.763 100.11 128.625C100.739 128.361 101.356 128.06 101.972 127.746C102.262 127.596 102.564 127.445 102.853 127.307C103.206 127.144 103.571 126.993 103.923 126.842C104.49 126.616 105.069 126.378 105.635 126.064C106.264 125.713 106.881 125.323 107.498 124.934L107.535 124.884Z" fill="#E57333"/>
<path d="M134.948 124.871C134.822 124.67 134.709 124.482 134.596 124.281C134.029 123.302 133.199 122.674 132.456 122.109C132.28 121.971 132.091 121.833 131.915 121.695C131.713 121.532 131.537 121.369 131.348 121.206C130.644 120.578 129.838 119.862 128.718 119.599C127.925 119.41 127.182 119.548 126.591 119.674C126.339 119.724 126.1 119.774 125.848 119.787L125.332 119.812C124.627 119.837 123.897 119.875 123.117 120.113C122.84 120.189 122.551 120.239 122.274 120.277C121.695 120.364 121.04 120.465 120.411 120.779C120.008 120.98 119.82 121.319 119.719 121.595C119.266 121.883 119.014 122.097 118.775 122.285C118.511 122.499 118.297 122.674 117.768 123.001C117.428 123.214 117.265 123.214 116.937 123.239C116.472 123.264 115.842 123.315 114.974 123.842C114.282 124.269 113.942 124.557 113.652 124.808C113.401 125.022 113.187 125.21 112.683 125.524C111.915 125.988 111.563 126.378 111.299 126.691C111.085 126.943 110.934 127.106 110.506 127.369C109.927 127.721 109.725 127.759 109.323 127.859C108.995 127.934 108.618 128.022 108.039 128.236C107.699 128.361 107.435 128.436 107.196 128.499C106.227 128.775 105.585 129.039 104.804 130.219C103.621 132.039 105.043 133.094 105.66 133.558C106.038 133.835 106.428 134.136 106.705 134.588C106.906 134.914 107.082 135.341 107.271 135.793C107.51 136.345 107.775 136.986 108.14 137.588C108.467 138.128 108.857 138.605 109.222 139.069C109.562 139.484 109.877 139.885 110.116 140.275C110.506 140.927 111.009 141.442 111.45 141.907C111.777 142.246 112.092 142.572 112.268 142.861C113.111 144.254 113.3 145.509 113.313 145.522C113.338 145.698 113.388 145.861 113.476 145.999C113.589 146.187 113.841 146.602 114.71 146.602C115.427 146.602 116.585 146.325 118.435 145.396C119.656 144.794 120.638 143.827 121.116 143.363C121.154 143.325 121.191 143.287 121.229 143.25C121.569 143.074 121.934 142.936 122.286 142.798C122.84 142.572 123.419 142.346 123.986 142.02C124.59 141.668 125.081 141.216 125.508 140.814C125.836 140.513 126.15 140.224 126.465 140.024C126.78 139.81 127.157 139.634 127.56 139.459C128.101 139.208 128.718 138.919 129.272 138.505C129.926 138.002 130.543 137.475 131.134 136.948L131.701 136.446C131.902 136.283 132.192 136.119 132.494 135.944C133.047 135.63 133.664 135.278 134.155 134.688C134.923 133.747 135.439 132.667 135.741 131.926C136.244 130.684 136.433 129.19 136.244 127.834C136.093 126.704 135.489 125.737 134.961 124.884L134.948 124.871Z" fill="#E57333"/>
<path d="M59.9223 134.211C59.7209 134.161 59.4692 134.086 59.142 133.935C58.7518 133.759 58.6637 133.647 58.4498 133.383C58.1854 133.044 57.8204 132.579 56.9898 132.128C56.1968 131.701 55.6808 131.6 55.2655 131.525C54.9382 131.462 54.7243 131.425 54.2838 131.173C53.5664 130.784 53.151 130.646 52.786 130.521C52.4714 130.42 52.2071 130.332 51.6784 130.044C51.326 129.855 51.2379 129.73 51.0491 129.454C50.7848 129.064 50.4324 128.537 49.5388 128.06C48.834 127.684 48.4438 127.533 48.0914 127.407C47.7768 127.294 47.4999 127.194 46.9587 126.893C46.5811 126.692 46.2035 126.704 45.9266 126.78C45.8007 126.704 45.6875 126.629 45.5616 126.541C45.0582 126.215 44.5044 125.851 43.787 125.675L43.2458 125.537C42.5409 125.349 41.748 125.135 40.9425 125.123C40.1244 125.123 39.407 125.399 38.7777 125.65C38.5386 125.75 38.2994 125.838 38.0729 125.913L37.5946 126.052C36.5374 126.34 35.3543 126.667 34.3977 127.508C33.5545 128.261 33.0384 129.303 32.5979 130.207C32.4972 130.408 32.4091 130.596 32.3085 130.784C31.7673 131.826 31.6917 132.931 31.6288 133.898C31.6288 134.098 31.6036 134.299 31.5911 134.5C31.4652 135.931 31.654 137.086 32.1952 138.254C32.6483 139.233 33.2398 139.936 33.9195 140.689C34.0957 140.89 34.2593 141.166 34.4481 141.455C34.7627 141.982 35.1277 142.572 35.7193 143.037C36.3738 143.551 37.0408 143.991 37.6953 144.43L38.3372 144.87C38.6518 145.083 38.9665 145.372 39.3063 145.673C39.772 146.1 40.2503 146.539 40.8544 146.891C41.446 147.242 42.0627 147.443 42.6542 147.644C43.0821 147.782 43.4975 147.92 43.8247 148.096C44.2023 148.297 44.5547 148.523 44.9197 148.761C45.4357 149.088 45.9644 149.439 46.5559 149.715C46.7825 149.816 46.9838 149.841 47.3488 149.891C47.9152 149.966 48.9724 150.092 49.8535 150.481C50.6086 150.807 51.2883 151.209 51.7791 151.498C52.3203 151.812 52.6727 152.025 53.0755 152.025C53.1888 152.025 53.302 152.013 53.4279 151.975C53.5915 151.925 53.7426 151.849 53.881 151.749C53.9313 151.699 55.2781 150.657 56.3227 148.736C56.6122 148.196 56.7884 147.619 56.9394 147.041C57.0905 146.501 57.2415 145.999 57.468 145.585C57.7701 145.033 57.9841 144.455 58.198 143.903C58.3868 143.401 58.563 142.936 58.7896 142.535C59.0413 142.07 59.3811 141.618 59.7084 141.179C60.0482 140.727 60.388 140.262 60.6649 139.773C60.9166 139.308 61.2061 139.082 61.5208 138.844C61.999 138.48 63.2576 137.513 61.9739 135.73C61.2061 134.676 60.6649 134.463 59.9097 134.249L59.9223 134.211Z" fill="#E57333"/>
<path d="M158.987 76.8912V76.3012C158.987 75.1086 158.635 74.0415 158.295 72.9995C158.194 72.6983 158.144 72.3844 158.081 72.058C157.943 71.2922 157.792 70.426 157.238 69.6728C156.684 68.9196 155.916 68.4928 155.224 68.1162C154.947 67.9655 154.658 67.8149 154.419 67.6266C153.361 66.8608 152.417 66.3586 151.448 66.0448L151.285 65.9946C150.353 65.6933 149.296 65.3418 148.113 65.3418H147.773C146.791 65.3418 145.671 65.3418 144.639 65.6682C143.733 65.9569 143.104 66.6097 142.588 67.137C142.349 67.388 142.109 67.6266 141.895 67.7772C141.707 67.9153 141.518 68.0408 141.329 68.1664C140.662 68.6183 139.894 69.133 139.315 69.9239C138.762 70.6897 138.069 71.7065 137.679 72.9117C137.339 73.9662 137.339 75.0332 137.339 76.0752V76.2886C137.339 76.5271 137.339 76.7656 137.327 77.0042C137.302 77.8453 137.264 78.7868 137.566 79.7032C137.868 80.6322 138.447 81.3603 138.963 81.988C139.114 82.1888 139.278 82.3771 139.416 82.578C139.592 82.8291 139.743 83.1053 139.907 83.394C140.284 84.0719 140.712 84.8502 141.468 85.4026C142.235 85.9549 143.154 86.0303 143.884 86.093C144.262 86.1181 144.614 86.1558 144.866 86.2311L145.256 86.3567C146.124 86.6454 147.018 86.9467 148.1 86.9467C149.384 86.9467 150.441 86.796 151.423 86.4822C151.662 86.4069 151.914 86.3316 152.153 86.2688C152.946 86.0554 153.84 85.8043 154.62 85.2394C155.426 84.6619 156.193 83.8459 156.999 82.7412C157.653 81.8373 158.333 80.8581 158.698 79.7283C159.013 78.7742 158.987 77.7699 158.975 76.8786L158.987 76.8912Z" fill="#E57333"/>
<path d="M21.6606 88.3153C21.6606 87.1227 21.3208 86.0682 21.0062 85.1392L20.9684 85.0137C20.8677 84.7124 20.8174 84.3986 20.7544 84.0722C20.616 83.3064 20.465 82.4402 19.9112 81.687C19.3574 80.9338 18.5896 80.5069 17.8974 80.1303C17.6205 79.9797 17.331 79.829 17.0919 79.6407C16.0347 78.875 15.0907 78.3728 14.1216 78.059L13.9579 78.0087C13.0266 77.7075 11.9568 77.356 10.7863 77.356H10.459C9.46472 77.356 8.35714 77.356 7.32508 77.6824C6.41888 77.9711 5.81475 78.5988 5.27355 79.1511C5.03441 79.4022 4.79528 79.6407 4.58131 79.8039C4.39252 79.942 4.20373 80.0676 4.01494 80.1931C3.34788 80.645 2.58013 81.1597 2.01375 81.9506C1.45997 82.7038 0.767731 83.7332 0.377563 84.9384C0.0377383 85.9929 0.0377383 87.0725 0.0377383 88.1019V88.3153C0.0377383 88.5538 0.0377383 88.7924 0.0251522 89.0309C-1.99862e-05 89.872 -0.0377782 90.8135 0.264288 91.7299C0.566354 92.6589 1.14531 93.3745 1.66134 94.0147C1.81238 94.2156 1.976 94.4039 2.12703 94.6047C2.30323 94.8558 2.45427 95.132 2.61789 95.4207C2.99547 96.0986 3.42339 96.8769 4.17856 97.4293C4.94631 97.9817 5.86509 98.057 6.59509 98.1198C6.97267 98.1449 7.32508 98.1825 7.5768 98.2578L7.95438 98.3834C8.82282 98.6721 9.71644 98.9734 10.8114 98.9734C12.0952 98.9734 13.1524 98.8228 14.1342 98.5089C14.3733 98.4336 14.625 98.3583 14.8641 98.2955C15.6571 98.0821 16.5507 97.831 17.331 97.2661C18.1365 96.6761 18.8917 95.8852 19.7098 94.7679C20.3643 93.864 21.0439 92.8849 21.4089 91.755C21.7236 90.8009 21.6984 89.7967 21.6858 88.9053V88.3153H21.6606Z" fill="#E57333"/>
<path d="M99.3042 8.92567C99.3042 8.5114 99.3168 8.09713 99.3545 7.68285C99.43 6.61579 99.493 5.53617 99.5181 4.46911C99.5559 3.38949 99.5433 2.32243 99.5433 1.25537C99.5433 0.552362 98.9895 0 98.2721 0C97.5799 0 97.0135 0.564916 97.0135 1.25537C97.0135 1.78262 96.5856 2.39775 96.0192 2.69904C95.5409 2.95012 94.748 3.11331 93.9928 3.27651L93.4642 3.38949C92.9482 3.50248 92.3692 3.55269 91.8154 3.61546C91.4127 3.65312 91.0225 3.69078 90.6449 3.75355C90.2925 3.80377 89.9653 3.84143 89.6506 3.89164C88.8451 3.99207 88.1403 4.07995 87.5613 4.28081C87.2467 4.39379 86.932 4.48166 86.6048 4.58209C85.9126 4.79551 85.1952 5.02147 84.4903 5.33531C84.1379 5.49851 83.7604 5.62405 83.3954 5.76214C82.7661 5.98811 82.099 6.21407 81.4697 6.57813C80.8152 6.95474 80.3244 7.48199 79.8838 7.95903C79.5818 8.27288 79.3049 8.57416 79.028 8.77502C78.7133 9.00099 78.3609 9.1893 78.0085 9.39015C77.4295 9.71655 76.8254 10.0429 76.2842 10.5325C75.7304 11.0221 75.2773 11.5745 74.8368 12.1143C74.5977 12.403 74.3711 12.6918 74.1194 12.968C73.3894 13.7588 72.7475 14.625 72.1056 15.5038C71.5015 16.3072 71.0232 17.1609 70.5576 17.9894L70.4065 18.2656C70.2555 18.5418 70.0289 18.818 69.8024 19.1067C69.3996 19.6214 68.9465 20.1989 68.6948 20.927C68.4305 21.7053 68.4808 22.4585 68.5312 23.1239C68.5564 23.4879 68.5815 23.8269 68.5312 24.0905C68.4934 24.3667 68.3802 24.6931 68.2417 25.0446C68.0152 25.6597 67.7634 26.3502 67.7886 27.1411C67.8138 28.0449 67.9145 29.0492 68.1033 30.1916C68.2165 30.9197 68.5689 31.5097 68.871 32.037C69.0724 32.3885 69.2738 32.7149 69.3367 32.9785C69.4122 33.3049 69.4877 33.6439 69.5507 33.9703C69.6765 34.5854 69.815 35.2005 69.9912 35.8157C70.4694 37.523 70.9351 39.1298 72.6972 39.6822C72.9237 39.7575 73.1503 39.8077 73.402 39.8454C74.1949 39.9709 75.1011 39.9082 76.2465 39.6822C77.4044 39.4562 78.4994 39.0922 79.4056 38.7783C79.758 38.6528 80.1356 38.5775 80.5131 38.4896C81.1676 38.3515 81.8976 38.1883 82.5898 37.8368C83.2695 37.4853 83.8233 36.9957 84.3141 36.5563C84.6288 36.2801 84.9183 36.0165 85.2077 35.8157C85.837 35.3888 86.3279 34.8867 86.7936 34.3971C87.0579 34.1335 87.3096 33.8573 87.5991 33.6188C87.8257 33.4179 88.1906 33.2547 88.5808 33.0664C89.1975 32.7777 89.8898 32.4513 90.431 31.8612C90.947 31.2963 91.3246 30.6812 91.6896 30.0912C91.891 29.7773 92.0798 29.4509 92.2937 29.1496C92.7342 28.5345 93.0111 27.8566 93.2628 27.254C93.4265 26.8649 93.5775 26.5008 93.7537 26.187C93.9173 25.8857 94.2068 25.5844 94.4963 25.258C94.9368 24.7684 95.4276 24.2286 95.7423 23.513C96.1576 22.5715 96.4849 21.6049 96.7995 20.6759L96.8876 20.4374C97.1142 19.7469 97.1771 19.0439 97.24 18.4288C97.2778 17.9894 97.3156 17.5626 97.4037 17.1985C97.5044 16.7968 97.6554 16.3951 97.7938 16.0059C98.0078 15.4034 98.2343 14.7882 98.3602 14.0852C98.4231 13.6961 98.5616 13.2818 98.7126 12.8424C98.914 12.2398 99.1154 11.6122 99.1909 10.9217C99.279 10.2438 99.2916 9.57846 99.3042 8.92567Z" fill="#5EA352"/>
<path d="M78.0086 69.8614C77.9331 70.8155 77.7443 71.6566 77.5303 72.46C77.48 72.686 77.417 72.9119 77.3541 73.1253C77.0143 74.3933 76.5234 75.3724 76.0452 76.2512C75.8815 76.5525 75.7557 76.8789 75.6298 77.2053C75.3403 77.9083 75.0257 78.7117 74.3712 79.3394C73.4147 80.2935 72.4204 80.9965 71.4135 81.461C70.2933 81.9757 69.0599 82.051 67.9775 82.1263H67.8516C67.5621 82.164 67.2853 82.1765 67.0084 82.1765C66.0266 82.1765 65.133 82.0384 64.2646 81.7874C63.006 81.4108 61.9739 80.7203 61.1307 80.0926C60.2622 79.4524 59.4693 78.6364 58.7015 77.5944C58.11 76.8036 57.4429 75.8495 56.9395 74.6569C56.8136 74.3556 56.65 74.0669 56.4864 73.7656C56.1214 73.1253 55.7186 72.3847 55.5298 71.5185C55.3536 70.7401 55.4921 69.9744 55.6179 69.309C55.706 68.8696 55.7816 68.4554 55.7564 68.1039C55.7312 67.7524 55.6054 67.3381 55.4795 66.9238C55.2781 66.271 55.0642 65.5429 55.1145 64.7646L55.1649 64.0616C55.2278 63.1452 55.2907 62.2036 55.5298 61.3249C55.7816 60.3833 56.4235 59.718 56.9269 59.1782C57.1912 58.8895 57.4429 58.6258 57.5688 58.4124C58.11 57.3956 58.7519 56.567 59.6203 55.7008C59.8343 55.5 60.0357 55.2238 60.2622 54.9225C60.7405 54.2823 61.2817 53.5541 62.1753 53.1524C63.0815 52.7381 64.0003 52.7884 64.8184 52.826C65.1456 52.8386 65.4729 52.8637 65.7875 52.8386C66.077 52.826 66.3539 52.7758 66.6308 52.7381C67.4615 52.6252 68.3928 52.4996 69.362 52.7884C70.3185 53.0771 70.9856 53.6797 71.5771 54.2195C71.8162 54.4329 72.0428 54.6338 72.2945 54.8221C72.5336 55.0104 72.8105 55.1485 73.0874 55.2991C73.7671 55.6883 74.5348 56.1151 75.1264 56.906C75.6802 57.6466 76.02 58.4877 76.3472 59.3037C76.4353 59.5422 76.536 59.7808 76.6367 60.0193C76.8003 60.3959 76.9514 60.7851 77.0772 61.2119C77.2786 61.8019 77.4548 62.4673 77.631 63.2456C77.7946 64.0114 77.8072 64.7646 77.8198 65.4927C77.8198 65.8316 77.8198 66.1957 77.8576 66.5598C77.8827 66.8359 77.9079 67.0996 77.9205 67.3632C77.996 68.1792 78.0715 69.0077 78.0086 69.8614Z" fill="white"/>
<path d="M78.0086 69.8614C77.9331 70.8155 77.7443 71.6566 77.5303 72.46C77.266 72.7111 77.0017 72.9371 76.75 73.1505C75.957 73.8158 75.0508 74.5189 73.9558 74.8076C73.7167 74.8829 73.4524 74.9331 73.1881 74.9457H72.8986C71.5771 74.9457 70.3814 74.318 69.3745 73.6903C68.5312 73.1631 67.2349 72.3596 66.5426 71.0791C66.0392 70.1627 66.014 69.1208 66.0014 68.2169C66.0014 67.9407 66.0014 67.652 65.9763 67.3884C65.8882 66.0577 66.2532 64.9781 66.6559 63.8984C67.1342 62.6305 67.7635 61.7141 68.6949 60.9358C68.8207 60.8228 68.9592 60.7098 69.085 60.5968C69.8276 59.944 70.7464 59.1155 72.0679 59.0276C72.5588 58.9899 73.0497 59.0276 73.5531 59.1531C74.2831 59.3289 75.0383 59.6678 75.8438 60.17C76.2969 60.4462 76.6996 60.7977 77.0772 61.2119C77.2786 61.802 77.4548 62.4673 77.631 63.2456C77.7946 64.0114 77.8072 64.7646 77.8198 65.4927C77.8198 65.8317 77.8198 66.1958 77.8575 66.5598C77.8827 66.836 77.9079 67.0996 77.9205 67.3632C77.996 68.1792 78.0715 69.0078 78.0086 69.8614Z" fill="#231F20"/>
<path d="M103.407 67.3253C103.382 67.5763 103.357 67.8274 103.344 68.0659C103.307 68.4425 103.307 68.794 103.307 69.1455C103.294 69.6854 103.294 70.2126 103.218 70.765C103.181 70.9909 103.143 71.2169 103.08 71.4429C102.828 72.3718 102.363 73.1 101.96 73.7528C101.796 73.9913 101.645 74.2298 101.507 74.4809C100.94 75.5354 100.399 76.4643 99.5559 77.3054C99.3294 77.5189 99.128 77.7699 98.914 78.021C98.3854 78.6612 97.7939 79.3768 96.9003 79.7911C95.9941 80.2053 95.0753 80.1175 94.2572 80.0421C93.8922 80.0045 93.5398 79.9794 93.2503 79.9919L92.6839 80.0421C92.2434 80.0798 91.8029 80.1175 91.3624 80.1175C90.8338 80.1175 90.2926 80.0673 89.7388 79.9041C88.606 79.5651 87.6747 78.9751 86.6426 78.2093C86.4664 78.0838 86.2776 77.9457 86.0888 77.8201C85.384 77.3306 84.5911 76.7782 83.9618 75.9371C83.345 75.096 82.7661 74.0791 82.2752 72.9117L82.0109 72.3216C81.6711 71.5559 81.2809 70.6896 81.067 69.7105C80.8908 68.9572 80.9789 68.2166 81.067 67.5512C81.1173 67.1119 81.1677 66.6976 81.1425 66.321C81.1173 65.9695 80.9914 65.5677 80.853 65.1409C80.6642 64.4881 80.4377 63.76 80.5006 62.9817C80.5761 61.9648 80.8404 61.0233 81.0796 60.1948L81.2432 59.6173C81.5201 58.6005 82.0109 57.7342 82.4389 56.981L82.7157 56.4789C83.2569 55.4871 83.9492 54.5833 84.8428 53.7045C85.7742 52.7881 86.8188 52.2985 87.8383 51.8466C88.0522 51.7461 88.2662 51.6332 88.4928 51.5202C89.2605 51.131 90.1289 50.6791 91.1988 50.6038C92.2686 50.5284 93.1496 50.8548 93.9551 51.1436C94.1943 51.2314 94.446 51.3319 94.6977 51.4072C94.9746 51.4825 95.2641 51.5327 95.5661 51.5955C96.3716 51.7587 97.2904 51.9344 98.1211 52.537C99.0021 53.1898 99.644 54.0811 100.273 54.9348L100.475 55.1984C100.626 55.3993 100.777 55.6001 100.94 55.801C101.456 56.4412 102.048 57.1819 102.438 58.0983C102.715 58.7385 102.841 59.4039 102.929 60.0692C102.929 60.1571 102.954 60.2575 102.967 60.3454C103.017 60.7095 103.067 61.0861 103.156 61.4501C103.37 62.3917 103.432 63.3457 103.495 64.35L103.521 64.7643C103.583 65.6933 103.495 66.5595 103.42 67.3253H103.407Z" fill="white"/>
<path d="M79.8209 90.9264C79.0154 90.9264 78.298 90.8511 77.5931 90.6502C76.473 90.3238 75.0759 89.7966 74.1823 88.6918C73.0244 87.2482 72.8734 86.9092 72.8356 85.3275V84.9257C72.7978 84.2353 73.339 83.6453 74.0313 83.6202C74.7235 83.5574 75.3151 84.1349 75.3402 84.8253V85.2396C75.3654 85.8505 75.6339 86.474 76.1457 87.1101C76.4982 87.5495 77.1778 87.901 78.3106 88.2399C79.028 88.4533 79.9216 88.4408 81.0417 88.3654C81.9857 88.3027 82.5395 88.0265 83.1688 87.5871C83.9365 87.0473 84.3141 86.4824 84.6288 85.8045L84.7546 85.5409C85.0483 84.9132 85.2077 84.3064 85.2329 83.7206V83.3691C85.2832 82.6786 85.8748 82.1263 86.5544 82.1639C87.2467 82.189 87.7879 82.7791 87.7627 83.4695V83.821C87.6998 85.1266 87.662 85.2898 87.0453 86.5954L86.9194 86.859C86.3531 88.0642 85.6482 88.9178 84.6288 89.6334C83.8107 90.2108 82.829 90.7506 81.2179 90.8636C80.7145 90.9013 80.2488 90.9264 79.8083 90.9264H79.8209Z" fill="#231F20"/>
<path d="M49.8786 85.4406C49.9919 85.3401 50.1052 85.2397 50.3569 85.064C50.7219 84.8254 50.8981 84.6999 51.0743 84.5618C51.2253 84.4488 51.3764 84.3484 51.6784 84.1475C52.2574 83.7709 52.421 82.9926 52.0434 82.4151C51.6658 81.8377 50.8855 81.6619 50.3066 82.0511C49.9416 82.2896 49.7653 82.4151 49.5891 82.5532C49.4381 82.6662 49.2871 82.7666 48.985 82.9675C48.5571 83.2437 48.3683 83.4194 48.1795 83.5826C48.0662 83.683 47.953 83.7835 47.7012 83.9592L46.3545 84.8505C46.1154 85.0012 45.9895 85.0514 45.8511 85.1142C45.6371 85.202 45.3602 85.315 44.9197 85.6038C44.3407 85.9804 44.1771 86.7587 44.5547 87.3362C44.7938 87.7002 45.1966 87.9011 45.6119 87.9011C45.8511 87.9011 46.0902 87.8383 46.2916 87.7002C46.5307 87.5496 46.6566 87.4868 46.795 87.4366C47.009 87.3487 47.2859 87.2357 47.7264 86.9595L49.0731 86.0682C49.4885 85.7921 49.6898 85.6289 49.8786 85.4531V85.4406Z" fill="#F7AAAA"/>
<path d="M54.9131 83.0931C54.6362 83.2814 54.4852 83.3567 54.3341 83.432C54.1202 83.5324 53.9062 83.6454 53.516 83.909C53.0378 84.2229 52.8112 84.474 52.6476 84.6497C52.5343 84.7752 52.484 84.838 52.2826 84.9636C52.0183 85.1393 51.8673 85.2021 51.7288 85.2648C51.5023 85.3653 51.2757 85.4783 50.873 85.7419C50.4954 85.993 50.3066 86.131 50.1304 86.2691C49.9919 86.3696 49.8535 86.4825 49.5514 86.6709C48.9725 87.0475 48.8088 87.8258 49.1864 88.4033C49.4256 88.7673 49.8283 88.9682 50.2437 88.9682C50.4828 88.9682 50.7219 88.9054 50.9233 88.7673C51.3009 88.5162 51.4771 88.3782 51.6659 88.2401C51.8043 88.1271 51.9428 88.0267 52.2448 87.8383C52.5091 87.6626 52.6476 87.5998 52.7986 87.5371C53.0252 87.4366 53.2517 87.3236 53.6545 87.06C54.1328 86.7462 54.3593 86.4951 54.5229 86.3068C54.6362 86.1813 54.6865 86.1185 54.8879 85.993C55.1648 85.8046 55.3158 85.7293 55.4669 85.654C55.6808 85.5536 55.8948 85.4406 56.285 85.1895C56.8639 84.8129 57.0401 84.0346 56.65 83.4571C56.2724 82.8796 55.4921 82.7039 54.9131 83.0931Z" fill="#F7AAAA"/>
<path d="M110.027 79.967C110.229 79.8541 110.43 79.7536 110.82 79.5026C111.097 79.3268 111.248 79.2515 111.399 79.1762C111.613 79.0757 111.827 78.9627 112.23 78.6991C112.809 78.3225 112.973 77.5442 112.595 76.9667C112.217 76.3892 111.437 76.226 110.858 76.6026C110.581 76.7784 110.43 76.8537 110.279 76.929C110.065 77.0295 109.851 77.1425 109.449 77.4061C109.159 77.5944 108.995 77.6823 108.844 77.7701C108.643 77.8831 108.442 77.9836 108.051 78.2346C107.674 78.4857 107.485 78.6238 107.309 78.7619C107.17 78.8623 107.032 78.9753 106.743 79.1636C106.315 79.4398 106.101 79.6406 105.937 79.7913C105.824 79.8917 105.723 79.9921 105.471 80.1553C104.892 80.5319 104.729 81.3103 105.106 81.8878C105.345 82.2518 105.748 82.4652 106.164 82.4652C106.403 82.4652 106.642 82.4024 106.843 82.2644C107.271 81.9882 107.485 81.7873 107.649 81.6241C107.762 81.5237 107.863 81.4233 108.114 81.2601C108.505 81.009 108.681 80.8709 108.857 80.7328C108.995 80.6324 109.134 80.5194 109.423 80.3311C109.713 80.1428 109.876 80.0549 110.027 79.9796V79.967Z" fill="#F7AAAA"/>
<path d="M117.164 77.9835C116.786 77.406 116.006 77.2303 115.427 77.6194L112.708 79.3769C112.52 79.5025 112.457 79.515 112.293 79.5652C111.991 79.6531 111.676 79.7661 111.223 80.0548C110.795 80.331 110.581 80.5319 110.418 80.6825C110.304 80.7829 110.204 80.8834 109.952 81.0466C109.373 81.4232 109.209 82.2015 109.587 82.779C109.826 83.143 110.229 83.3565 110.644 83.3565C110.883 83.3565 111.123 83.2937 111.324 83.1556C111.752 82.8794 111.966 82.6786 112.129 82.5279C112.243 82.4275 112.343 82.327 112.595 82.1639C112.784 82.0383 112.847 82.0258 113.01 81.9756C113.313 81.8877 113.627 81.7747 114.08 81.486L116.786 79.7284C117.365 79.3518 117.541 78.5735 117.151 77.996L117.164 77.9835Z" fill="#F7AAAA"/>
<path d="M103.407 67.3256C103.382 67.5767 103.357 67.8278 103.344 68.0663C103.307 68.4429 103.307 68.7944 103.307 69.1459C103.294 69.6857 103.294 70.213 103.218 70.7653C102.954 71.0917 102.677 71.3805 102.388 71.619C101.57 72.3094 100.525 72.6233 99.6062 72.7614C99.2412 72.8241 98.9014 72.8492 98.5993 72.8744C98.4609 72.8869 98.3099 72.8869 98.1714 72.8869C97.0135 72.8869 95.8556 72.548 94.8235 71.8952C93.804 71.2675 92.6209 70.5268 91.9539 69.3091C91.4379 68.3676 91.4001 67.288 91.3623 66.3339C91.3623 66.0828 91.3623 65.8443 91.3372 65.6183C91.2365 64.2751 91.4001 63.0699 91.8029 62.0029C92.2937 60.6973 93.2377 59.9064 94.0809 59.2034L94.4711 58.8644C95.2263 58.2117 96.1576 57.3957 97.5044 57.2952C98.1211 57.2576 98.6497 57.3831 99.128 57.584C99.1405 57.584 99.1405 57.5965 99.1405 57.5965C99.6692 57.8099 100.135 58.1363 100.538 58.4125C100.714 58.5255 100.877 58.651 101.054 58.7515L101.318 58.9272C101.847 59.2411 102.413 59.5926 102.916 60.0696C102.916 60.1575 102.942 60.2579 102.954 60.3458C103.004 60.7098 103.055 61.0864 103.143 61.4505C103.357 62.392 103.42 63.3461 103.483 64.3504L103.508 64.7647C103.571 65.6936 103.483 66.5599 103.407 67.3256Z" fill="#231F20"/>
<path d="M91.4254 19.0188C90.9849 18.9686 90.8212 18.8807 90.5444 18.7552C90.1794 18.5669 89.7137 18.3409 88.8326 18.2405C88.2537 18.1777 87.9894 18.1024 87.6873 18.0271C87.423 17.9643 87.1209 17.8764 86.6427 17.8137C86.9447 17.5124 87.1839 17.1734 87.3852 16.8847C87.574 16.5959 87.7628 16.3323 87.939 16.2068C88.4425 15.8427 89.1095 15.3657 89.8018 14.9765C90.1793 14.7631 90.6325 14.5874 91.1107 14.4116C91.3624 14.3237 91.6016 14.2233 91.8533 14.1229C92.4952 13.8592 92.7973 13.1186 92.5329 12.4783C92.2686 11.8381 91.5261 11.5368 90.8842 11.8004C90.6702 11.8883 90.4437 11.9762 90.2171 12.0515C89.6633 12.2649 89.0969 12.4658 88.5557 12.7796C87.7502 13.2316 87.0077 13.7588 86.4539 14.1605C85.9253 14.5371 85.598 15.0267 85.3085 15.4536C85.1449 15.7046 84.9813 15.9432 84.8303 16.0812C84.6666 16.2319 84.4023 16.37 84.138 16.5206C83.6975 16.7591 83.2067 17.0353 82.7787 17.4873L82.3886 17.9015C81.9481 18.366 81.5201 18.8179 81.13 19.3075C80.7272 19.8097 80.5384 20.3872 80.3748 20.8391C80.2741 21.1278 80.186 21.404 80.0853 21.5547C79.9091 21.8057 79.7329 22.0317 79.5567 22.2702C79.242 22.6845 78.94 23.0862 78.6757 23.513C78.5372 23.739 78.3233 23.9775 78.0967 24.2286C78.0212 24.3039 77.9457 24.4043 77.8702 24.4797C77.8198 24.2662 77.7695 24.0152 77.6688 23.7264C77.5933 23.4879 77.48 23.2494 77.3667 22.9983C77.1402 22.5087 77.0017 22.1949 77.0647 21.8685C77.1653 21.404 77.3793 20.6633 77.9079 19.772C78.2603 19.1695 78.059 18.4037 77.4548 18.0522C76.8633 17.7007 76.0829 17.9015 75.7305 18.5041C75.1893 19.4331 74.7866 20.4248 74.5978 21.3663C74.3586 22.5213 74.7866 23.4503 75.0761 24.0528C75.1516 24.2035 75.2271 24.3541 75.2648 24.5048C75.3907 24.8814 75.4285 25.1325 75.4536 25.371C75.5417 26.0489 75.7179 26.5134 76.2466 27.0155C76.1585 27.1913 76.0578 27.3545 75.9822 27.5302C75.7054 28.1328 75.6047 28.7354 75.5166 29.225C75.4788 29.4886 75.4285 29.7522 75.3655 29.9029C75.1516 30.4427 75.0257 30.6435 74.9124 30.8318C74.7111 31.1582 74.5474 31.447 74.3461 32.1249C74.1447 32.7902 74.5097 33.4932 75.1767 33.6941C75.3026 33.7317 75.4285 33.7443 75.5417 33.7443C76.0829 33.7443 76.5738 33.3928 76.75 32.853C76.8884 32.4136 76.9388 32.3257 77.0647 32.1249C77.2157 31.8863 77.4171 31.5599 77.7065 30.8193C77.8702 30.4176 77.9331 30.0033 78.0086 29.6141C78.0715 29.225 78.1345 28.8734 78.2729 28.5722C78.4365 28.2207 78.6505 27.8566 78.8645 27.48C79.0407 27.1787 79.2169 26.8774 79.3805 26.5636C79.4938 26.3627 79.7077 26.1242 79.9343 25.8606C80.2238 25.5467 80.5384 25.1952 80.8027 24.7558C81.0167 24.4043 81.281 24.0654 81.5327 23.7264C81.7341 23.4628 81.9355 23.1992 82.1243 22.923C82.4263 22.4836 82.5899 22.0066 82.7284 21.5923C82.8417 21.2785 82.9424 20.9772 83.0682 20.814C83.1563 20.701 83.257 20.588 83.3577 20.475C84.1758 20.5378 84.6918 20.3872 85.0694 20.2616C85.3589 20.1737 85.5099 20.1235 85.8875 20.1612C86.4665 20.224 86.7308 20.2993 87.0328 20.3746C87.3727 20.4625 87.7628 20.5629 88.518 20.6508C88.9585 20.701 89.1221 20.7889 89.399 20.9144C89.764 21.1027 90.2297 21.3287 91.1107 21.4291C91.1611 21.4291 91.2114 21.4291 91.2618 21.4291C91.8911 21.4291 92.4323 20.9521 92.5078 20.3244C92.5833 19.6339 92.0924 19.0188 91.4002 18.9309L91.4254 19.0188Z" fill="#256B22"/>
</g>
<defs>
<clipPath id="clip0_6876_1543">
<rect width="159" height="152" fill="white"/>
</clipPath>
</defs>
</svg>
