<svg width="183" height="165" viewBox="0 0 183 165" fill="none" xmlns="http://www.w3.org/2000/svg">
<g clip-path="url(#clip0_6876_1464)">
<path d="M128.721 144.563C128.84 144.563 128.972 144.55 129.09 144.51C129.288 144.457 129.526 144.391 129.842 144.326C130.198 144.26 130.449 144.075 130.633 143.877C130.857 143.904 131.108 143.943 131.372 143.996C131.701 144.062 132.018 144.128 132.348 144.154C133.06 144.233 133.719 143.706 133.798 142.981C133.877 142.255 133.35 141.609 132.625 141.53C132.374 141.504 132.123 141.451 131.886 141.398C131.279 141.28 130.515 141.148 129.855 141.253C129.394 141.319 129.09 141.583 128.893 141.82C128.695 141.873 128.523 141.913 128.378 141.952C127.679 142.15 127.284 142.888 127.482 143.587C127.653 144.167 128.18 144.537 128.748 144.537L128.721 144.563Z" fill="#999999"/>
<path d="M121.824 161.308C121.745 161.348 121.626 161.387 121.495 161.453C120.954 161.704 119.938 162.178 118.936 162.31C118.765 162.337 118.593 162.35 118.422 162.363C117.697 162.416 117.156 163.049 117.209 163.774C117.261 164.473 117.842 165 118.527 165C118.554 165 118.593 165 118.633 165C118.844 164.987 119.055 164.96 119.266 164.934C120.69 164.763 121.996 164.143 122.629 163.853L122.853 163.747C123.525 163.471 123.842 162.693 123.565 162.02C123.288 161.348 122.51 161.031 121.837 161.308H121.824Z" fill="#999999"/>
<path d="M113.978 149.362C113.74 148.426 113.292 147.767 112.962 147.279C112.936 147.226 112.896 147.174 112.857 147.121C113.371 146.673 113.463 145.908 113.055 145.354C112.633 144.761 111.802 144.642 111.208 145.064C111.208 145.064 111.103 145.143 111.09 145.143C110.404 145.671 110.061 146.29 110.061 146.976C110.061 147.662 110.43 148.242 110.76 148.73C111.011 149.112 111.288 149.507 111.406 149.995C111.565 150.589 112.092 150.984 112.685 150.984C112.791 150.984 112.91 150.984 113.015 150.945C113.727 150.76 114.149 150.048 113.965 149.336L113.978 149.362ZM112.685 147.147L111.987 146.119L112.699 147.095C112.699 147.095 112.699 147.121 112.699 147.147H112.685Z" fill="#999999"/>
<path d="M132.282 159.146C132.058 159.225 131.82 159.304 131.583 159.383C131.148 159.515 130.646 159.568 130.106 159.62C129.592 159.673 129.051 159.726 128.497 159.844C127.785 160.016 127.35 160.728 127.521 161.427C127.666 162.033 128.207 162.442 128.8 162.442C128.906 162.442 128.998 162.442 129.104 162.402C129.486 162.31 129.908 162.271 130.356 162.231C130.976 162.178 131.688 162.099 132.374 161.888C132.638 161.809 132.915 161.717 133.178 161.624C133.864 161.374 134.22 160.622 133.97 159.937C133.719 159.251 132.967 158.895 132.282 159.146Z" fill="#999999"/>
<path d="M118.501 146.791C118.633 146.791 118.765 146.778 118.897 146.738C119.424 146.567 119.767 146.382 120.044 146.224C120.347 146.053 120.545 145.947 121.072 145.828C121.916 145.657 122.338 145.486 122.721 145.341L121.745 142.888C121.428 143.007 121.152 143.126 120.532 143.244C119.609 143.442 119.134 143.706 118.751 143.917C118.527 144.035 118.382 144.128 118.118 144.207C117.42 144.418 117.037 145.156 117.248 145.855C117.42 146.422 117.947 146.778 118.514 146.778L118.501 146.791Z" fill="#999999"/>
<path d="M115.982 157.946C115.745 157.418 115.521 156.917 115.415 156.416C115.376 156.232 115.336 156.047 115.283 155.862C115.086 155.164 114.373 154.742 113.661 154.939C112.962 155.124 112.54 155.849 112.738 156.561C112.778 156.693 112.804 156.838 112.83 156.97C112.989 157.748 113.305 158.447 113.582 159.053C113.78 159.502 113.978 159.923 114.057 160.266C114.189 160.886 114.729 161.308 115.349 161.308C115.442 161.308 115.534 161.308 115.626 161.282C116.338 161.123 116.787 160.425 116.642 159.713C116.51 159.093 116.246 158.526 115.995 157.959L115.982 157.946Z" fill="#999999"/>
<path d="M138.203 146.804C138.348 147.068 138.493 147.332 138.651 147.582C138.783 147.806 138.928 148.031 139.086 148.255C139.258 148.518 139.416 148.769 139.574 149.033C139.825 149.455 140.26 149.692 140.722 149.692C140.946 149.692 141.17 149.639 141.381 149.521C142.014 149.151 142.225 148.347 141.869 147.714C141.697 147.411 141.5 147.108 141.302 146.818C141.17 146.62 141.038 146.409 140.919 146.211C140.787 145.987 140.656 145.75 140.537 145.525C140.286 145.077 140.036 144.616 139.706 144.167C139.271 143.587 138.44 143.455 137.86 143.89C137.28 144.326 137.148 145.156 137.583 145.736C137.807 146.026 138.005 146.396 138.216 146.791L138.203 146.804Z" fill="#999999"/>
<path d="M141.816 153.608C141.157 153.331 140.379 153.634 140.089 154.307C139.838 154.913 139.495 155.467 139.1 155.902C138.757 156.285 138.387 156.641 138.018 156.957C137.464 157.432 137.385 158.262 137.86 158.816C138.124 159.133 138.493 159.291 138.875 159.291C139.179 159.291 139.482 159.185 139.719 158.988C140.181 158.605 140.629 158.157 141.064 157.669C141.645 157.01 142.146 156.219 142.515 155.348C142.792 154.676 142.489 153.911 141.816 153.621V153.608Z" fill="#999999"/>
<path d="M68.8376 155.309C68.1387 155.164 67.4134 155.678 67.2684 156.39C67.1365 157.01 67.1233 157.616 67.1233 158.064V159.053C67.1233 159.317 67.1233 159.647 67.0705 159.91L67.0178 160.161C66.8464 160.873 67.2815 161.585 67.9937 161.756C68.0992 161.783 68.2047 161.796 68.297 161.796C68.8904 161.796 69.4311 161.387 69.5761 160.781L69.6553 160.451C69.7607 159.95 69.7739 159.449 69.7739 159.067V158.078C69.7739 157.735 69.7739 157.313 69.8531 156.931L69.8794 156.812C70.0245 156.1 69.5498 155.467 68.8376 155.322V155.309Z" fill="#999999"/>
<path d="M64.4067 143.468C63.9847 143.442 63.6814 143.468 63.3781 143.508C63.088 143.534 62.7583 143.561 62.2836 143.455C61.4396 143.284 60.9912 143.271 60.5824 143.257H60.4505C59.7252 143.191 59.1186 143.798 59.0791 144.523C59.0527 145.248 59.6197 145.868 60.345 145.894H60.4901C60.833 145.908 61.1231 145.921 61.7429 146.053C62.1781 146.145 62.5737 146.184 62.9429 146.184C63.2067 146.184 63.4309 146.158 63.6551 146.145C63.7869 146.132 63.932 146.119 64.0902 146.119H64.2485C65.0002 146.158 65.6068 145.618 65.6463 144.892C65.6859 144.167 65.132 143.534 64.4067 143.495V143.468Z" fill="#999999"/>
<path d="M43.7422 143.482C42.8587 144.049 41.8565 144.734 41.2235 145.763C40.9861 146.145 40.8015 146.58 40.6432 147.095C40.4322 147.793 40.8279 148.532 41.5268 148.743C41.6587 148.782 41.7773 148.796 41.9092 148.796C42.4763 148.796 43.0038 148.426 43.1752 147.859C43.2675 147.569 43.373 147.319 43.4785 147.134C43.8082 146.594 44.4939 146.132 45.1533 145.71C45.7731 145.315 45.9577 144.51 45.5621 143.891C45.1665 143.271 44.3621 143.086 43.7422 143.482Z" fill="#999999"/>
<path d="M63.932 161.532C63.6419 161.506 63.3385 161.479 63.0616 161.479C62.0594 161.479 61.1495 161.625 60.5956 161.717C60.5033 161.73 60.4373 161.743 60.3846 161.756C60.3055 161.743 60.2132 161.73 60.134 161.704C59.4087 161.545 58.723 162.007 58.5647 162.719C58.4065 163.431 58.8681 164.13 59.5802 164.288C59.778 164.327 59.9626 164.367 60.1604 164.393C60.2263 164.393 60.2791 164.393 60.345 164.393C60.4505 164.393 60.6879 164.367 61.0176 164.314C61.5055 164.235 62.2308 164.117 63.0089 164.117C63.2199 164.117 63.4177 164.117 63.6287 164.143C64.354 164.222 65.0001 163.695 65.0793 162.983C65.1584 162.257 64.6309 161.611 63.9188 161.532H63.932Z" fill="#999999"/>
<path d="M71.3828 145.657C71.3828 145.657 71.2773 145.578 71.2641 145.565C70.6839 145.143 69.9058 145.301 69.4706 145.881C69.0882 146.396 69.1673 147.108 69.5893 147.582C69.2992 148.004 68.9036 148.637 68.719 149.573C68.7058 149.639 68.6926 149.718 68.6662 149.784C68.4684 150.483 68.8904 151.208 69.5893 151.406C69.708 151.432 69.8267 151.459 69.9454 151.459C70.5256 151.459 71.0531 151.076 71.2114 150.496C71.2509 150.378 71.2773 150.246 71.3037 150.114C71.4092 149.573 71.6465 149.257 71.8839 148.927C72.1477 148.558 72.4773 148.11 72.4773 147.464C72.4773 146.475 71.6861 145.881 71.4092 145.671L71.3828 145.657Z" fill="#999999"/>
<path d="M44.2433 155.48C43.7554 154.927 43.4389 154.346 43.2279 153.582C43.0301 152.883 42.3048 152.474 41.6059 152.672C40.907 152.87 40.4982 153.595 40.696 154.294C41.0125 155.441 41.5268 156.377 42.2784 157.234C42.5817 157.577 42.9246 157.893 43.3202 158.197C43.5576 158.381 43.8477 158.473 44.1247 158.473C44.5203 158.473 44.9027 158.302 45.1665 157.959C45.6148 157.379 45.5093 156.562 44.9291 156.113C44.6653 155.915 44.4412 155.705 44.2433 155.48Z" fill="#999999"/>
<path d="M54.3844 141.478C54.1866 141.451 53.9492 141.412 53.6459 141.346C53.2503 141.267 52.8415 141.385 52.5777 141.544C52.4327 141.504 52.2744 141.464 52.1294 141.412C51.6546 141.267 51.1008 141.108 50.5073 141.082C49.7425 141.043 49.1622 141.596 49.1227 142.321C49.0831 143.047 49.637 143.666 50.3623 143.706C50.6524 143.719 51.0084 143.825 51.3909 143.943C51.7865 144.062 52.1821 144.181 52.6305 144.233C52.6832 144.233 52.7492 144.233 52.8019 144.233C53.1316 144.233 53.3953 144.128 53.6063 144.009C53.7778 144.036 53.9228 144.062 54.0679 144.075C54.7932 144.154 55.4526 143.653 55.5449 142.928C55.6372 142.203 55.1229 141.544 54.3976 141.451L54.3844 141.478Z" fill="#999999"/>
<path d="M53.8569 160.623C53.5009 160.491 53.1448 160.319 52.8019 160.161C52.314 159.924 51.8129 159.686 51.2458 159.515L50.1381 159.172C49.4392 158.961 48.7007 159.344 48.4897 160.042C48.2787 160.741 48.6611 161.48 49.3601 161.691L50.4546 162.033C50.837 162.152 51.2326 162.35 51.6678 162.548C52.103 162.759 52.5382 162.956 52.9866 163.115C53.1316 163.167 53.2767 163.194 53.4217 163.194C53.9624 163.194 54.4767 162.864 54.6613 162.31C54.8987 161.625 54.5427 160.873 53.8569 160.623Z" fill="#999999"/>
<path d="M85.5856 26.2916L86.0867 26.3179C86.4427 26.3443 87.2076 26.3707 87.6296 26.2784C88.4736 26.107 89.4231 24.1028 89.6472 23.7864L89.7396 23.6545C90.0165 23.2458 90.333 22.7975 90.5835 22.2701C90.9132 21.5449 91.2297 20.8724 91.599 20.2264C91.955 19.5935 91.744 18.7892 91.111 18.4332C90.478 18.064 89.6736 18.2881 89.3176 18.921C88.8956 19.6594 88.5395 20.4241 88.1966 21.1757C88.0516 21.4921 87.8142 21.9668 87.5768 22.3228C87.5768 22.3228 87.0362 23.7205 86.2713 23.6941L85.7306 23.6677C85.0053 23.6282 84.3855 24.1951 84.3459 24.9203C84.3064 25.6455 84.8734 26.2652 85.5987 26.3048L85.5856 26.2916Z" fill="#999999"/>
<path d="M41.6191 102.673L41.3817 102.054C41.2366 101.658 41.0916 101.276 40.9333 100.893C40.6696 100.261 40.419 99.6277 40.1685 98.9816C39.9047 98.296 39.1531 97.9531 38.4673 98.2168C37.7816 98.4805 37.4387 99.2321 37.7025 99.9177C37.953 100.577 38.2299 101.249 38.4937 101.896C38.6387 102.252 38.7706 102.608 38.9157 102.977L39.1531 103.623C39.3509 104.15 39.852 104.467 40.3795 104.467C40.5377 104.467 40.696 104.44 40.8542 104.374C41.54 104.111 41.8696 103.346 41.6059 102.673H41.6191Z" fill="#999999"/>
<path d="M144.994 74.1272C145.073 74.5755 145.205 75.0238 145.337 75.4721C145.482 75.9731 145.627 76.4346 145.654 76.8302C145.654 76.8302 145.654 77.0016 145.654 77.0148C145.654 77.2125 145.627 77.4103 145.601 77.6081C145.495 78.3333 145.996 78.9926 146.722 79.098C146.788 79.098 146.854 79.098 146.906 79.098C147.553 79.098 148.12 78.6234 148.212 77.9641C148.265 77.6345 148.291 77.318 148.291 77.0016V76.7115C148.238 75.9863 148.04 75.3139 147.856 74.7205C147.75 74.3777 147.645 74.0217 147.579 73.6789C147.46 72.9669 146.774 72.479 146.049 72.6109C145.337 72.7428 144.849 73.4284 144.981 74.1404L144.994 74.1272Z" fill="#999999"/>
<path d="M50.3227 119.419C50.7051 119.63 51.0744 119.841 51.2985 120.052C51.4832 120.236 51.6414 120.434 51.7865 120.645C52.0502 121.001 52.4458 121.186 52.8415 121.186C53.1184 121.186 53.3953 121.106 53.6195 120.922C54.1997 120.487 54.3316 119.656 53.8964 119.076C53.6723 118.773 53.4217 118.469 53.158 118.193C52.67 117.705 52.103 117.388 51.5887 117.111C51.2194 116.9 50.8634 116.703 50.6392 116.492C50.1117 115.991 49.2809 116.004 48.7798 116.531C48.2787 117.059 48.2918 117.889 48.8193 118.39C49.2941 118.839 49.8348 119.142 50.3227 119.419Z" fill="#999999"/>
<path d="M46.1028 110.123C45.7467 109.754 45.4038 109.398 45.1796 109.029C45.0346 108.804 44.9027 108.554 44.784 108.317C44.4543 107.671 43.6631 107.407 43.0169 107.736C42.3708 108.066 42.107 108.857 42.4367 109.503C42.5949 109.82 42.7664 110.123 42.951 110.426C43.3202 111.02 43.7686 111.481 44.2038 111.943C44.4807 112.233 44.7577 112.51 44.9818 112.826C45.2456 113.182 45.6412 113.367 46.05 113.367C46.3269 113.367 46.5907 113.287 46.8281 113.103C47.4083 112.668 47.5402 111.85 47.105 111.257C46.7885 110.835 46.4456 110.466 46.116 110.123H46.1028Z" fill="#999999"/>
<path d="M75.2995 28.2823C75.4181 28.2823 75.5368 28.2692 75.6687 28.2296C76.2094 28.0714 76.7633 27.9527 77.3171 27.834C77.6995 27.7549 78.0688 27.6626 78.4512 27.5703C78.8468 27.478 79.2293 27.3462 79.6117 27.2011C80.2974 26.9506 80.6535 26.1991 80.4029 25.5134C80.1524 24.8278 79.4007 24.4718 78.715 24.7223C78.4248 24.8278 78.1215 24.9333 77.8182 24.9992C77.4622 25.0915 77.1061 25.1706 76.7501 25.2497C76.1434 25.3816 75.55 25.5134 74.9566 25.6848C74.2577 25.8826 73.8489 26.621 74.0467 27.3198C74.2181 27.9 74.7456 28.2823 75.3126 28.2823H75.2995Z" fill="#999999"/>
<path d="M50.2172 44.8563L50.4809 44.5135C50.8633 43.9993 51.2326 43.5246 51.6414 43.0895L52.7096 41.916C53.2107 41.3754 53.1711 40.5448 52.6304 40.0569C52.0898 39.5559 51.259 39.5954 50.771 40.136L49.7029 41.2963C49.2149 41.8237 48.7798 42.3907 48.371 42.9313L48.1204 43.2609C47.672 43.8411 47.7907 44.6717 48.371 45.1069C48.6083 45.2915 48.8984 45.3837 49.1754 45.3837C49.571 45.3837 49.9666 45.2123 50.2172 44.8695V44.8563Z" fill="#999999"/>
<path d="M118.659 33.6486C119.305 34.0309 120.004 34.1496 120.624 34.2683C121.033 34.3474 121.415 34.4133 121.666 34.532C121.851 34.6243 122.048 34.6638 122.246 34.6638C122.734 34.6638 123.196 34.3869 123.433 33.9255C123.749 33.2662 123.486 32.4883 122.826 32.1586C122.246 31.8686 121.626 31.7631 121.086 31.6576C120.637 31.5785 120.228 31.4994 119.978 31.3543C119.833 31.262 119.661 31.1434 119.464 30.9588C118.923 30.4709 118.092 30.5105 117.604 31.0511C117.116 31.5917 117.156 32.4223 117.697 32.9102C118.039 33.2135 118.343 33.4376 118.646 33.6222L118.659 33.6486Z" fill="#999999"/>
<path d="M127.6 39.7006C127.93 40.1226 128.273 40.5577 128.695 40.9664L129.17 41.4015C129.42 41.6389 129.75 41.7575 130.066 41.7575C130.422 41.7575 130.778 41.6125 131.029 41.3356C131.53 40.795 131.49 39.9643 130.95 39.4765L130.501 39.0546C130.211 38.7777 129.948 38.4349 129.657 38.0788C129.262 37.5778 128.853 37.0504 128.312 36.6021L128.207 36.5098C127.653 36.0483 126.862 36.167 126.4 36.7208C125.939 37.2746 126.044 38.1448 126.598 38.6063C126.941 38.8963 127.257 39.2919 127.587 39.7138L127.6 39.7006Z" fill="#999999"/>
<path d="M42.0938 53.5055C42.3048 53.6242 42.529 53.6769 42.7532 53.6769C43.2147 53.6769 43.6499 53.4396 43.9005 53.0176C44.0455 52.7671 44.4148 52.4902 44.784 52.2265C45.2851 51.8442 45.8654 51.4222 46.2742 50.8025C46.406 50.6047 46.5247 50.3938 46.6434 50.1696C46.9995 49.5367 46.7621 48.7324 46.1291 48.3764C45.4961 48.0204 44.6917 48.2578 44.3356 48.8907C44.2433 49.0489 44.1642 49.2071 44.0587 49.3521C43.9136 49.5895 43.5444 49.8532 43.2015 50.1037C42.6477 50.5124 42.0279 50.9739 41.6059 51.6991C41.2366 52.332 41.4608 53.1363 42.0938 53.5055Z" fill="#999999"/>
<path d="M134.009 46.6887C134.405 47.0711 134.787 47.4402 135.077 47.8358C135.368 48.2314 135.684 48.6005 136.014 48.9697L136.159 49.1411C136.423 49.4444 136.792 49.6026 137.161 49.6026C137.464 49.6026 137.768 49.4971 138.018 49.2862C138.572 48.8115 138.638 47.9808 138.163 47.4271L138.018 47.2557C137.741 46.926 137.464 46.6096 137.201 46.2668C136.779 45.6998 136.304 45.2383 135.855 44.8032L135.447 44.4076C134.932 43.8934 134.102 43.8934 133.587 44.4076C133.073 44.9219 133.073 45.7525 133.587 46.2668L134.022 46.6887H134.009Z" fill="#999999"/>
<path d="M65.5804 32.4486C65.7254 32.4486 65.8705 32.4222 66.0023 32.3827C66.2661 32.2904 66.5298 32.1849 66.7804 32.0531C67.6376 31.618 68.5079 31.2356 69.3783 30.84L69.6289 30.7214L69.1805 29.4688L69.7212 30.6686C70.3805 30.3654 70.6311 29.6138 70.3278 28.9545C70.0377 28.2953 69.1937 28.0184 68.5343 28.3085L68.2969 28.4139C67.4002 28.8095 66.4639 29.2182 65.554 29.6929C65.4221 29.7588 65.277 29.8116 65.132 29.8643C64.4462 30.1016 64.077 30.8532 64.3144 31.5388C64.499 32.0926 65.0133 32.4354 65.5672 32.4354L65.5804 32.4486Z" fill="#999999"/>
<path d="M35.8299 73.4947C35.909 73.4947 35.9749 73.5079 36.054 73.5079C36.687 73.5079 37.2409 73.0464 37.3596 72.4135L37.6365 70.8445C37.6893 70.528 37.9266 70.1457 38.1772 69.7237C38.2959 69.526 38.4146 69.3282 38.5333 69.1172C38.8761 68.4711 38.6387 67.68 38.0058 67.324C37.3728 66.968 36.5683 67.2186 36.2123 67.8514C36.12 68.0228 36.0277 68.1811 35.9222 68.3525C35.5793 68.9326 35.1837 69.5787 35.0386 70.383L34.7617 71.9652C34.643 72.6772 35.1309 73.3629 35.843 73.4815L35.8299 73.4947Z" fill="#999999"/>
<path d="M36.3178 84.0031C37.0431 83.9504 37.5838 83.3043 37.531 82.5791C37.5046 82.289 37.4783 81.999 37.4519 81.7089C37.386 81.1156 37.3332 80.5486 37.3332 79.9816C37.3332 79.4147 37.2145 78.8872 37.0958 78.3994C36.9112 77.6874 36.1991 77.2655 35.487 77.4501C34.7881 77.6347 34.3529 78.3467 34.5375 79.0587C34.6166 79.3751 34.6957 79.7047 34.6957 79.9684C34.6957 80.6673 34.7617 81.3265 34.8276 81.9594C34.854 82.2363 34.8804 82.5 34.9067 82.7637C34.9595 83.4493 35.5397 83.9767 36.2255 83.9767C36.265 83.9767 36.2914 83.9767 36.331 83.9767L36.3178 84.0031Z" fill="#999999"/>
<path d="M143.082 64.08C143.148 64.2514 143.214 64.4228 143.267 64.6074C143.438 65.1744 143.676 65.6754 143.9 66.1633C144.124 66.6511 144.348 67.0994 144.454 67.5741L145.746 67.3104L147.012 66.928C146.854 66.2292 146.55 65.5963 146.287 65.0425C146.089 64.6206 145.904 64.225 145.786 63.8559C145.706 63.6053 145.627 63.368 145.535 63.1307C145.271 62.4582 144.506 62.1154 143.834 62.3791C143.161 62.6428 142.818 63.4076 143.082 64.08Z" fill="#999999"/>
<path d="M38.3223 92.811L38.164 92.1386C38.0717 91.743 38.0717 91.2552 38.0717 90.7541C38.0717 90.2135 38.0717 89.6597 37.9662 89.0532C37.9662 89.0532 37.9398 88.9214 37.9398 88.9082C37.808 88.1962 37.1354 87.8006 36.4233 87.9193C35.7112 88.0511 35.2496 88.7895 35.3683 89.4883C35.4342 89.8575 35.4342 90.2926 35.4342 90.7409C35.4342 91.3475 35.4342 92.0199 35.5925 92.7055L35.7507 93.3912C35.8958 93.9977 36.4365 94.4064 37.0299 94.4064C37.1354 94.4064 37.2277 94.4064 37.3332 94.3669C38.0453 94.1955 38.4805 93.4966 38.3223 92.7846V92.811Z" fill="#999999"/>
<path d="M38.2167 63.3021C38.3222 63.3285 38.4146 63.3416 38.5201 63.3416C39.1267 63.3416 39.6673 62.9329 39.7992 62.3132C39.852 62.089 39.9047 61.8781 39.9838 61.6671C40.1421 61.2056 40.4058 60.7441 40.6828 60.2431C40.9201 59.808 41.1575 59.3861 41.3553 58.951C41.6454 58.2917 41.3553 57.5006 40.6828 57.2105C40.0234 56.9072 39.2322 57.2105 38.942 57.883C38.7838 58.2521 38.5728 58.6081 38.375 58.9641C38.0585 59.5311 37.7288 60.1113 37.4914 60.7837C37.3859 61.087 37.2936 61.4034 37.2145 61.733C37.0563 62.445 37.4914 63.1439 38.2036 63.3153L38.2167 63.3021Z" fill="#999999"/>
<path d="M140.075 55.7868C140.3 56.2351 140.576 56.6834 140.853 57.1185C141.025 57.3954 141.196 57.6723 141.355 57.9624C141.592 58.3975 142.04 58.6348 142.515 58.6348C142.726 58.6348 142.95 58.5821 143.161 58.4634C143.794 58.1074 144.032 57.3031 143.676 56.6702C143.491 56.3406 143.293 56.0241 143.095 55.7077C142.871 55.3385 142.634 54.9693 142.436 54.5869C142.146 53.9936 141.737 53.5057 141.381 53.097C140.906 52.5432 140.075 52.4773 139.522 52.952C138.968 53.4266 138.902 54.2573 139.376 54.8111C139.64 55.1143 139.904 55.444 140.075 55.7604V55.7868Z" fill="#999999"/>
<path d="M118.593 127.027C118.264 127.37 117.96 127.699 117.657 127.857C117.314 128.055 116.958 128.253 116.615 128.464C115.995 128.833 115.784 129.651 116.167 130.27C116.417 130.679 116.853 130.916 117.301 130.916C117.525 130.916 117.763 130.85 117.974 130.732C118.29 130.534 118.62 130.349 118.936 130.165C119.596 129.809 120.084 129.281 120.519 128.833C120.743 128.596 120.954 128.358 121.204 128.161C121.771 127.712 121.864 126.882 121.415 126.302C120.967 125.735 120.136 125.629 119.556 126.091C119.187 126.381 118.883 126.697 118.593 127.014V127.027Z" fill="#999999"/>
<path d="M145.719 93.4964C145.073 93.1535 144.282 93.4041 143.939 94.037C143.781 94.3402 143.57 94.7621 143.425 95.2368C143.333 95.5533 143.253 95.8697 143.161 96.173C142.99 96.7927 142.831 97.3992 142.62 97.9925C142.383 98.6782 142.752 99.4297 143.451 99.667C143.596 99.7198 143.728 99.733 143.873 99.733C144.427 99.733 144.941 99.3902 145.126 98.8364C145.35 98.1903 145.535 97.531 145.706 96.8586L145.957 95.9488C146.01 95.7642 146.102 95.5401 146.26 95.25C146.603 94.6039 146.352 93.8128 145.719 93.47V93.4964Z" fill="#999999"/>
<path d="M112.316 131.206C111.986 130.56 111.195 130.296 110.536 130.626C110.021 130.89 109.599 131.101 109.164 131.246C108.637 131.43 108.162 131.668 107.701 131.905C107.463 132.024 107.226 132.156 106.975 132.261C106.316 132.564 106.013 133.342 106.316 134.002C106.54 134.489 107.015 134.779 107.516 134.779C107.701 134.779 107.885 134.74 108.057 134.661C108.334 134.529 108.61 134.397 108.887 134.252C109.283 134.054 109.665 133.857 110.021 133.738C110.654 133.514 111.248 133.224 111.709 132.973C112.356 132.643 112.619 131.852 112.29 131.193L112.316 131.206Z" fill="#999999"/>
<path d="M57.5757 37.6571C57.9185 37.3538 58.2746 37.0637 58.6438 36.7737C59.1054 36.4177 59.501 36.0221 59.8835 35.6397C60.1076 35.4156 60.3186 35.1914 60.556 34.9937C61.0967 34.5058 61.1494 33.6751 60.6615 33.1345C60.1736 32.5939 59.3428 32.5412 58.8021 33.0291C58.5252 33.2664 58.2746 33.5301 58.0109 33.7938C57.6812 34.1234 57.3779 34.4399 57.0614 34.6772C56.6394 34.9937 56.2438 35.3233 55.8481 35.6661C55.2943 36.1408 55.2415 36.9714 55.7163 37.5252C55.98 37.8285 56.3493 37.9735 56.7053 37.9735C57.0086 37.9735 57.3251 37.868 57.5757 37.6439V37.6571Z" fill="#999999"/>
<path d="M128.405 123.612C128.695 123.295 128.985 122.992 129.301 122.715C129.46 122.583 129.618 122.451 129.789 122.333C130.383 121.911 130.528 121.093 130.106 120.5C129.684 119.907 128.866 119.761 128.273 120.183C128.022 120.355 127.785 120.539 127.561 120.737C127.191 121.067 126.835 121.436 126.493 121.805C126.11 122.214 125.754 122.596 125.345 122.913L126.15 123.954L127.02 124.943C127.547 124.521 127.996 124.047 128.418 123.598L128.405 123.612Z" fill="#999999"/>
<path d="M100.83 133.408L100.369 133.487C99.9201 133.566 99.4718 133.659 99.0234 133.764C98.4563 133.896 97.9157 134.015 97.3618 134.081L97.0189 134.12C96.2936 134.199 95.7661 134.845 95.8453 135.571C95.9112 136.243 96.4914 136.757 97.1508 136.757C97.1904 136.757 97.2431 136.757 97.2827 136.757L97.6651 136.718C98.3508 136.639 98.9838 136.494 99.6168 136.349C100.012 136.256 100.408 136.164 100.804 136.098L101.292 136.019C102.004 135.9 102.492 135.215 102.36 134.489C102.228 133.764 101.555 133.29 100.83 133.421V133.408Z" fill="#999999"/>
<path d="M141.988 103.359C141.341 103.029 140.55 103.267 140.207 103.913C140.009 104.295 139.746 104.677 139.456 105.086C139.165 105.508 138.875 105.917 138.638 106.365C138.387 106.827 138.242 107.288 138.163 107.644C137.992 108.356 138.414 109.068 139.126 109.239C139.231 109.266 139.337 109.279 139.442 109.279C140.036 109.279 140.577 108.883 140.722 108.277C140.801 107.987 140.867 107.789 140.946 107.631C141.144 107.262 141.394 106.919 141.631 106.576C141.948 106.128 142.278 105.653 142.555 105.112C142.884 104.466 142.647 103.675 142.001 103.332L141.988 103.359Z" fill="#999999"/>
<path d="M135.143 112.364L134.866 112.575C134.405 112.905 133.891 113.287 133.469 113.815C133.073 114.316 132.796 114.856 132.559 115.344C132.479 115.502 132.4 115.674 132.308 115.832C131.965 116.478 132.216 117.269 132.849 117.612C133.047 117.718 133.258 117.77 133.469 117.77C133.943 117.77 134.392 117.52 134.629 117.071C134.734 116.887 134.827 116.689 134.919 116.505C135.117 116.109 135.302 115.727 135.513 115.463C135.71 115.212 136.053 114.962 136.409 114.711L136.726 114.487C137.306 114.052 137.425 113.221 136.99 112.641C136.554 112.061 135.724 111.942 135.143 112.378V112.364Z" fill="#999999"/>
<path d="M148.251 84.2403C148.186 83.5151 147.526 82.9745 146.814 83.0536C146.089 83.1195 145.561 83.7656 145.627 84.4908L145.667 84.8336C145.706 85.1896 145.746 85.5456 145.746 85.9016C145.746 86.0335 145.746 86.1653 145.72 86.2972C145.654 86.9037 145.561 87.5102 145.469 88.1167C145.35 88.8287 145.838 89.5144 146.563 89.633C146.629 89.633 146.709 89.6462 146.774 89.6462C147.407 89.6462 147.975 89.1847 148.08 88.5386C148.186 87.8926 148.278 87.2465 148.357 86.6004C148.383 86.3763 148.397 86.1389 148.397 85.9016C148.397 85.4533 148.357 85.0182 148.304 84.5699L148.278 84.2534L148.251 84.2403Z" fill="#999999"/>
<path d="M90.5308 134.74H90.056C89.4494 134.779 88.8428 134.806 88.223 134.766C87.8801 134.74 87.4713 134.621 87.0229 134.489C86.3372 134.265 85.5855 134.648 85.3613 135.346C85.1372 136.045 85.5196 136.784 86.2185 137.008C86.8119 137.192 87.4054 137.377 88.0647 137.403C88.3417 137.417 88.6318 137.43 88.9219 137.43C89.3307 137.43 89.7395 137.43 90.1351 137.403H90.5967C91.322 137.364 91.9022 136.757 91.8759 136.032C91.8495 135.307 91.2297 134.727 90.5176 134.753L90.5308 134.74Z" fill="#999999"/>
<path d="M69.6816 132.459C69.8662 132.538 70.0509 132.578 70.2355 132.578C70.7366 132.578 71.2113 132.301 71.4355 131.813C71.7388 131.154 71.4619 130.363 70.8025 130.059L70.6179 129.98C70.1168 129.769 69.6157 129.624 69.1409 129.492C68.6266 129.347 68.1387 129.202 67.7299 129.004C67.5453 128.912 67.3738 128.82 67.2024 128.728C66.5694 128.358 65.765 128.569 65.3957 129.189C65.0265 129.822 65.2375 130.626 65.8573 130.995C66.0947 131.14 66.332 131.272 66.5694 131.378C67.1892 131.681 67.7958 131.852 68.4024 132.024C68.8113 132.143 69.2201 132.248 69.6684 132.446L69.6816 132.459Z" fill="#999999"/>
<path d="M80.4161 133.302L79.216 133.026C78.5698 132.881 77.95 132.683 77.317 132.485L76.6709 132.287C75.9719 132.076 75.2334 132.472 75.0225 133.171C74.8115 133.869 75.2071 134.608 75.906 134.819L76.5258 135.017C77.2115 135.228 77.9105 135.452 78.6226 135.61L79.8358 135.887C79.9281 135.913 80.0336 135.913 80.1259 135.913C80.7325 135.913 81.2732 135.491 81.4051 134.885C81.5633 134.173 81.115 133.474 80.4029 133.302H80.4161Z" fill="#999999"/>
<path d="M59.5933 126.894C59.7648 127.039 59.9362 127.198 60.1208 127.343C60.3714 127.541 60.6615 127.646 60.9516 127.646C61.3341 127.646 61.7165 127.488 61.9671 127.171C62.4286 126.604 62.3495 125.774 61.7824 125.312L61.3077 124.903C60.9384 124.587 60.556 124.257 60.1604 123.981C59.5538 123.545 58.8812 123.361 58.2878 123.203L57.9449 123.11C57.2328 122.899 56.5075 123.308 56.3097 124.007C56.0987 124.706 56.5075 125.444 57.2064 125.642L57.6021 125.747C57.9977 125.853 58.4197 125.971 58.6439 126.13C58.9735 126.367 59.29 126.644 59.6065 126.908L59.5933 126.894Z" fill="#999999"/>
<path d="M76.2489 79.5199C77.5808 80.021 78.649 80.2319 79.8358 80.2319C80.1392 80.2319 80.4425 80.2583 80.7326 80.2715C81.0623 80.2979 81.4183 80.311 81.7744 80.311C82.3678 80.311 82.9876 80.2451 83.6074 80.021C84.6756 79.6122 85.7701 78.9398 86.8515 78.0168C87.8273 77.1861 88.5658 76.0918 89.1724 75.1161C89.6868 74.2986 90.3989 73.191 90.8472 71.8857L91.0714 71.2528C91.3747 70.4221 91.7176 69.4728 91.8758 68.4311C92.0341 67.3895 92.2055 66.1633 92.2055 64.8843C92.2055 63.9877 92.0077 63.1571 91.8363 62.4187C91.7572 62.0627 91.6648 61.7067 91.6253 61.3639C91.5725 60.9815 91.533 60.5859 91.5066 60.2036C91.4538 59.3993 91.3879 58.5818 91.111 57.7775C90.7813 56.8281 90.1087 56.1557 89.5681 55.6151C89.2911 55.3382 89.0274 55.0613 88.8691 54.8372C88.6977 54.5735 88.5526 54.3098 88.4076 54.0461C87.9724 53.2813 87.524 52.477 86.7724 51.8441L86.3108 51.4354C85.5591 50.7761 84.7151 50.0114 83.6602 49.6158C82.5392 49.1939 81.326 49.2071 80.271 49.2071H79.8227C78.7281 49.2071 77.8446 49.6158 77.0533 49.985C76.7896 50.1037 76.539 50.2223 76.2621 50.3278C75.9983 50.4333 75.7346 50.5124 75.4709 50.5915C74.6401 50.842 73.7038 51.1321 72.873 51.8441C72.1345 52.477 71.7257 53.2549 71.3169 54.0065C71.1586 54.2966 71.0004 54.5998 70.8157 54.8767L70.5256 55.325C70.0377 56.0766 69.4838 56.9204 69.1014 57.9884C68.719 59.096 68.5475 60.2167 68.3629 61.4298C68.3233 61.6803 68.2838 61.9176 68.2442 62.1682C68.0992 63.012 67.9541 63.8954 67.9541 64.8843C67.9541 65.2271 67.9541 65.5568 67.9277 65.8864C67.9013 66.7039 67.875 67.5477 68.0068 68.3916C68.0464 68.6817 68.086 68.9717 68.1255 69.2618C68.231 70.1452 68.3497 71.055 68.653 71.9252C68.9827 72.8614 69.5366 73.5998 70.0245 74.2458C70.2223 74.5095 70.4201 74.7601 70.5784 75.0238C70.7366 75.2743 70.8949 75.538 71.0399 75.8017C71.5015 76.5928 71.963 77.4103 72.7147 78.0564C73.5323 78.7552 74.4686 79.0057 75.2994 79.2167C75.6027 79.2958 75.906 79.3749 76.1962 79.4804L76.2489 79.5199ZM73.3741 74.5095C73.2026 74.2195 73.0312 73.9162 72.8466 73.6261C72.6488 73.3097 72.4114 72.9932 72.1608 72.6768C71.752 72.1362 71.3696 71.622 71.1718 71.0814C70.9608 70.4749 70.8685 69.7365 70.763 68.9454C70.7234 68.6421 70.6839 68.3257 70.6443 68.0092C70.552 67.4027 70.5784 66.7039 70.5916 65.9655C70.5916 65.6095 70.6179 65.2403 70.6179 64.8843C70.6179 64.1196 70.7366 63.3812 70.8685 62.6033C70.9081 62.3396 70.9608 62.0759 71.0004 61.799C71.1718 60.6782 71.3169 59.7157 71.6202 58.8455C71.8839 58.0807 72.3059 57.4478 72.7543 56.7622L73.0708 56.2875C73.295 55.9447 73.4796 55.5887 73.6642 55.2327C73.9807 54.6394 74.2444 54.1384 74.6005 53.8351C75.0093 53.4791 75.5895 53.3077 76.2489 53.1099C76.5654 53.0176 76.8951 52.9121 77.1984 52.7935C77.5281 52.6748 77.8446 52.5298 78.1611 52.3715C78.7809 52.0946 79.3084 51.8441 79.8227 51.8441H80.2974C80.4556 51.8441 80.6007 51.8441 80.759 51.8441C81.4974 51.8441 82.1832 51.8705 82.7371 52.0815C83.3437 52.3056 83.9371 52.833 84.5569 53.4L85.058 53.8483C85.4536 54.1911 85.7701 54.7317 86.1262 55.3514C86.2976 55.6547 86.4691 55.9579 86.6669 56.2612C86.9702 56.7358 87.3526 57.1182 87.7218 57.4874C88.1306 57.8961 88.5131 58.2785 88.6318 58.6609C88.79 59.1356 88.8428 59.7553 88.8955 60.4145C88.9351 60.8628 88.9615 61.3243 89.0274 61.7726C89.0933 62.1813 89.1856 62.6033 89.2779 63.0252C89.4362 63.6845 89.5681 64.3042 89.5681 64.8975C89.5681 65.9919 89.4098 67.1126 89.2779 68.062C89.1593 68.8399 88.8823 69.6178 88.6054 70.3694L88.368 71.055C88.0383 71.9912 87.5372 72.8218 86.957 73.7316C86.4427 74.5359 85.8361 75.4325 85.1371 76.039C84.2931 76.7642 83.4624 77.2784 82.6843 77.5685C82.2227 77.7399 81.6161 77.7004 80.9172 77.6608C80.5611 77.6344 80.2051 77.6081 79.849 77.6081C78.9919 77.6081 78.227 77.4498 77.1852 77.0675C76.816 76.9224 76.4203 76.817 76.0247 76.7115C75.3917 76.5401 74.8379 76.395 74.4818 76.0918C74.073 75.7358 73.7301 75.1424 73.3741 74.5227V74.5095Z" fill="#999999"/>
<path d="M111.67 61.7467C111.314 60.8632 110.826 59.8348 109.824 58.9909L109.507 58.714C108.782 58.068 107.872 57.2637 106.54 57.2637C105.327 57.2637 104.074 57.7647 103.006 58.6745C102.241 59.3206 101.634 60.2567 101.094 61.6016C100.751 62.4587 100.355 63.6058 100.355 64.8847C100.355 66.0846 100.395 67.2449 100.804 68.2865C101.292 69.5259 102.03 70.6203 102.834 71.3059C103.784 72.1102 105.208 72.6113 106.54 72.6113C107.621 72.6113 109.164 72.2816 110.272 71.3323C111.05 70.673 111.314 69.7369 111.551 68.9062C111.63 68.6293 111.709 68.3525 111.802 68.1019L111.894 67.8778C112.237 67.0207 112.633 66.0582 112.633 64.8847C112.633 63.8431 112.237 62.9992 111.92 62.3136C111.828 62.1158 111.736 61.9312 111.657 61.7335L111.67 61.7467Z" fill="#999999"/>
<path d="M79.2424 71.9125C79.3479 71.9125 79.4402 71.9125 79.5457 71.9125H79.8358C81.1545 71.9125 82.0908 71.5697 83.0667 70.7522L83.1854 70.6467C83.8711 70.0666 84.7283 69.3414 85.203 68.1547C85.6514 67.0339 85.6514 65.8605 85.6514 64.9111V64.5024C85.6514 63.5662 85.6646 62.5905 85.2822 61.628C84.7415 60.2831 84.1349 59.347 83.37 58.7009C82.17 57.6724 80.9831 57.1582 79.8358 57.1582C78.5171 57.1582 77.106 57.6724 76.1302 58.5031C75.0884 59.3865 74.429 60.7841 74.1257 61.5225C73.796 62.3532 73.3477 63.619 73.3477 64.9111C73.3477 65.9264 73.8224 66.7702 74.2048 67.4295C74.3367 67.6668 74.4818 67.891 74.5609 68.1151C74.9565 69.1172 75.4049 70.238 76.3544 71.0423C77.2907 71.8334 78.3456 71.9125 79.2424 71.9125Z" fill="#999999"/>
<path d="M113.569 51.7786C112.488 50.8557 111.235 50.3151 110.259 49.9459C109.283 49.5767 107.978 49.1548 106.553 49.1548C105.287 49.1548 103.942 49.1943 102.729 49.6558C101.819 49.9986 100.5 50.6052 99.3662 51.5809C98.575 52.2533 97.8233 53.1895 96.9661 54.5212C96.3859 55.4178 95.6738 56.5385 95.2386 57.8043C94.9617 58.6086 94.988 59.4261 95.0144 60.1645C95.0276 60.6259 95.0408 61.0611 94.988 61.4302C94.9485 61.7335 94.8826 62.0236 94.8298 62.34C94.6847 63.1048 94.5265 63.975 94.5265 64.9111C94.5265 65.8473 94.7639 66.5857 94.9617 67.2713C95.0804 67.6537 95.1859 68.0229 95.2386 68.3525C95.41 69.5128 95.5947 70.6335 95.9903 71.7543C96.0958 72.0443 96.1749 72.3344 96.2672 72.6113C96.5178 73.442 96.7815 74.299 97.2958 75.0901C98.0211 76.2241 98.9442 77.0284 99.7882 77.7404C100.725 78.5447 101.74 79.138 102.953 79.5995C104.259 80.1005 105.38 80.3115 106.566 80.3115C106.909 80.3115 107.252 80.3642 107.595 80.4038C108.03 80.4565 108.479 80.5093 108.953 80.5093C109.428 80.5093 109.929 80.4565 110.43 80.2587C111.512 79.85 112.699 79.1248 113.754 78.215C114.611 77.4767 115.231 76.501 115.824 75.5516L116.048 75.2088C116.536 74.4309 116.787 73.587 117.037 72.7564C117.13 72.4399 117.222 72.1235 117.341 71.807C117.446 71.4906 117.578 71.1873 117.723 70.8709C118.039 70.1589 118.382 69.3546 118.527 68.4184C118.686 67.324 118.778 66.1374 118.778 64.8848C118.778 63.9882 118.514 63.1971 118.277 62.5114C118.145 62.1159 118.013 61.7467 117.973 61.4302C117.802 60.3359 117.617 59.1624 117.222 58.0153C117.09 57.6461 117.011 57.2637 116.919 56.8945C116.747 56.1166 116.562 55.2991 116.088 54.5607C115.468 53.585 114.637 52.6489 113.608 51.7655L113.569 51.7786ZM114.69 58.8987C114.98 59.7425 115.151 60.6523 115.336 61.839C115.415 62.3928 115.587 62.8806 115.745 63.3685C115.929 63.9222 116.101 64.4365 116.101 64.898C116.101 66.0187 116.022 67.0735 115.877 68.036C115.784 68.6294 115.534 69.1963 115.27 69.816C115.099 70.1984 114.94 70.5676 114.809 70.95C114.69 71.306 114.571 71.6752 114.479 72.018C114.281 72.6904 114.096 73.3365 113.806 73.798L113.582 74.154C113.068 74.9715 112.58 75.7362 112.026 76.2241C111.208 76.9229 110.285 77.503 109.494 77.7931C109.125 77.9382 108.545 77.859 107.925 77.7931C107.463 77.7404 107.015 77.6876 106.566 77.6876C105.696 77.6876 104.892 77.5294 103.876 77.147C102.953 76.8042 102.215 76.3691 101.476 75.7362C100.725 75.0901 100.026 74.4836 99.5113 73.6793C99.1948 73.1915 99.0102 72.5586 98.786 71.8466C98.6937 71.5433 98.5882 71.2269 98.4827 70.8972C98.1662 69.9875 98.0079 69.0249 97.8497 67.9701C97.7706 67.4691 97.6387 66.9944 97.4936 66.5329C97.3222 65.966 97.1639 65.4254 97.1639 64.9111C97.1639 64.2255 97.2958 63.5399 97.4277 62.8279C97.4936 62.4851 97.5596 62.1554 97.5991 61.8258C97.6914 61.2061 97.6651 60.6128 97.6519 60.0722C97.6387 59.5184 97.6123 59.0042 97.731 58.6613C98.0607 57.6988 98.6673 56.7627 99.1816 55.932C99.8805 54.8244 100.487 54.0861 101.067 53.5718C101.727 53.0049 102.637 52.4907 103.639 52.1083C104.443 51.805 105.459 51.7786 106.527 51.7786C107.529 51.7786 108.545 52.1083 109.309 52.3984C110.074 52.6884 111.063 53.1104 111.828 53.7564C112.659 54.4684 113.318 55.2068 113.806 55.9716C114.03 56.3276 114.162 56.8813 114.294 57.4747C114.4 57.9362 114.505 58.4108 114.677 58.8723L114.69 58.8987Z" fill="#999999"/>
<path d="M103.085 84.7285C102.333 84.0956 101.344 83.555 99.8541 83.0012L99.7223 82.9485C98.7728 82.5925 97.6914 82.1837 96.5441 81.9991C95.7265 81.8805 94.9616 82.0387 94.2759 82.1837C93.366 82.3815 92.7198 82.3551 92.0209 82.3024C91.3219 82.2628 90.6098 82.2101 89.8713 82.3024C88.9482 82.4079 88.1966 82.7639 87.5372 83.0672C87.2471 83.199 86.957 83.344 86.6668 83.4363C85.414 83.8583 84.4646 84.2802 83.5414 85.1636C82.7634 85.902 81.8667 86.7458 81.5106 88.2226C81.2337 89.3565 81.3787 90.53 81.537 91.7694C81.7348 93.3384 82.2755 94.3537 83.3568 95.158C84.3327 95.8832 85.4272 96.226 86.9174 96.2524C87.2207 96.2524 87.6031 96.3447 87.9988 96.4238C88.5262 96.5293 89.1065 96.6611 89.7131 96.6611C89.9109 96.6611 90.1087 96.6611 90.3065 96.6216C90.7021 96.5688 91.0714 96.5029 91.4406 96.437C92.1264 96.3183 92.7198 96.2128 93.155 96.2128C93.6429 96.2128 94.1177 96.1865 94.566 96.1601C95.1199 96.1205 95.6474 96.0942 96.1089 96.1337C96.887 96.1996 97.5859 96.1337 98.2189 96.0942C98.5881 96.0678 98.931 96.0282 99.2607 96.0414C99.4849 96.0414 99.7091 96.0546 99.9201 96.0678C100.949 96.1205 102.122 96.1733 103.098 95.4876C104.087 94.7888 104.813 93.5758 105.182 91.9935C105.538 90.4641 105.564 89.1587 105.248 88.1039C104.865 86.8249 104.061 85.5723 103.072 84.7417L103.085 84.7285ZM102.623 91.3739C102.399 92.2968 102.03 93.0088 101.582 93.3121C101.344 93.4835 100.685 93.4439 100.039 93.4176C99.8014 93.4176 99.5508 93.3912 99.3134 93.3912C98.8914 93.3912 98.4695 93.4176 98.0079 93.4571C97.454 93.4967 96.887 93.5494 96.3199 93.4967C95.6738 93.4439 95.0276 93.4967 94.4078 93.523C93.3792 93.589 92.2582 93.6153 90.9791 93.8395C90.6362 93.8922 90.2802 93.9582 89.9109 94.0109C89.5549 94.0636 89.0669 93.9582 88.5394 93.8527C88.0383 93.7472 87.5108 93.6285 86.957 93.6285C86.0338 93.6153 85.4404 93.4439 84.9393 93.0616C84.5701 92.7847 84.2799 92.4946 84.1481 91.4398C84.0162 90.3981 83.8975 89.5147 84.0689 88.8423C84.2272 88.1566 84.636 87.7479 85.3877 87.0491C85.9283 86.5349 86.5481 86.2712 87.4976 85.9415C87.8801 85.8097 88.2625 85.6383 88.6449 85.4537C89.1724 85.2032 89.6735 84.979 90.1483 84.9131C90.3329 84.8867 90.5439 84.8867 90.7417 84.8867C91.0846 84.8867 91.4538 84.9131 91.8363 84.9395C92.8649 85.0054 93.933 84.9395 94.8034 84.768C95.3045 84.6626 95.7661 84.5571 96.1089 84.6098C96.9925 84.7417 97.8892 85.0845 98.7596 85.4141L98.8914 85.4669C99.6299 85.7438 100.685 86.1789 101.344 86.7326C101.951 87.2469 102.465 88.0512 102.703 88.8423C102.874 89.4356 102.834 90.3322 102.597 91.3739H102.623Z" fill="#999999"/>
<path d="M101.7 40.0038C102.017 39.7401 102.307 39.4632 102.61 39.1732C102.887 38.9095 103.164 38.6326 103.468 38.3952C103.718 38.1975 104.1 38.026 104.509 37.8546C105.182 37.5646 105.485 36.7998 105.208 36.1274C104.918 35.4549 104.14 35.1385 103.481 35.4286C102.953 35.6527 102.347 35.9164 101.819 36.3383C101.45 36.6284 101.12 36.958 100.79 37.2745C100.54 37.5118 100.289 37.7623 100.026 37.9865C99.4718 38.448 99.3926 39.2786 99.8542 39.8456C100.118 40.1621 100.487 40.3203 100.87 40.3203C101.173 40.3203 101.463 40.2148 101.714 40.017L101.7 40.0038Z" fill="#999999"/>
<path d="M94.3945 15.6246C94.7506 15.6246 95.1067 15.4796 95.3704 15.1895C95.4891 15.0577 95.621 14.9258 95.7528 14.8071C96.1089 14.4907 96.5705 14.227 97.0716 13.9501C97.5067 13.7128 97.9419 13.4491 98.443 13.0931C99.0101 12.658 99.1024 11.8405 98.6672 11.2735C98.232 10.6934 97.4012 10.5879 96.821 11.023C96.4913 11.2603 96.1353 11.4581 95.7792 11.6691C95.1858 12.0119 94.566 12.3547 93.9989 12.8689C93.8011 13.0403 93.6165 13.2381 93.4319 13.4359C92.9439 13.9765 92.9835 14.8071 93.511 15.295C93.7616 15.5191 94.0781 15.6378 94.3945 15.6378V15.6246Z" fill="#999999"/>
<path d="M103.032 9.78357C103.23 9.78357 103.428 9.74402 103.626 9.63854C104.114 9.38802 104.641 9.19024 105.195 8.97927C105.617 8.82105 106.052 8.64964 106.461 8.46505C106.646 8.38594 106.87 8.30683 107.107 8.22772C107.793 8.00357 108.175 7.25201 107.951 6.56638C107.727 5.88075 106.975 5.48519 106.289 5.72252C105.96 5.828 105.657 5.94667 105.393 6.05215C105.024 6.21038 104.641 6.3686 104.259 6.51364C103.665 6.73779 103.045 6.97512 102.439 7.27838C101.793 7.60801 101.529 8.39912 101.859 9.0452C102.096 9.50668 102.557 9.77039 103.032 9.77039V9.78357Z" fill="#999999"/>
<path d="M107.199 30.8401L107.028 31.2356C106.725 31.8949 107.028 32.686 107.674 32.9893C107.846 33.0684 108.043 33.1079 108.228 33.1079C108.729 33.1079 109.204 32.8178 109.428 32.3432L109.613 31.9212C109.771 31.5521 109.942 31.1829 110.14 30.8401C110.325 30.5368 110.628 30.2204 110.945 29.8775C111.05 29.7721 111.156 29.6534 111.248 29.5479C111.419 29.6402 111.591 29.7457 111.775 29.8512L111.973 29.9698C112.184 30.1017 112.422 30.1544 112.646 30.1544C113.094 30.1544 113.529 29.9303 113.78 29.5084C114.149 28.8886 113.951 28.0712 113.318 27.702L113.134 27.5965C112.58 27.2669 112.039 26.8845 111.353 26.6867C110.325 26.3835 109.481 27.5833 109.415 27.6624C109.296 27.8075 109.164 27.9393 109.032 28.0712C108.65 28.4667 108.228 28.9282 107.885 29.482C107.608 29.9435 107.397 30.4049 107.199 30.8532V30.8401Z" fill="#999999"/>
<path d="M112.751 5.77501C113.041 5.77501 113.332 5.68271 113.569 5.48493C114.874 4.4433 115.653 3.11159 115.745 1.80625C115.758 1.70077 115.771 1.59529 115.758 1.48981V1.29203C115.758 1.29203 115.745 1.2261 115.732 1.19973C115.666 0.474546 115.02 -0.0660487 114.294 0.0130627C113.569 0.0789889 113.028 0.725065 113.107 1.45025V1.54255C113.107 2.1227 112.646 2.84789 111.907 3.44122C111.34 3.90271 111.248 4.73338 111.71 5.30034C111.973 5.62997 112.356 5.78819 112.738 5.78819L112.751 5.77501Z" fill="#999999"/>
<path d="M112.488 23.7072C112.488 23.7072 112.567 23.7072 112.606 23.7072C113.279 23.7072 113.859 23.193 113.925 22.5073C113.965 22.125 114.004 21.7294 114.083 21.3866C114.189 20.9778 114.334 20.5691 114.466 20.1736C114.611 19.7648 114.756 19.3429 114.874 18.921C115.072 18.2221 114.65 17.4969 113.951 17.2992C113.252 17.1146 112.527 17.5233 112.329 18.2221C112.237 18.5781 112.105 18.9341 111.986 19.2901C111.815 19.778 111.644 20.2527 111.525 20.7537C111.393 21.2811 111.34 21.7821 111.301 22.27C111.235 22.9952 111.775 23.6413 112.501 23.694L112.488 23.7072Z" fill="#999999"/>
<path d="M114.65 6.84326C113.925 6.84326 113.332 7.4366 113.345 8.17497V8.74194C113.345 9.58579 113.345 10.4296 113.305 11.2603C113.305 11.524 113.292 11.7877 113.292 12.1174C113.292 12.8425 113.885 13.4095 114.611 13.4095C115.336 13.4095 115.929 12.7898 115.929 12.0646C115.929 11.8273 115.929 11.5899 115.929 11.3658C115.969 10.4956 115.982 9.62535 115.982 8.74194V8.16179C115.982 7.4366 115.389 6.85645 114.663 6.85645L114.65 6.84326Z" fill="#999999"/>
<path d="M90.8999 43.7486C90.8999 43.7486 90.9263 43.7486 90.9395 43.7486C91.2692 43.8277 91.612 43.8541 91.9681 43.8541C92.6934 43.8541 93.511 43.7091 94.6319 43.3926C94.8561 43.3267 95.1067 43.274 95.344 43.2344C96.0562 43.1157 96.5441 42.4301 96.4122 41.7049C96.2935 40.9929 95.5946 40.5051 94.8825 40.6369C94.5396 40.6897 94.2099 40.7688 93.8934 40.8611C92.7593 41.1907 92.0604 41.283 91.5329 41.1775C91.5329 41.1775 91.5197 41.1775 91.5065 41.1775C91.1637 41.0984 90.9131 40.8611 90.2274 39.002L88.9746 39.4239L87.7614 39.9381C88.4075 41.6654 89.0273 43.3003 90.8999 43.7486Z" fill="#999999"/>
<path d="M88.3021 29.7854C88.5658 29.0998 88.2229 28.3482 87.5372 28.0845C86.8515 27.8208 86.0998 28.1636 85.836 28.8493C85.6646 29.2844 85.4668 29.8777 85.4536 30.537V30.8798C85.4536 31.6577 85.4932 32.5016 85.5855 33.3586C85.6514 34.0442 86.2317 34.5453 86.891 34.5453C86.9306 34.5453 86.9833 34.5453 87.0229 34.5453C87.7482 34.4662 88.2757 33.8201 88.1966 33.0949C88.1174 32.317 88.0779 31.5786 88.0779 30.8798V30.5765C88.0779 30.3392 88.1966 30.0227 88.2889 29.7854H88.3021Z" fill="#999999"/>
<path d="M59.8439 80.5354C59.4219 80.7728 59.2241 80.9046 59.0263 81.0497C58.8812 81.1552 58.7362 81.2474 58.4197 81.432C57.7867 81.788 57.5493 82.5923 57.9054 83.2252C58.1428 83.6603 58.5911 83.9109 59.0659 83.9109C59.2769 83.9109 59.5011 83.8581 59.6989 83.7526C60.1209 83.5153 60.3319 83.3835 60.5297 83.2384C60.6747 83.1329 60.8198 83.0406 61.1363 82.856C61.5319 82.6319 61.7297 82.5132 61.9143 82.3946C62.0858 82.2891 62.244 82.1836 62.5869 81.999C62.9429 81.8012 63.1144 81.7089 63.299 81.6166C63.4968 81.5112 63.6946 81.4189 64.0902 81.1947C64.5254 80.9574 64.7232 80.8123 64.921 80.6673C65.0661 80.5618 65.2111 80.4563 65.5276 80.2849C66.1606 79.9289 66.398 79.1246 66.042 78.4917C65.6859 77.8588 64.8815 77.6215 64.2485 77.9775C63.8133 78.2148 63.6155 78.3599 63.4177 78.5049C63.2726 78.6104 63.1276 78.7159 62.8111 78.8873C62.455 79.0851 62.2836 79.1774 62.099 79.2697C61.9011 79.3751 61.7033 79.4674 61.3077 79.6916C60.9121 79.9157 60.7275 80.0212 60.5297 80.1399C60.3582 80.2454 60.1868 80.3509 59.8439 80.5354Z" fill="#999999"/>
<path d="M66.0683 81.1813C65.765 81.3396 65.6068 81.4055 65.4485 81.4714C65.2111 81.5637 64.9738 81.656 64.5254 81.9065C64.2221 82.0648 64.0639 82.1307 63.9056 82.1966C63.6682 82.2889 63.4309 82.3812 62.9957 82.6317C62.3627 82.9877 62.1253 83.792 62.4814 84.4249C62.7188 84.86 63.1671 85.0974 63.6419 85.0974C63.8529 85.0974 64.077 85.0446 64.288 84.926C64.5913 84.7545 64.7496 84.7018 64.9078 84.6359C65.1452 84.5436 65.3826 84.4513 65.8178 84.2008C66.1211 84.0425 66.2793 83.9766 66.4376 83.9107C66.6749 83.8184 66.9123 83.7261 67.3607 83.4756C67.8486 83.2119 68.086 83.0009 68.2706 82.8427C68.3893 82.7504 68.4948 82.6449 68.7585 82.5131L70.2355 81.6824C70.8685 81.3264 71.1059 80.5221 70.7498 79.8892C70.3938 79.2563 69.6025 79.019 68.9563 79.375L67.4794 80.2056C66.9914 80.4693 66.7541 80.6803 66.5694 80.8385C66.4508 80.9308 66.3453 81.0363 66.0815 81.1682L66.0683 81.1813Z" fill="#999999"/>
<path d="M122.536 77.6347C122.286 77.7798 122.141 77.8193 121.996 77.8721C121.758 77.9512 121.455 78.0435 120.967 78.3072C120.505 78.5577 120.308 78.7159 120.097 78.8873C119.965 78.9928 119.833 79.0851 119.556 79.2433C119.213 79.4279 119.042 79.5202 118.87 79.5993C118.659 79.7048 118.461 79.7971 118.053 80.0213L116.576 80.8388C115.943 81.1948 115.705 81.999 116.061 82.6319C116.299 83.0671 116.747 83.3044 117.222 83.3044C117.433 83.3044 117.657 83.2516 117.855 83.133L119.332 82.3155C119.675 82.1309 119.846 82.0386 120.017 81.9595C120.228 81.854 120.426 81.7617 120.835 81.5376C121.297 81.287 121.494 81.1288 121.705 80.9574C121.837 80.8519 121.969 80.7596 122.246 80.6014C122.497 80.4564 122.642 80.4168 122.787 80.3641C123.024 80.285 123.327 80.1927 123.815 79.929C124.448 79.573 124.686 78.7687 124.33 78.1358C123.974 77.5029 123.182 77.2656 122.536 77.6216V77.6347Z" fill="#999999"/>
<path d="M126.15 82.4735C126.361 82.3681 126.572 82.2758 126.98 82.0516C127.257 81.8934 127.402 81.8406 127.561 81.7879C127.785 81.7088 128.075 81.6033 128.536 81.3528C129.169 80.9968 129.407 80.1925 129.051 79.5596C128.695 78.9267 127.89 78.6894 127.257 79.0454C126.98 79.2036 126.835 79.2563 126.677 79.3091C126.453 79.3882 126.163 79.4937 125.701 79.7442C125.372 79.9288 125.2 80.0079 125.029 80.087C124.818 80.1925 124.607 80.2848 124.198 80.5089C123.71 80.7858 123.459 80.9968 123.275 81.155C123.143 81.2737 123.051 81.3528 122.813 81.4846C122.536 81.6429 122.391 81.6956 122.246 81.7484C121.996 81.8406 121.745 81.9329 121.27 82.1835C120.637 82.5395 120.4 83.3438 120.756 83.9767C120.993 84.4118 121.442 84.6623 121.916 84.6623C122.127 84.6623 122.352 84.6095 122.549 84.5041C122.826 84.359 122.971 84.3063 123.117 84.2535C123.341 84.1744 123.618 84.069 124.092 83.8184C124.58 83.5415 124.818 83.3306 125.015 83.1724C125.147 83.0537 125.24 82.9746 125.477 82.8427C125.807 82.6581 125.978 82.579 126.15 82.4999V82.4735Z" fill="#999999"/>
<path d="M92.6934 38.8568C92.8121 38.8963 92.9308 38.9095 93.0495 38.9095C93.6297 38.9095 94.1572 38.5271 94.3154 37.947C94.4341 37.5382 94.4869 37.4328 94.5924 37.2482C94.7374 36.9976 94.9221 36.6548 95.199 35.8769C95.3441 35.4418 95.3836 35.0199 95.4232 34.5979C95.4627 34.2287 95.4891 33.8859 95.5946 33.609C95.7265 33.2662 95.8979 32.9234 96.0694 32.5674C96.2276 32.2378 96.399 31.895 96.5441 31.539C96.6232 31.3412 96.821 31.1038 97.0188 30.8401C97.2826 30.4973 97.5859 30.115 97.8101 29.6403C97.9815 29.2843 98.1925 28.9415 98.4035 28.5987C98.5881 28.2954 98.7728 28.0053 98.9442 27.6889C99.2079 27.1878 99.3134 26.6868 99.4057 26.2385C99.4585 25.9352 99.5244 25.632 99.6167 25.5001C99.9069 25.0386 100.223 24.6035 100.553 24.1684L100.922 23.6674C101.041 23.5092 101.305 23.3246 101.582 23.1268C101.925 22.8894 102.307 22.6257 102.65 22.2434C102.993 21.8478 103.217 21.4259 103.415 21.0435C103.547 20.7798 103.705 20.4897 103.823 20.3843C104.47 19.8305 105.024 19.4085 105.525 19.1185C106.144 18.7493 106.355 17.9318 105.986 17.3121C105.617 16.6924 104.799 16.4814 104.18 16.8506C103.547 17.233 102.861 17.734 102.096 18.3933C101.595 18.8284 101.318 19.369 101.067 19.8305C100.935 20.0942 100.804 20.3447 100.672 20.4897C100.553 20.6348 100.316 20.793 100.078 20.9512C99.6695 21.2281 99.1684 21.5841 98.7859 22.0983L98.4299 22.573C98.0606 23.0609 97.6914 23.5619 97.3617 24.0893C97.0188 24.6431 96.9002 25.2364 96.8079 25.7111C96.7551 25.988 96.6892 26.2781 96.61 26.4231C96.465 26.7 96.3067 26.9505 96.1485 27.2142C95.8979 27.6361 95.6342 28.0449 95.4364 28.48C95.3309 28.7041 95.1331 28.9547 94.9353 29.2052C94.6583 29.5612 94.3286 29.9831 94.1176 30.4841C93.9858 30.8006 93.8407 31.1038 93.6957 31.3939C93.4847 31.8159 93.2868 32.2378 93.1286 32.6465C92.8912 33.2662 92.8385 33.8727 92.7857 34.3474C92.7594 34.6111 92.733 34.8748 92.6934 35.0067C92.5088 35.5605 92.4033 35.7451 92.2846 35.9428C92.1 36.2593 91.9549 36.5625 91.7571 37.2218C91.5593 37.9206 91.9681 38.6458 92.667 38.8436L92.6934 38.8568Z" fill="#999999"/>
<path d="M176.301 85.5064C175.932 85.6514 175.549 85.7569 175.154 85.8624C174.85 85.9415 174.547 86.0338 174.257 86.1261C173.809 86.2711 173.334 86.3766 172.793 86.4294C172.068 86.5085 171.54 87.1546 171.619 87.8797C171.685 88.5522 172.266 89.0664 172.925 89.0664C172.965 89.0664 173.017 89.0664 173.057 89.0664C173.782 88.9873 174.428 88.8555 175.061 88.6445C175.312 88.5654 175.576 88.4863 175.839 88.4203C176.327 88.2885 176.815 88.1434 177.264 87.972C177.936 87.6951 178.266 86.9304 177.989 86.258C177.712 85.5855 176.947 85.2559 176.275 85.5328L176.301 85.5064Z" fill="#999999"/>
<path d="M180.811 72.4923C181.338 71.9913 181.365 71.1606 180.877 70.6332C180.336 70.053 179.65 69.6838 179.057 69.341C178.767 69.1828 178.464 69.0246 178.213 68.84C177.91 68.6158 177.606 68.4049 177.29 68.2071C176.67 67.8247 175.852 68.0093 175.47 68.629C175.088 69.2487 175.272 70.0662 175.892 70.4486C176.156 70.6068 176.406 70.7782 176.657 70.9628C177 71.2133 177.382 71.4375 177.778 71.6484C178.239 71.9121 178.688 72.1495 178.938 72.4264C179.202 72.7033 179.545 72.8483 179.901 72.8483C180.231 72.8483 180.547 72.7296 180.798 72.4923H180.811Z" fill="#999999"/>
<path d="M162.969 77.9378V77.4895C162.969 76.6325 162.982 75.8677 163.193 75.2085C163.259 75.0107 163.338 74.8261 163.417 74.6415C163.72 73.9822 163.43 73.1911 162.771 72.8879C162.098 72.5846 161.32 72.8747 161.017 73.5339C160.885 73.8108 160.779 74.1009 160.674 74.391C160.344 75.4062 160.318 76.4347 160.318 77.4763V77.9906C160.318 78.7157 160.911 79.2827 161.637 79.2827C162.362 79.2827 162.955 78.663 162.955 77.9378H162.969Z" fill="#999999"/>
<path d="M166.621 85.5193C166.424 85.4798 166.279 85.4402 166.186 85.3743C165.87 85.1501 165.606 84.6491 165.316 84.1349C165.171 83.858 165.026 83.5943 164.854 83.3437C164.472 82.724 163.654 82.5526 163.034 82.935C162.415 83.3174 162.23 84.1349 162.626 84.7546C162.758 84.9655 162.876 85.1765 162.995 85.4006C163.391 86.1258 163.839 86.9301 164.63 87.5103C165.039 87.8135 165.54 88.0113 166.147 88.1168C166.226 88.13 166.305 88.1432 166.384 88.1432C167.004 88.1432 167.571 87.6949 167.676 87.062C167.808 86.35 167.334 85.6644 166.608 85.5325L166.621 85.5193Z" fill="#999999"/>
<path d="M170.182 66.4404C169.615 66.4536 168.771 66.5064 167.966 66.7701C167.017 67.0733 166.344 67.7721 165.817 68.3259L166.7 69.3016L167.716 70.1587C168.098 69.7631 168.454 69.3939 168.784 69.2884C169.153 69.1698 169.628 69.1038 170.261 69.0775C170.986 69.0511 171.567 68.4446 171.54 67.7194C171.514 66.9942 170.934 66.4536 170.182 66.4404Z" fill="#999999"/>
<path d="M182.987 77.8849C182.987 77.1597 182.393 76.5928 181.668 76.5928C180.943 76.5928 180.349 77.2125 180.349 77.9377V79.2298C180.363 79.7177 180.349 80.2846 180.204 80.7329C180.138 80.9175 180.059 81.1153 179.98 81.2999C179.664 81.9592 179.954 82.7371 180.6 83.0535C180.785 83.1458 180.969 83.1854 181.167 83.1854C181.655 83.1854 182.13 82.9085 182.354 82.4338C182.486 82.1569 182.604 81.8537 182.71 81.5636C182.974 80.7593 183 79.9418 183 79.243V77.8981L182.987 77.8849Z" fill="#999999"/>
<path d="M2.63746 77.9379V77.4896C2.63746 76.6326 2.65065 75.8679 2.86164 75.2086C2.92758 75.0108 3.0067 74.813 3.08583 74.6284C3.38913 73.9692 3.08583 73.1781 2.42646 72.888C1.7671 72.5847 0.975859 72.888 0.685739 73.5473C0.567053 73.8241 0.448368 74.101 0.356057 74.4043C0.0263746 75.4196 0 76.448 0 77.5028V78.017C0 78.7422 0.593428 79.3092 1.31873 79.3092C2.04403 79.3092 2.63746 78.6895 2.63746 77.9643V77.9379Z" fill="#999999"/>
<path d="M20.4799 72.4923C21.0073 71.9913 21.0469 71.1606 20.5458 70.6332C20.0051 70.053 19.3194 69.6707 18.7259 69.341C18.4358 69.1828 18.1325 69.0246 17.882 68.8268C17.5787 68.6026 17.2753 68.3917 16.9588 68.2071C16.339 67.8247 15.5214 68.0093 15.139 68.629C14.7566 69.2487 14.9412 70.0662 15.561 70.4486C15.8247 70.6068 16.0753 70.7782 16.3259 70.9628C16.6687 71.2133 17.0643 71.4375 17.4468 71.6484C17.9083 71.9121 18.3567 72.1495 18.6073 72.4264C18.871 72.7033 19.2139 72.8483 19.5699 72.8483C19.8864 72.8483 20.2161 72.7296 20.4667 72.4923H20.4799Z" fill="#999999"/>
<path d="M21.337 76.5933C20.6117 76.5933 20.0183 77.213 20.0183 77.9382V79.2171C20.0315 79.705 20.0183 80.2719 19.8733 80.7202C19.8073 80.918 19.7282 81.1026 19.6491 81.2872C19.3458 81.9465 19.6227 82.7244 20.2821 83.0408C20.4667 83.12 20.6513 83.1595 20.8359 83.1595C21.337 83.1595 21.8118 82.8826 22.036 82.3948C22.1678 82.1179 22.2865 81.8146 22.3788 81.5245C22.6426 80.7202 22.669 79.9028 22.669 79.2039V77.8722C22.6558 77.147 22.0623 76.5801 21.337 76.5801V76.5933Z" fill="#999999"/>
<path d="M15.9698 85.5064C15.6006 85.6514 15.2181 85.7569 14.8225 85.8624C14.5192 85.9415 14.2159 86.0338 13.9258 86.1261C13.4774 86.2711 13.0027 86.3766 12.462 86.4294C11.7367 86.5085 11.2092 87.1546 11.2883 87.8797C11.3543 88.5522 11.9345 89.0664 12.5939 89.0664C12.6466 89.0664 12.6862 89.0664 12.7389 89.0664C13.451 88.9873 14.1104 88.8555 14.7434 88.6445C14.9939 88.5654 15.2577 88.4863 15.5214 88.4203C16.0094 88.2885 16.4973 88.1434 16.9457 87.9589C17.6182 87.682 17.9479 86.9172 17.671 86.2448C17.394 85.5723 16.6292 85.2427 15.9566 85.5196L15.9698 85.5064Z" fill="#999999"/>
<path d="M9.85089 66.4403C9.28384 66.4535 8.43985 66.5062 7.63543 66.7699C6.68594 67.0732 6.05295 67.7325 5.4859 68.3126L6.36945 69.2883L7.38487 70.1454C7.7673 69.7498 8.12336 69.3806 8.45304 69.2751C8.82228 69.1565 9.29703 69.0906 9.93002 69.0642C10.6553 69.0378 11.2356 68.4313 11.2092 67.7061C11.1828 66.9809 10.5366 66.4008 9.85089 66.4271V66.4403Z" fill="#999999"/>
<path d="M6.30351 85.5193C6.1057 85.4797 5.94745 85.4402 5.86833 85.3743C5.55183 85.1501 5.28809 84.6491 4.99797 84.1217C4.85291 83.8448 4.70785 83.5811 4.53641 83.3305C4.15398 82.7108 3.33637 82.5262 2.71656 82.9218C2.09676 83.3042 1.91214 84.1217 2.30776 84.7414C2.43963 84.9523 2.55832 85.1765 2.677 85.3874C3.07262 86.1126 3.52099 86.9301 4.31223 87.4971C4.72103 87.8003 5.22215 87.9981 5.82876 88.1036C5.90789 88.1168 5.98701 88.13 6.06614 88.13C6.69913 88.13 7.25299 87.6817 7.35849 87.0488C7.49036 86.3368 7.01562 85.6511 6.29032 85.5193H6.30351Z" fill="#999999"/>
</g>
<defs>
<clipPath id="clip0_6876_1464">
<rect width="183" height="165" fill="white"/>
</clipPath>
</defs>
</svg>
