<svg width="16" height="16" viewBox="0 0 16 16" fill="none" xmlns="http://www.w3.org/2000/svg">
<g clip-path="url(#clip0_7158_10046)">
<path d="M13.76 0H5.81647C4.58353 0 3.57647 1.00706 3.57647 2.24V3.12471C3.57647 3.36 3.74588 3.53882 3.97176 3.57647H2.24C1.00706 3.57647 0 4.58353 0 5.81647V13.76C0 14.9929 1.00706 16 2.24 16H10.1835C11.4165 16 12.4235 14.9929 12.4235 13.76V12.0282C12.4612 12.2541 12.6494 12.4235 12.8753 12.4235H13.76C14.9929 12.4235 16 11.4165 16 10.1835V2.24C16 1.00706 14.9929 0 13.76 0ZM11.4824 13.76C11.4824 14.4753 10.8988 15.0588 10.1835 15.0588H2.24C1.52471 15.0588 0.941176 14.4753 0.941176 13.76V5.81647C0.941176 5.10118 1.52471 4.51765 2.24 4.51765H10.1835C10.8988 4.51765 11.4824 5.10118 11.4824 5.81647V13.76ZM15.0588 10.1835C15.0588 10.8988 14.4753 11.4824 13.76 11.4824H12.8753C12.64 11.4824 12.4612 11.6518 12.4235 11.8776V5.81647C12.4235 4.58353 11.4165 3.57647 10.1835 3.57647H4.12235C4.34824 3.53882 4.51765 3.35059 4.51765 3.12471V2.24C4.51765 1.52471 5.10118 0.941176 5.81647 0.941176H13.76C14.4753 0.941176 15.0588 1.52471 15.0588 2.24V10.1835Z" fill="#555555"/>
</g>
<defs>
<clipPath id="clip0_7158_10046">
<rect width="16" height="16" fill="white"/>
</clipPath>
</defs>
</svg>
