<svg width="48" height="18" viewBox="0 0 48 18" fill="none" xmlns="http://www.w3.org/2000/svg">
<path d="M6.95801 6.06055C6.84082 5.02051 5.88867 4.41992 4.61426 4.41992C3.20801 4.41992 2.28516 5.15234 2.28516 6.16309C2.28516 7.27637 3.53027 7.68652 4.33594 7.8916L5.39062 8.18457C6.5332 8.47754 8.39355 9.13672 8.39355 11.1143C8.39355 12.8428 7.00195 14.1904 4.54102 14.1904C2.25586 14.1904 0.834961 13.0039 0.717773 11.2461H2.06543C2.18262 12.4326 3.28125 12.9893 4.54102 12.9893C6.00586 12.9893 7.10449 12.2422 7.10449 11.085C7.10449 10.0596 6.12305 9.66406 5.00977 9.3418L3.70605 8.99023C2.03613 8.50684 1.01074 7.65723 1.01074 6.22168C1.01074 4.43457 2.60742 3.24805 4.6582 3.24805C6.70898 3.24805 8.18848 4.44922 8.24707 6.06055H6.95801ZM11.6221 14V3.39453H12.8818V9.56152H13.0283L16.4707 6.0459H18.0234L14.6689 9.44434L18.2725 14H16.6758L13.7314 10.25L12.8818 11.0264V14H11.6221ZM20.8711 14V6.0459H22.1309V14H20.8711ZM21.501 4.72754C21.0176 4.72754 20.6221 4.36133 20.6221 3.89258C20.6221 3.42383 21.0176 3.05762 21.501 3.05762C21.9844 3.05762 22.3945 3.42383 22.3945 3.89258C22.3945 4.36133 21.9844 4.72754 21.501 4.72754ZM25.6377 16.9883V6.0459H26.8535V7.30566H27C27.2637 6.88086 27.7617 5.94336 29.2998 5.94336C31.292 5.94336 32.6836 7.52539 32.6836 10.0449C32.6836 12.5645 31.292 14.1611 29.3145 14.1611C27.791 14.1611 27.2637 13.2236 27 12.7842H26.8975V16.9883H25.6377ZM26.8682 10.0156C26.8682 11.8027 27.6738 13.0332 29.1387 13.0332C30.6475 13.0332 31.4238 11.7148 31.4238 10.0156C31.4238 8.36035 30.6621 7.07129 29.1387 7.07129C27.6445 7.07129 26.8682 8.25781 26.8682 10.0156Z" fill="#DA6022"/>
<path d="M42 15L46.4665 9.64018C46.7756 9.26934 46.7756 8.73066 46.4665 8.35982L42 3" stroke="#DA6022" stroke-linecap="round"/>
</svg>
